UFO
<glyph name="exclam" format="1">
  <advance width="282"/>
  <unicode hex="0021"/>
  <outline>
    <contour>
      <point x="153" y="192" type="curve"/>
      <point x="132" y="192" type="line"/>
      <point x="132" y="192"/>
      <point x="58" y="551"/>
      <point x="58" y="715" type="curve" smooth="yes"/>
      <point x="58" y="760"/>
      <point x="79" y="815"/>
      <point x="141" y="815" type="curve" smooth="yes"/>
      <point x="203" y="815"/>
      <point x="224" y="760"/>
      <point x="224" y="715" type="curve" smooth="yes"/>
      <point x="224" y="551"/>
      <point x="146" y="200"/>
    </contour>
    <contour>
      <point x="58" y="73,001" type="curve" smooth="yes"/>
      <point x="58" y="120,001"/>
      <point x="92" y="160,001"/>
      <point x="140" y="160,001" type="curve" smooth="yes"/>
      <point x="188" y="160,001"/>
      <point x="224" y="120,001"/>
      <point x="224" y="73,001" type="curve" smooth="yes"/>
      <point x="224" y="25"/>
      <point x="188" y="-15"/>
      <point x="140" y="-15" type="curve" smooth="yes"/>
      <point x="92" y="-15"/>
      <point x="58" y="25"/>
    </contour>
  </outline>
</glyph>
<glyph name="numbersign" format="1">
  <advance width="515"/>
  <unicode hex="0023"/>
  <outline>
    <contour>
      <point x="339,224" y="367,272" type="line"/>
      <point x="381,112" y="600,211" type="line"/>
      <point x="350,939" y="600,211" type="line"/>
      <point x="310,414" y="372,717" type="line"/>
      <point x="215,612" y="390,636" type="line"/>
      <point x="252,83" y="597,605" type="line"/>
      <point x="222,657" y="597,605" type="line"/>
      <point x="186,76" y="396,089" type="line"/>
      <point x="25" y="426,664" type="line"/>
      <point x="25" y="397,505" type="line"/>
      <point x="181,676" y="367,552" type="line"/>
      <point x="161,72" y="255,529" type="line"/>
      <point x="25" y="281,371" type="line"/>
      <point x="25" y="252,212" type="line"/>
      <point x="156,646" y="227,044" type="line"/>
      <point x="115,737" y="-2,60547" type="line"/>
      <point x="144,897" y="-2,60547" type="line"/>
      <point x="185,212" y="221,583" type="line"/>
      <point x="280,255" y="203,413" type="line"/>
      <point x="244,02" y="0" type="line"/>
      <point x="273,18" y="0" type="line"/>
      <point x="308,778" y="197,96" type="line"/>
      <point x="493,18" y="162,707" type="line"/>
      <point x="493,18" y="192,879" type="line"/>
      <point x="313,956" y="226,755" type="line"/>
      <point x="334,037" y="338,424" type="line"/>
      <point x="493,18" y="308" type="line"/>
      <point x="493,18" y="338,172" type="line"/>
    </contour>
    <contour>
      <point x="305,285" y="343,921" type="line"/>
      <point x="285,375" y="232,157" type="line"/>
      <point x="190,343" y="250,119" type="line"/>
      <point x="210,471" y="362,047" type="line"/>
    </contour>
  </outline>
</glyph>
<glyph name="dollar" format="1">
  <advance width="612"/>
  <unicode hex="0024"/>
  <outline>
    <contour>
      <point x="291,009" y="797,997" type="curve"/>
      <point x="391,25" y="797,997"/>
      <point x="518,25" y="586,667"/>
      <point x="518,25" y="540,667" type="curve"/>
      <point x="530,75" y="540,667" type="line"/>
      <point x="512,75" y="804,667" type="line"/>
      <point x="504,375" y="804,667" type="line"/>
      <point x="504,375" y="804,667"/>
      <point x="502,75" y="756,667"/>
      <point x="471,25" y="756,667" type="curve"/>
      <point x="431" y="756,667"/>
      <point x="403,5" y="814,998"/>
      <point x="295,01" y="814,998" type="curve"/>
      <point x="155" y="815"/>
      <point x="50" y="702"/>
      <point x="50" y="560" type="curve" smooth="yes"/>
      <point x="50" y="321,4"/>
      <point x="440,446" y="353,396"/>
      <point x="440,992" y="136" type="curve"/>
      <point x="440,992" y="68"/>
      <point x="413,593" y="2,99219"/>
      <point x="316" y="3" type="curve"/>
      <point x="222" y="3"/>
      <point x="107,659" y="162,733"/>
      <point x="75" y="305" type="curve"/>
      <point x="61,9355" y="305" type="line"/>
      <point x="57,0371" y="-1" type="line"/>
      <point x="57,0127" y="-0,902344"/>
      <point x="64,3008" y="-1,04297"/>
      <point x="72" y="-1" type="curve"/>
      <point x="72" y="25"/>
      <point x="89" y="38"/>
      <point x="102" y="38" type="curve"/>
      <point x="132,25" y="38"/>
      <point x="238,81" y="-15"/>
      <point x="316,125" y="-15" type="curve" smooth="yes"/>
      <point x="476,159" y="-15"/>
      <point x="578" y="100,357"/>
      <point x="578" y="237,831" type="curve"/>
      <point x="578" y="524"/>
      <point x="180" y="467"/>
      <point x="180" y="676" type="curve"/>
      <point x="180" y="715"/>
      <point x="186,199" y="798,31"/>
    </contour>
    <contour>
      <point x="331" y="-82" type="line"/>
      <point x="331,574" y="897,188" type="line"/>
      <point x="281,118" y="897,642" type="line"/>
      <point x="281,688" y="-82,042" type="line"/>
    </contour>
  </outline>
</glyph>
<glyph name="percent" format="1">
  <advance width="589"/>
  <unicode hex="0025"/>
  <outline>
    <contour>
      <point x="433,78" y="36,0996" type="curve"/>
      <point x="367,091" y="36,0996"/>
      <point x="311,32" y="86,0195"/>
      <point x="311,32" y="195,609" type="curve"/>
      <point x="311,32" y="311,83"/>
      <point x="386,72" y="359,796"/>
      <point x="433,91" y="359,796" type="curve"/>
      <point x="480,841" y="359,796"/>
      <point x="556,24" y="311,83"/>
      <point x="556,24" y="195,609" type="curve"/>
      <point x="556,24" y="86,0195"/>
      <point x="500,47" y="36,0996"/>
    </contour>
    <contour>
      <point x="433,91" y="353,562" type="curve"/>
      <point x="407" y="353,562"/>
      <point x="388,54" y="319,63"/>
      <point x="388,54" y="194,05" type="curve"/>
      <point x="388,54" y="77,4395"/>
      <point x="406,87" y="41,9502"/>
      <point x="433,73" y="42,3203" type="curve"/>
      <point x="460,69" y="41,9502"/>
      <point x="479,021" y="77,4395"/>
      <point x="479,021" y="194,05" type="curve"/>
      <point x="479,021" y="319,63"/>
      <point x="460,561" y="353,562"/>
    </contour>
    <contour>
      <point x="151,78" y="452,099" type="curve"/>
      <point x="85,0908" y="452,099"/>
      <point x="29,3203" y="502,019"/>
      <point x="29,3203" y="611,608" type="curve"/>
      <point x="29,3203" y="727,829"/>
      <point x="104,72" y="775,795"/>
      <point x="151,91" y="775,795" type="curve"/>
      <point x="198,841" y="775,795"/>
      <point x="274,24" y="727,829"/>
      <point x="274,24" y="611,608" type="curve"/>
      <point x="274,24" y="502,019"/>
      <point x="218,47" y="452,099"/>
    </contour>
    <contour>
      <point x="151,91" y="769,561" type="curve"/>
      <point x="125" y="769,561"/>
      <point x="106,54" y="735,629"/>
      <point x="106,54" y="610,049" type="curve"/>
      <point x="106,54" y="493,438"/>
      <point x="124,87" y="457,949"/>
      <point x="151,73" y="458,319" type="curve"/>
      <point x="178,69" y="457,949"/>
      <point x="197,021" y="493,438"/>
      <point x="197,021" y="610,049" type="curve"/>
      <point x="197,021" y="735,629"/>
      <point x="178,561" y="769,561"/>
    </contour>
    <contour>
      <point x="98,54" y="70,0488" type="line"/>
      <point x="524,205" y="721,611" type="line"/>
      <point x="475" y="741" type="line"/>
      <point x="50,54" y="89,1064" type="line"/>
    </contour>
  </outline>
</glyph>
<glyph name="ampersand" format="1">
  <advance width="860"/>
  <unicode hex="0026"/>
  <outline>
    <contour>
      <point x="720,233" y="-15" type="curve" smooth="yes"/>
      <point x="850,233" y="-15"/>
      <point x="902,835" y="99,8564"/>
      <point x="880" y="118" type="curve"/>
      <point x="880" y="89,1769"/>
      <point x="823" y="42"/>
      <point x="766" y="42" type="curve" smooth="yes"/>
      <point x="707,47" y="42"/>
      <point x="673,102" y="118,444"/>
      <point x="610,547" y="209,013" type="curve"/>
      <point x="648,075" y="290,524"/>
      <point x="665,362" y="369,466"/>
      <point x="684" y="397" type="curve" smooth="yes"/>
      <point x="728" y="462"/>
      <point x="808" y="487"/>
      <point x="808" y="487" type="curve"/>
      <point x="808" y="495" type="line"/>
      <point x="714" y="476"/>
      <point x="631" y="474"/>
      <point x="539" y="495" type="curve"/>
      <point x="539" y="487" type="line"/>
      <point x="539" y="487"/>
      <point x="634" y="464"/>
      <point x="629" y="403" type="curve"/>
      <point x="629" y="403"/>
      <point x="625,936" y="322,322"/>
      <point x="593,19" y="233,416" type="curve"/>
      <point x="559,191" y="279,726"/>
      <point x="516,978" y="328,188"/>
      <point x="460" y="371" type="curve"/>
      <point x="414,979" y="406,85"/>
      <point x="366,071" y="431,718"/>
      <point x="323,424" y="460,746" type="curve"/>
      <point x="380,257" y="468,058"/>
      <point x="509" y="498,223"/>
      <point x="509" y="641" type="curve" smooth="yes"/>
      <point x="509" y="771"/>
      <point x="404" y="815"/>
      <point x="315,01" y="814,998" type="curve" smooth="yes"/>
      <point x="167,5" y="815"/>
      <point x="78" y="702"/>
      <point x="78" y="560" type="curve" smooth="yes"/>
      <point x="78" y="485,899"/>
      <point x="97,4396" y="434,699"/>
      <point x="134,177" y="391,511" type="curve"/>
      <point x="73,5868" y="350,099"/>
      <point x="-9,00001" y="302,408"/>
      <point x="-9" y="203" type="curve" smooth="yes"/>
      <point x="-9" y="79,5"/>
      <point x="114,5" y="-15"/>
      <point x="296,5" y="-15" type="curve" smooth="yes"/>
      <point x="400,676" y="-15"/>
      <point x="473,724" y="24,8749"/>
      <point x="526,477" y="80,118" type="curve"/>
      <point x="576,287" y="26,8196"/>
      <point x="626,677" y="-15"/>
    </contour>
    <contour>
      <point x="512,059" y="95,8143" type="curve"/>
      <point x="463,123" y="43,1056"/>
      <point x="393,797" y="4,45531"/>
      <point x="295,625" y="2,875" type="curve"/>
      <point x="197" y="5"/>
      <point x="120,5" y="78"/>
      <point x="120,5" y="202,5" type="curve" smooth="yes"/>
      <point x="120,5" y="288,043"/>
      <point x="142,022" y="330,414"/>
      <point x="163,343" y="361,814" type="curve"/>
      <point x="212,22" y="317,993"/>
      <point x="281,029" y="279,476"/>
      <point x="367" y="227" type="curve" smooth="yes"/>
      <point x="431,252" y="187,781"/>
      <point x="472,741" y="139,162"/>
    </contour>
    <contour>
      <point x="308,439" y="471,344" type="curve"/>
      <point x="250,85" y="513,808"/>
      <point x="208" y="568,045"/>
      <point x="208" y="676" type="curve" smooth="yes"/>
      <point x="208" y="715"/>
      <point x="232,5" y="797,997"/>
      <point x="311,009" y="797,997" type="curve" smooth="yes"/>
      <point x="374" y="797,997"/>
      <point x="432" y="767"/>
      <point x="432" y="641" type="curve" smooth="yes"/>
      <point x="432" y="503,485"/>
      <point x="348,193" y="476,631"/>
    </contour>
  </outline>
</glyph>
<glyph name="quotesingle" format="1">
  <advance width="189"/>
  <unicode hex="0027"/>
  <outline>
    <contour>
      <point x="100,529" y="553,979" type="curve"/>
      <point x="90,0703" y="553,979" type="line"/>
      <point x="90,0703" y="553,979"/>
      <point x="53,2158" y="691,975"/>
      <point x="53,2158" y="773,651" type="curve" smooth="yes"/>
      <point x="53,2158" y="796,063"/>
      <point x="63,6748" y="823,456"/>
      <point x="94,5527" y="823,456" type="curve" smooth="yes"/>
      <point x="125,431" y="823,456"/>
      <point x="135,89" y="796,063"/>
      <point x="135,89" y="773,651" type="curve" smooth="yes"/>
      <point x="135,89" y="691,975"/>
      <point x="97,043" y="557,964"/>
    </contour>
  </outline>
</glyph>
<glyph name="parenleft" format="1">
  <advance width="318"/>
  <unicode hex="0028"/>
  <outline>
    <contour>
      <point x="185" y="394" type="curve" smooth="yes"/>
      <point x="184,906" y="716,056"/>
      <point x="218,363" y="845,015"/>
      <point x="300,666" y="845,015" type="curve"/>
      <point x="300,666" y="862" type="line"/>
      <point x="210,999" y="862,011"/>
      <point x="38" y="692"/>
      <point x="38" y="394" type="curve" smooth="yes"/>
      <point x="38" y="96"/>
      <point x="211" y="-74,0107"/>
      <point x="300,666" y="-74" type="curve"/>
      <point x="300,666" y="-57,0146" type="line"/>
      <point x="218,363" y="-57,0146"/>
      <point x="184,906" y="71,9443"/>
    </contour>
  </outline>
</glyph>
<glyph name="parenright" format="1">
  <advance width="318"/>
  <unicode hex="0029"/>
  <outline>
    <contour>
      <point x="153,667" y="394" type="curve" smooth="yes"/>
      <point x="153,761" y="716,056"/>
      <point x="120,303" y="845,015"/>
      <point x="38" y="845,015" type="curve"/>
      <point x="38" y="862" type="line"/>
      <point x="127,667" y="862,011"/>
      <point x="300,667" y="692"/>
      <point x="300,667" y="394" type="curve" smooth="yes"/>
      <point x="300,667" y="96"/>
      <point x="127,666" y="-74,0107"/>
      <point x="38" y="-74" type="curve"/>
      <point x="38" y="-57,0146" type="line"/>
      <point x="120,303" y="-57,0146"/>
      <point x="153,761" y="71,9443"/>
    </contour>
  </outline>
</glyph>
<glyph name="asterisk" format="1">
  <advance width="405"/>
  <unicode hex="002A"/>
  <outline>
    <contour>
      <point x="208,625" y="587,082" type="curve"/>
      <point x="223,034" y="609,591"/>
      <point x="252,046" y="656,919"/>
      <point x="277,878" y="682,751" type="curve" smooth="yes"/>
      <point x="287,386" y="692,26"/>
      <point x="303,445" y="699,444"/>
      <point x="316,545" y="686,344" type="curve" smooth="yes"/>
      <point x="329,646" y="673,244"/>
      <point x="322,461" y="657,185"/>
      <point x="312,953" y="647,676" type="curve" smooth="yes"/>
      <point x="288,289" y="623,011"/>
      <point x="243,598" y="594,164"/>
      <point x="219,884" y="579,583" type="curve"/>
      <point x="246,941" y="585,584"/>
      <point x="298,328" y="597,604"/>
      <point x="333,521" y="597,604" type="curve" smooth="yes"/>
      <point x="346,968" y="597,604"/>
      <point x="363,404" y="591,329"/>
      <point x="363,404" y="572,803" type="curve" smooth="yes"/>
      <point x="363,404" y="554,275"/>
      <point x="346,968" y="548"/>
      <point x="333,521" y="548" type="curve" smooth="yes"/>
      <point x="298,616" y="548"/>
      <point x="246,567" y="559,219"/>
      <point x="219,505" y="565,675" type="curve"/>
      <point x="242,959" y="550,742"/>
      <point x="287,534" y="523,03"/>
      <point x="312,319" y="498,245" type="curve" smooth="yes"/>
      <point x="321,827" y="488,736"/>
      <point x="329,012" y="472,677"/>
      <point x="315,911" y="459,576" type="curve" smooth="yes"/>
      <point x="302,811" y="446,476"/>
      <point x="286,752" y="453,661"/>
      <point x="277,243" y="463,169" type="curve" smooth="yes"/>
      <point x="252,822" y="487,59"/>
      <point x="224,299" y="531,645"/>
      <point x="209,585" y="555,53" type="curve"/>
      <point x="215,649" y="528,248"/>
      <point x="227,409" y="477,595"/>
      <point x="227,409" y="442,784" type="curve" smooth="yes"/>
      <point x="227,409" y="429,338"/>
      <point x="221,134" y="412,901"/>
      <point x="202,606" y="412,901" type="curve" smooth="yes"/>
      <point x="184,08" y="412,901"/>
      <point x="177,805" y="429,338"/>
      <point x="177,805" y="442,784" type="curve" smooth="yes"/>
      <point x="177,805" y="476,289"/>
      <point x="188,14" y="525,589"/>
      <point x="194,68" y="553,425" type="curve"/>
      <point x="179,678" y="529,185"/>
      <point x="151,948" y="486,671"/>
      <point x="128,122" y="462,846" type="curve" smooth="yes"/>
      <point x="118,613" y="453,337"/>
      <point x="102,554" y="446,152"/>
      <point x="89,4531" y="459,252" type="curve" smooth="yes"/>
      <point x="76,3535" y="472,353"/>
      <point x="83,5381" y="488,412"/>
      <point x="93,0469" y="497,921" type="curve" smooth="yes"/>
      <point x="118,06" y="522,934"/>
      <point x="163,23" y="550,929"/>
      <point x="186,503" y="565,76" type="curve"/>
      <point x="159,543" y="559,318"/>
      <point x="107,19" y="548"/>
      <point x="72,1309" y="548" type="curve" smooth="yes"/>
      <point x="58,6836" y="548"/>
      <point x="42,2471" y="554,275"/>
      <point x="42,2471" y="572,803" type="curve" smooth="yes"/>
      <point x="42,2471" y="591,329"/>
      <point x="58,6836" y="597,604"/>
      <point x="72,1309" y="597,604" type="curve" smooth="yes"/>
      <point x="107,488" y="597,604"/>
      <point x="159,19" y="585,472"/>
      <point x="186,145" y="579,499" type="curve"/>
      <point x="162,61" y="593,945"/>
      <point x="117,308" y="623,104"/>
      <point x="92,4121" y="648" type="curve" smooth="yes"/>
      <point x="82,9043" y="657,509"/>
      <point x="75,7188" y="673,567"/>
      <point x="88,8193" y="686,668" type="curve" smooth="yes"/>
      <point x="101,92" y="699,77"/>
      <point x="117,979" y="692,584"/>
      <point x="127,488" y="683,076" type="curve" smooth="yes"/>
      <point x="152,756" y="657,808"/>
      <point x="181,067" y="611,97"/>
      <point x="195,776" y="588,914" type="curve"/>
      <point x="189,375" y="615,598"/>
      <point x="177,805" y="668,727"/>
      <point x="177,805" y="704,175" type="curve" smooth="yes"/>
      <point x="177,805" y="717,622"/>
      <point x="184,08" y="734,059"/>
      <point x="202,606" y="734,059" type="curve" smooth="yes"/>
      <point x="221,134" y="734,059"/>
      <point x="227,409" y="717,622"/>
      <point x="227,409" y="704,175" type="curve" smooth="yes"/>
      <point x="227,409" y="667,421"/>
      <point x="214,298" y="613,002"/>
    </contour>
  </outline>
</glyph>
<glyph name="plus" format="1">
  <advance width="540"/>
  <unicode hex="002B"/>
  <outline>
    <contour>
      <point x="65" y="241" type="line"/>
      <point x="65" y="317" type="line"/>
      <point x="224" y="317" type="line"/>
      <point x="224" y="485" type="line"/>
      <point x="308" y="485" type="line"/>
      <point x="308" y="317" type="line"/>
      <point x="471" y="317" type="line"/>
      <point x="471" y="241" type="line"/>
      <point x="308" y="241" type="line"/>
      <point x="308" y="79" type="line"/>
      <point x="224" y="79" type="line"/>
      <point x="224" y="241" type="line"/>
    </contour>
  </outline>
</glyph>
<glyph name="comma" format="1">
  <advance width="301"/>
  <unicode hex="002C"/>
  <outline>
    <contour>
      <point x="42,6953" y="-125,883" type="line"/>
      <point x="175,411" y="-83,293"/>
      <point x="212,313" y="16,03"/>
      <point x="213" y="104" type="curve" smooth="yes"/>
      <point x="213,5" y="168"/>
      <point x="165,503" y="195"/>
      <point x="126" y="195" type="curve" smooth="yes"/>
      <point x="52" y="195"/>
      <point x="21,2295" y="95,7695"/>
      <point x="71,5" y="45,5" type="curve"/>
      <point x="161,186" y="-44,1865"/>
      <point x="74,0947" y="-96,6074"/>
      <point x="36,7559" y="-107,385" type="curve"/>
    </contour>
  </outline>
</glyph>
<glyph name="hyphen" format="1">
  <advance width="348"/>
  <unicode hex="002D"/>
  <outline>
    <contour>
      <point x="42" y="171" type="line"/>
      <point x="42" y="247" type="line"/>
      <point x="314" y="247" type="line"/>
      <point x="314" y="171" type="line"/>
    </contour>
  </outline>
</glyph>
<glyph name="period" format="1">
  <advance width="301"/>
  <unicode hex="002E"/>
  <outline>
    <contour>
      <point x="46,8779" y="78,001" type="curve" smooth="yes"/>
      <point x="46,8779" y="125,001"/>
      <point x="80,8779" y="165,001"/>
      <point x="128,878" y="165,001" type="curve" smooth="yes"/>
      <point x="176,878" y="165,001"/>
      <point x="212,878" y="125,001"/>
      <point x="212,878" y="78,001" type="curve" smooth="yes"/>
      <point x="212,878" y="30"/>
      <point x="176,878" y="-10"/>
      <point x="128,878" y="-10" type="curve" smooth="yes"/>
      <point x="80,8779" y="-10"/>
      <point x="46,8779" y="30"/>
    </contour>
  </outline>
</glyph>
<glyph name="slash" format="1">
  <advance width="295"/>
  <unicode hex="002F"/>
  <outline>
    <contour>
      <point x="46,75" y="-73" type="line"/>
      <point x="284,75" y="668" type="line"/>
      <point x="247,5" y="668" type="line"/>
      <point x="10,75" y="-73" type="line"/>
    </contour>
  </outline>
</glyph>
<glyph name="zero" format="1">
  <advance width="688"/>
  <unicode hex="0030"/>
  <outline>
    <contour>
      <point x="344" y="-15" type="curve"/>
      <point x="173" y="-15"/>
      <point x="30" y="113"/>
      <point x="30" y="394" type="curve"/>
      <point x="30" y="692"/>
      <point x="223,333" y="814,989"/>
      <point x="344,333" y="814,989" type="curve"/>
      <point x="464,667" y="814,989"/>
      <point x="658" y="692"/>
      <point x="658" y="394" type="curve"/>
      <point x="658" y="113"/>
      <point x="515" y="-15"/>
    </contour>
    <contour>
      <point x="344,333" y="799,004" type="curve"/>
      <point x="275,333" y="799,004"/>
      <point x="228" y="712"/>
      <point x="228" y="390" type="curve"/>
      <point x="228" y="91"/>
      <point x="275" y="0"/>
      <point x="343,873" y="0,951172" type="curve"/>
      <point x="413" y="0"/>
      <point x="460" y="91"/>
      <point x="460" y="390" type="curve"/>
      <point x="460" y="712"/>
      <point x="412,667" y="799,004"/>
    </contour>
  </outline>
</glyph>
<glyph name="one" format="1">
  <advance width="430"/>
  <unicode hex="0031"/>
  <outline>
    <contour>
      <point x="317,418" y="800,328" type="curve"/>
      <point x="326,197" y="800,328" type="line"/>
      <point x="326,197" y="85" type="line" smooth="yes"/>
      <point x="326,197" y="21"/>
      <point x="419,2" y="8"/>
      <point x="419,2" y="8" type="curve"/>
      <point x="419,2" y="0" type="line"/>
      <point x="325,723" y="20,9863"/>
      <point x="152,788" y="18,9883"/>
      <point x="59,2002" y="0" type="curve"/>
      <point x="59,2002" y="8" type="line"/>
      <point x="59,2002" y="8"/>
      <point x="152,116" y="22"/>
      <point x="152,2" y="85" type="curve" smooth="yes"/>
      <point x="152,924" y="627,326" type="line" smooth="yes"/>
      <point x="152,904" y="666,209"/>
      <point x="150,667" y="675,664"/>
      <point x="142,665" y="683,666" type="curve" smooth="yes"/>
      <point x="121,16" y="705,171"/>
      <point x="79" y="699"/>
      <point x="43,7988" y="699" type="curve"/>
      <point x="43,7988" y="706,526" type="line"/>
      <point x="111,531" y="716,561"/>
      <point x="203" y="740,998"/>
    </contour>
  </outline>
</glyph>
<glyph name="two" format="1">
  <advance width="634"/>
  <unicode hex="0032"/>
  <outline>
    <contour>
      <point x="576" y="243,817" type="line"/>
      <point x="567,998" y="244,001" type="line"/>
      <point x="567,998" y="244,001"/>
      <point x="554,998" y="152,001"/>
      <point x="490,998" y="152,001" type="curve" smooth="yes"/>
      <point x="93,501" y="152" type="line"/>
      <point x="81,751" y="127,5"/>
      <point x="55" y="79,5"/>
      <point x="55,001" y="0" type="curve"/>
      <point x="538,637" y="0" type="line"/>
    </contour>
    <contour>
      <point x="72,999" y="-0,00195312" type="line"/>
      <point x="72,999" y="336"/>
      <point x="584" y="276"/>
      <point x="584" y="580" type="curve" smooth="yes"/>
      <point x="584" y="714"/>
      <point x="486,001" y="814,989"/>
      <point x="344,334" y="814,989" type="curve" smooth="yes"/>
      <point x="246,855" y="814,989"/>
      <point x="101,824" y="735,172"/>
      <point x="49,7285" y="548" type="curve"/>
      <point x="63,6719" y="547,998" type="line"/>
      <point x="120,406" y="629,85"/>
      <point x="200,001" y="688"/>
      <point x="271,983" y="688" type="curve"/>
      <point x="372,001" y="688"/>
      <point x="404,001" y="608"/>
      <point x="404,001" y="548" type="curve" smooth="yes"/>
      <point x="404,001" y="343"/>
      <point x="54,001" y="287"/>
      <point x="54,001" y="0" type="curve" smooth="yes"/>
    </contour>
  </outline>
</glyph>
<glyph name="three" format="1">
  <advance width="598"/>
  <unicode hex="0033"/>
  <outline>
    <contour>
      <point x="291,5" y="5" type="curve" smooth="yes"/>
      <point x="235,5" y="5"/>
      <point x="203" y="38"/>
      <point x="203" y="116" type="curve" smooth="yes"/>
      <point x="203" y="178"/>
      <point x="194,5" y="246,916"/>
      <point x="110,167" y="246,916" type="curve"/>
      <point x="18,833" y="242,917"/>
      <point x="12" y="169"/>
      <point x="12" y="152,5" type="curve" smooth="yes"/>
      <point x="12" y="59"/>
      <point x="138,5" y="-15"/>
      <point x="298,5" y="-15" type="curve" smooth="yes"/>
      <point x="515,5" y="-15"/>
      <point x="577,5" y="183,119"/>
      <point x="577,5" y="257" type="curve" smooth="yes"/>
      <point x="577,5" y="354,605"/>
      <point x="526,549" y="441,047"/>
      <point x="450,203" y="477,34" type="curve"/>
      <point x="510,628" y="523,337"/>
      <point x="525,87" y="586,601"/>
      <point x="525,87" y="636" type="curve" smooth="yes"/>
      <point x="525,87" y="756"/>
      <point x="404,5" y="815"/>
      <point x="315,5" y="815" type="curve" smooth="yes"/>
      <point x="225,5" y="815"/>
      <point x="104,5" y="761"/>
      <point x="104,502" y="650,001" type="curve"/>
      <point x="116,506" y="650,001" type="line"/>
      <point x="116,506" y="663,966"/>
      <point x="154,036" y="695,5"/>
      <point x="219,2" y="695,5" type="curve" smooth="yes"/>
      <point x="281,5" y="695,5"/>
      <point x="359,6" y="657,5"/>
      <point x="359,6" y="570" type="curve" smooth="yes"/>
      <point x="359,6" y="490,2"/>
      <point x="319,7" y="429,5"/>
      <point x="211,2" y="429,5" type="curve"/>
      <point x="211,5" y="416" type="line"/>
      <point x="321,5" y="416"/>
      <point x="393,41" y="323,835"/>
      <point x="394,5" y="213,25" type="curve"/>
      <point x="394,5" y="109"/>
      <point x="381,5" y="5"/>
    </contour>
  </outline>
</glyph>
<glyph name="four" format="1">
  <advance width="685"/>
  <unicode hex="0034"/>
  <outline>
    <contour>
      <point x="540,333" y="813,5" type="curve"/>
      <point x="59,2061" y="232,097" type="line"/>
      <point x="19,8828" y="262,979" type="line"/>
      <point x="501,01" y="844,382" type="line"/>
      <point x="508,01" y="845,382" type="line"/>
      <point x="508,01" y="845,382"/>
      <point x="505,333" y="828"/>
    </contour>
    <contour>
      <point x="540,333" y="813,5" type="move"/>
    </contour>
    <contour>
      <point x="665" y="299,014" type="line"/>
      <point x="637,666" y="270,229"/>
      <point x="622,876" y="223,896"/>
      <point x="622,876" y="193,979" type="curve"/>
      <point x="51,8193" y="194" type="line"/>
      <point x="51,8193" y="194"/>
      <point x="59,2061" y="232,097"/>
      <point x="19,8818" y="262,98" type="curve"/>
      <point x="51,8174" y="298,926" type="line"/>
    </contour>
    <contour>
      <point x="372,333" y="85" type="curve" smooth="yes"/>
      <point x="372,333" y="610,5" type="line"/>
      <point x="540,333" y="813,5" type="line"/>
      <point x="540,333" y="85" type="line" smooth="yes"/>
      <point x="540,333" y="21"/>
      <point x="632,333" y="8"/>
      <point x="632,333" y="8" type="curve"/>
      <point x="632,333" y="0" type="line"/>
      <point x="540,333" y="21"/>
      <point x="373,333" y="19"/>
      <point x="279,333" y="0" type="curve"/>
      <point x="279,333" y="8" type="line"/>
      <point x="279,333" y="8"/>
      <point x="372,333" y="22"/>
    </contour>
  </outline>
</glyph>
<glyph name="five" format="1">
  <advance width="549"/>
  <unicode hex="0035"/>
  <outline>
    <contour>
      <point x="517,409" y="842,5" type="line"/>
      <point x="509,408" y="842,684" type="line"/>
      <point x="509,408" y="842,684"/>
      <point x="501,408" y="799,833"/>
      <point x="437,407" y="799,833" type="curve" smooth="yes"/>
      <point x="139,949" y="799,833" type="line"/>
      <point x="114" y="799,833" type="line"/>
      <point x="106,785" y="748,299"/>
      <point x="101,5" y="698,75"/>
      <point x="94,75" y="647,833" type="curve"/>
      <point x="94,92" y="647,833" type="line"/>
      <point x="83,3283" y="555,488"/>
      <point x="70,1082" y="462,663"/>
      <point x="47" y="371,5" type="curve"/>
      <point x="58,6689" y="371,338" type="line"/>
      <point x="58,6689" y="371,338"/>
      <point x="71,3333" y="384"/>
      <point x="130" y="384" type="curve" smooth="yes"/>
      <point x="324,529" y="384"/>
      <point x="405,5" y="277,232"/>
      <point x="404,465" y="138" type="curve" smooth="yes"/>
      <point x="403,959" y="70,0019"/>
      <point x="347,497" y="5"/>
      <point x="288" y="5" type="curve" smooth="yes"/>
      <point x="227" y="5"/>
      <point x="191" y="38"/>
      <point x="191" y="116" type="curve" smooth="yes"/>
      <point x="191" y="178"/>
      <point x="182,5" y="246,916"/>
      <point x="98,167" y="246,916" type="curve"/>
      <point x="6,83301" y="242,917"/>
      <point x="0" y="169"/>
      <point x="0" y="152,5" type="curve" smooth="yes"/>
      <point x="0" y="59"/>
      <point x="111" y="-15"/>
      <point x="282,5" y="-15" type="curve" smooth="yes"/>
      <point x="450" y="-15"/>
      <point x="535" y="186"/>
      <point x="535" y="303" type="curve" smooth="yes"/>
      <point x="535" y="456,653"/>
      <point x="426,435" y="574"/>
      <point x="192,5" y="574" type="curve" smooth="yes"/>
      <point x="159,269" y="574"/>
      <point x="128,955" y="569,196"/>
      <point x="108,814" y="565" type="curve"/>
      <point x="112,408" y="592,594"/>
      <point x="115,746" y="620,21"/>
      <point x="119,116" y="647,784" type="curve"/>
      <point x="241,092" y="647,499"/>
      <point x="363,069" y="646,671"/>
      <point x="485,045" y="647,833" type="curve"/>
    </contour>
  </outline>
</glyph>
<glyph name="six" format="1">
  <advance width="646"/>
  <unicode hex="0036"/>
  <outline>
    <contour>
      <point x="330" y="-19,25" type="curve"/>
      <point x="404" y="-19,25"/>
      <point x="476" y="5,75"/>
      <point x="528" y="54,75" type="curve" smooth="yes"/>
      <point x="580" y="104,75"/>
      <point x="606" y="165,75"/>
      <point x="606" y="239,75" type="curve"/>
      <point x="606" y="337,75"/>
      <point x="532" y="488,75"/>
      <point x="363" y="488,75" type="curve"/>
      <point x="284" y="488,75"/>
      <point x="240,958" y="465,201"/>
      <point x="225,005" y="453,751" type="curve"/>
      <point x="226" y="434,75" type="line"/>
      <point x="226" y="434,75"/>
      <point x="263" y="462,75"/>
      <point x="317" y="462,75" type="curve"/>
      <point x="420" y="462,75"/>
      <point x="443,415" y="334,013"/>
      <point x="444" y="238,75" type="curve"/>
      <point x="444" y="116,872"/>
      <point x="436,791" y="-2,25"/>
      <point x="330" y="-2,25" type="curve" smooth="yes"/>
      <point x="222,286" y="-2,25"/>
      <point x="220" y="127,75"/>
      <point x="220" y="265,75" type="curve" smooth="yes"/>
      <point x="220" y="561,75"/>
      <point x="427,102" y="788,116"/>
      <point x="531" y="791,25" type="curve"/>
      <point x="527" y="799" type="line"/>
      <point x="442,5" y="799"/>
      <point x="29" y="659,75"/>
      <point x="29" y="305,75" type="curve"/>
      <point x="29" y="186,75"/>
      <point x="129" y="-19,25"/>
    </contour>
  </outline>
</glyph>
<glyph name="seven" format="1">
  <advance width="611"/>
  <unicode hex="0037"/>
  <outline>
    <contour>
      <point x="380,989" y="-0,00488281" type="line"/>
      <point x="380,989" y="358"/>
      <point x="579,285" y="731,352"/>
      <point x="579,285" y="731,352" type="curve"/>
      <point x="560,287" y="731,354" type="line"/>
      <point x="560,287" y="731,354"/>
      <point x="191,276" y="303,235"/>
      <point x="177" y="0" type="curve"/>
    </contour>
    <contour>
      <point x="579,168" y="800,331" type="curve"/>
      <point x="77,6699" y="800,332" type="line"/>
      <point x="16,3057" y="605,665" type="line"/>
      <point x="24,3066" y="605,481" type="line"/>
      <point x="24,3066" y="605,481"/>
      <point x="39,5" y="648,331"/>
      <point x="96,3076" y="648,331" type="curve" smooth="yes"/>
      <point x="539,5" y="648,333" type="line"/>
      <point x="549,625" y="671"/>
      <point x="580,577" y="735,199"/>
      <point x="579,218" y="731" type="curve"/>
      <point x="579,188" y="765,518"/>
      <point x="579,168" y="800,331"/>
    </contour>
  </outline>
</glyph>
<glyph name="eight" format="1">
  <advance width="603"/>
  <unicode hex="0038"/>
  <outline>
    <contour>
      <point x="311,009" y="797,997" type="curve"/>
      <point x="216,5" y="797,997"/>
      <point x="188" y="715"/>
      <point x="188" y="676" type="curve"/>
      <point x="188" y="467"/>
      <point x="586" y="524"/>
      <point x="586" y="237,831" type="curve"/>
      <point x="586" y="100,357"/>
      <point x="456,536" y="-14,998"/>
      <point x="296,5" y="-15" type="curve"/>
      <point x="114,5" y="-15"/>
      <point x="19" y="79,5"/>
      <point x="19" y="203" type="curve"/>
      <point x="19" y="360"/>
      <point x="197" y="388"/>
      <point x="197" y="466" type="curve"/>
      <point x="205" y="453" type="line"/>
      <point x="205" y="372"/>
      <point x="120,5" y="372"/>
      <point x="120,5" y="202,5" type="curve"/>
      <point x="120,5" y="78"/>
      <point x="229,167" y="2,875"/>
      <point x="295,625" y="2,875" type="curve"/>
      <point x="393,219" y="2,86816"/>
      <point x="448,992" y="68"/>
      <point x="448,992" y="136" type="curve"/>
      <point x="448,446" y="353,396"/>
      <point x="58" y="321,4"/>
      <point x="58" y="560" type="curve" smooth="yes"/>
      <point x="58" y="702"/>
      <point x="167,5" y="815"/>
      <point x="315,01" y="814,998" type="curve"/>
      <point x="404" y="815"/>
      <point x="541" y="771"/>
      <point x="541" y="624" type="curve" smooth="yes"/>
      <point x="541" y="466"/>
      <point x="377,5" y="454,5"/>
      <point x="377" y="452,5" type="curve"/>
      <point x="377" y="452,5"/>
      <point x="366,837" y="464,279"/>
      <point x="368" y="464,5" type="curve"/>
      <point x="370" y="465"/>
      <point x="461,377" y="451,128"/>
      <point x="464" y="624" type="curve"/>
      <point x="462" y="769"/>
      <point x="374" y="797,997"/>
    </contour>
  </outline>
</glyph>
<glyph name="nine" format="1">
  <advance width="611"/>
  <unicode hex="0039"/>
  <outline>
    <contour>
      <point x="296" y="799" type="curve" smooth="yes"/>
      <point x="222" y="799"/>
      <point x="159" y="774"/>
      <point x="107" y="725" type="curve" smooth="yes"/>
      <point x="55" y="675"/>
      <point x="29" y="614"/>
      <point x="29" y="540" type="curve" smooth="yes"/>
      <point x="29" y="442"/>
      <point x="94" y="306"/>
      <point x="263" y="306" type="curve" smooth="yes"/>
      <point x="317,891" y="306"/>
      <point x="355,422" y="317,369"/>
      <point x="378,568" y="328,149" type="curve"/>
      <point x="318,803" y="128,179"/>
      <point x="175,74" y="-9,06471"/>
      <point x="95" y="-11,5" type="curve"/>
      <point x="99" y="-19,25" type="line"/>
      <point x="183,5" y="-19,25"/>
      <point x="597" y="120"/>
      <point x="597" y="474" type="curve" smooth="yes"/>
      <point x="597" y="593"/>
      <point x="497" y="799"/>
    </contour>
    <contour>
      <point x="384,923" y="350,867" type="curve"/>
      <point x="369,257" y="342,696"/>
      <point x="342,376" y="332"/>
      <point x="309" y="332" type="curve" smooth="yes"/>
      <point x="206" y="332"/>
      <point x="191,585" y="445,737"/>
      <point x="191" y="541" type="curve" smooth="yes"/>
      <point x="191" y="662,878"/>
      <point x="189,209" y="782"/>
      <point x="296" y="782" type="curve" smooth="yes"/>
      <point x="403,714" y="782"/>
      <point x="406" y="652"/>
      <point x="406" y="514" type="curve" smooth="yes"/>
      <point x="406" y="456,634"/>
      <point x="398,221" y="401,884"/>
    </contour>
  </outline>
</glyph>
<glyph name="colon" format="1">
  <advance width="301"/>
  <unicode hex="003A"/>
  <outline>
    <contour>
      <point x="46,8779" y="78,001" type="curve" smooth="yes"/>
      <point x="46,8779" y="125,001"/>
      <point x="80,8779" y="165,001"/>
      <point x="128,878" y="165,001" type="curve" smooth="yes"/>
      <point x="176,878" y="165,001"/>
      <point x="212,878" y="125,001"/>
      <point x="212,878" y="78,001" type="curve" smooth="yes"/>
      <point x="212,878" y="30"/>
      <point x="176,878" y="-10"/>
      <point x="128,878" y="-10" type="curve" smooth="yes"/>
      <point x="80,8779" y="-10"/>
      <point x="46,8779" y="30"/>
    </contour>
    <contour>
      <point x="46,8779" y="423,029" type="curve" smooth="yes"/>
      <point x="46,8779" y="470,029"/>
      <point x="80,8779" y="510,029"/>
      <point x="128,878" y="510,029" type="curve" smooth="yes"/>
      <point x="176,878" y="510,029"/>
      <point x="212,878" y="470,029"/>
      <point x="212,878" y="423,029" type="curve" smooth="yes"/>
      <point x="212,878" y="375,028"/>
      <point x="176,878" y="335,028"/>
      <point x="128,878" y="335,028" type="curve" smooth="yes"/>
      <point x="80,8779" y="335,028"/>
      <point x="46,8779" y="375,028"/>
    </contour>
  </outline>
</glyph>
<glyph name="semicolon" format="1">
  <advance width="301"/>
  <unicode hex="003B"/>
  <outline>
    <contour>
      <point x="42,6953" y="-125,883" type="line"/>
      <point x="175,411" y="-83,293"/>
      <point x="212,313" y="16,03"/>
      <point x="213" y="104" type="curve" smooth="yes"/>
      <point x="213,5" y="168"/>
      <point x="165,503" y="195"/>
      <point x="126" y="195" type="curve" smooth="yes"/>
      <point x="52" y="195"/>
      <point x="21,2295" y="95,7695"/>
      <point x="71,5" y="45,5" type="curve" smooth="yes"/>
      <point x="161,186" y="-44,1865"/>
      <point x="74,0947" y="-96,6074"/>
      <point x="36,7559" y="-107,385" type="curve"/>
    </contour>
    <contour>
      <point x="46,8779" y="423,029" type="curve" smooth="yes"/>
      <point x="46,8779" y="470,029"/>
      <point x="80,8779" y="510,029"/>
      <point x="128,878" y="510,029" type="curve" smooth="yes"/>
      <point x="176,878" y="510,029"/>
      <point x="212,878" y="470,029"/>
      <point x="212,878" y="423,029" type="curve" smooth="yes"/>
      <point x="212,878" y="375,028"/>
      <point x="176,878" y="335,028"/>
      <point x="128,878" y="335,028" type="curve" smooth="yes"/>
      <point x="80,8779" y="335,028"/>
      <point x="46,8779" y="375,028"/>
    </contour>
  </outline>
</glyph>
<glyph name="less" format="1">
  <advance width="297"/>
  <unicode hex="003C"/>
  <outline>
    <contour>
      <point x="40,082" y="237,5" type="line"/>
      <point x="277" y="1,39551" type="line"/>
      <point x="277" y="30,3945" type="line"/>
      <point x="245,957" y="79,957"/>
      <point x="168,014" y="203,351"/>
      <point x="149,498" y="237,146" type="curve"/>
      <point x="168,014" y="271,649"/>
      <point x="245,957" y="395,043"/>
      <point x="277" y="444,605" type="curve"/>
      <point x="277" y="473,604" type="line"/>
    </contour>
  </outline>
</glyph>
<glyph name="equal" format="1">
  <advance width="540"/>
  <unicode hex="003D"/>
  <outline>
    <contour>
      <point x="65" y="334" type="line"/>
      <point x="65" y="410" type="line"/>
      <point x="471" y="410" type="line"/>
      <point x="471" y="334" type="line"/>
    </contour>
    <contour>
      <point x="65" y="144" type="line"/>
      <point x="65" y="220" type="line"/>
      <point x="471" y="220" type="line"/>
      <point x="471" y="144" type="line"/>
    </contour>
  </outline>
</glyph>
<glyph name="greater" format="1">
  <advance width="297"/>
  <unicode hex="003E"/>
  <outline>
    <contour>
      <point x="257" y="237,5" type="line"/>
      <point x="20,082" y="473,604" type="line"/>
      <point x="20,082" y="444,605" type="line"/>
      <point x="51,125" y="395,043"/>
      <point x="129,068" y="271,649"/>
      <point x="147,584" y="237,854" type="curve"/>
      <point x="129,068" y="203,351"/>
      <point x="51,125" y="79,957"/>
      <point x="20,082" y="30,3945" type="curve"/>
      <point x="20,082" y="1,39551" type="line"/>
    </contour>
  </outline>
</glyph>
<glyph name="question" format="1">
  <advance width="476"/>
  <unicode hex="003F"/>
  <outline>
    <contour>
      <point x="17" y="685" type="curve" smooth="yes"/>
      <point x="17" y="656"/>
      <point x="41" y="618"/>
      <point x="91" y="618" type="curve" smooth="yes"/>
      <point x="144" y="617"/>
      <point x="170,754" y="638,585"/>
      <point x="204" y="683" type="curve"/>
      <point x="234" y="719"/>
      <point x="266" y="741"/>
      <point x="311" y="741" type="curve" smooth="yes"/>
      <point x="406,861" y="741,753"/>
      <point x="425" y="670"/>
      <point x="425" y="626" type="curve" smooth="yes"/>
      <point x="425" y="488"/>
      <point x="271" y="480"/>
      <point x="197" y="480" type="curve"/>
      <point x="104" y="485" type="line"/>
      <point x="129" y="232" type="line"/>
      <point x="161" y="231" type="line"/>
      <point x="171" y="327" type="line"/>
      <point x="302" y="327"/>
      <point x="465" y="414"/>
      <point x="465" y="571" type="curve" smooth="yes"/>
      <point x="465" y="639"/>
      <point x="435" y="801"/>
      <point x="212" y="801" type="curve" smooth="yes"/>
      <point x="175" y="801"/>
      <point x="17" y="792"/>
    </contour>
    <contour>
      <point x="60,8779" y="78,001" type="curve" smooth="yes"/>
      <point x="60,8779" y="125,001"/>
      <point x="94,8779" y="165,001"/>
      <point x="142,878" y="165,001" type="curve" smooth="yes"/>
      <point x="190,878" y="165,001"/>
      <point x="226,878" y="125,001"/>
      <point x="226,878" y="78,001" type="curve" smooth="yes"/>
      <point x="226,878" y="30"/>
      <point x="190,878" y="-10"/>
      <point x="142,878" y="-10" type="curve" smooth="yes"/>
      <point x="94,8779" y="-10"/>
      <point x="60,8779" y="30"/>
    </contour>
  </outline>
</glyph>
<glyph name="at" format="1">
  <advance width="755"/>
  <unicode hex="0040"/>
  <outline>
    <contour>
      <point x="543,335" y="19,5" type="curve" smooth="yes"/>
      <point x="420,51" y="19,5"/>
      <point x="399,066" y="37,7122"/>
      <point x="405,156" y="92,809" type="curve"/>
      <point x="369,534" y="48,014"/>
      <point x="303,811" y="19,5"/>
      <point x="251" y="19,5" type="curve" smooth="yes"/>
      <point x="195" y="19,5"/>
      <point x="145" y="52,5"/>
      <point x="161" y="166,5" type="curve" smooth="yes"/>
      <point x="170" y="228,5"/>
      <point x="187" y="258,5"/>
      <point x="216" y="290,5" type="curve" smooth="yes"/>
      <point x="265" y="343,5"/>
      <point x="352" y="407,5"/>
      <point x="444" y="407,5" type="curve" smooth="yes"/>
      <point x="510" y="407,5"/>
      <point x="548" y="379,5"/>
      <point x="557" y="327,5" type="curve" smooth="yes"/>
      <point x="559" y="313,5"/>
      <point x="559" y="299,5"/>
      <point x="557" y="284,5" type="curve" smooth="yes"/>
      <point x="530" y="91,5" type="line" smooth="yes"/>
      <point x="528" y="75,5"/>
      <point x="522" y="37,668"/>
      <point x="544" y="37,668" type="curve" smooth="yes"/>
      <point x="619,848" y="37,668"/>
      <point x="664,595" y="116,93"/>
      <point x="674,037" y="183,015" type="curve" smooth="yes"/>
      <point x="699,847" y="363,674"/>
      <point x="576,983" y="500,107"/>
      <point x="426,963" y="503,912" type="curve" smooth="yes"/>
      <point x="424,656" y="503,971"/>
      <point x="422,336" y="504"/>
      <point x="420" y="504" type="curve" smooth="yes"/>
      <point x="264,345" y="504"/>
      <point x="96,1191" y="365,062"/>
      <point x="69,9629" y="181,984" type="curve" smooth="yes"/>
      <point x="44,0879" y="0,871094"/>
      <point x="125,419" y="-145,129"/>
      <point x="315,682" y="-149,872" type="curve" smooth="yes"/>
      <point x="319,073" y="-149,957"/>
      <point x="322,512" y="-150"/>
      <point x="326" y="-150" type="curve" smooth="yes"/>
      <point x="370,901" y="-150"/>
      <point x="418,037" y="-138,901"/>
      <point x="464,037" y="-116,86" type="curve"/>
      <point x="493,963" y="-128,141" type="line"/>
      <point x="443,963" y="-152,099"/>
      <point x="387,099" y="-167"/>
      <point x="326" y="-167" type="curve" smooth="yes"/>
      <point x="321,742" y="-167"/>
      <point x="317,521" y="-166,947"/>
      <point x="313,34" y="-166,844" type="curve" smooth="yes"/>
      <point x="73,249" y="-160,857"/>
      <point x="4,81055" y="6,4209"/>
      <point x="30,0371" y="183,015" type="curve" smooth="yes"/>
      <point x="55,8818" y="363,938"/>
      <point x="217,655" y="521"/>
      <point x="420" y="521" type="curve" smooth="yes"/>
      <point x="423,127" y="521"/>
      <point x="426,242" y="520,961"/>
      <point x="429,344" y="520,882" type="curve" smooth="yes"/>
      <point x="628,329" y="515,835"/>
      <point x="739,364" y="359,778"/>
      <point x="713,963" y="181,984" type="curve" smooth="yes"/>
      <point x="705,403" y="122,07"/>
      <point x="671,488" y="19,5"/>
    </contour>
    <contour>
      <point x="408,474" y="117,126" type="curve"/>
      <point x="438" y="327,5" type="line" smooth="yes"/>
      <point x="443" y="360,5"/>
      <point x="441" y="385,5"/>
      <point x="410" y="386,5" type="curve"/>
      <point x="359" y="386,5"/>
      <point x="319" y="358,5"/>
      <point x="311" y="303,5" type="curve" smooth="yes"/>
      <point x="290" y="155,5" type="line"/>
      <point x="285" y="111,5"/>
      <point x="286" y="64,5"/>
      <point x="336" y="64,5" type="curve" smooth="yes"/>
      <point x="359,238" y="64,5"/>
      <point x="389,914" y="86,8142"/>
    </contour>
  </outline>
</glyph>
<glyph name="A" format="1">
  <advance width="835"/>
  <unicode hex="0041"/>
  <outline>
    <contour>
      <point x="728,547" y="90,665" type="line" smooth="yes"/>
      <point x="752,635" y="29,833"/>
      <point x="825,68" y="8"/>
      <point x="825,68" y="8" type="curve"/>
      <point x="825,68" y="0" type="line"/>
      <point x="732,677" y="12,5596"/>
      <point x="552,677" y="11,5713"/>
      <point x="458,68" y="0" type="curve"/>
      <point x="458,68" y="8" type="line"/>
      <point x="458,68" y="8"/>
      <point x="564,916" y="24,5723"/>
      <point x="540,545" y="82,668" type="curve"/>
      <point x="476,382" y="246" type="line"/>
      <point x="240,407" y="246" type="line"/>
      <point x="211,047" y="170,997" type="line" smooth="yes"/>
      <point x="154,353" y="26,1641"/>
      <point x="323,545" y="8"/>
      <point x="323,545" y="8" type="curve"/>
      <point x="323,545" y="0" type="line"/>
      <point x="232,046" y="9,58594"/>
      <point x="103,992" y="11,7979"/>
      <point x="10" y="0" type="curve"/>
      <point x="10,0469" y="8,25" type="line"/>
      <point x="121,88" y="11"/>
      <point x="195,047" y="178,997"/>
      <point x="195,047" y="178,997" type="curve"/>
      <point x="349,012" y="563,036" type="line"/>
      <point x="335,714" y="586,07"/>
      <point x="321,912" y="597,991"/>
      <point x="301,621" y="597,991" type="curve"/>
      <point x="298,813" y="603,294" type="line"/>
      <point x="342,795" y="635,63"/>
      <point x="350,978" y="655,332"/>
      <point x="378,547" y="698" type="curve" smooth="yes"/>
      <point x="399,547" y="730,5"/>
      <point x="433,894" y="815,608"/>
      <point x="433,894" y="815,608" type="curve"/>
      <point x="440,547" y="818" type="line"/>
    </contour>
    <contour>
      <point x="357,863" y="546,053" type="curve"/>
      <point x="246,67" y="262" type="line"/>
      <point x="470,096" y="262" type="line"/>
      <point x="362,104" y="536,903" type="line" smooth="yes"/>
      <point x="360,677" y="540,073"/>
      <point x="359,265" y="543,123"/>
    </contour>
  </outline>
</glyph>
<glyph name="B" format="1">
  <advance width="757"/>
  <unicode hex="0042"/>
  <outline>
    <contour>
      <point x="378,497" y="412,537" type="curve"/>
      <point x="280" y="412,535" type="line"/>
      <point x="280,003" y="412,543"/>
      <point x="280,162" y="424,499"/>
      <point x="280,162" y="424,499" type="curve"/>
      <point x="378,5" y="424,035" type="line"/>
      <point x="378,5" y="424,033"/>
      <point x="731,398" y="452"/>
      <point x="731,398" y="217,035" type="curve"/>
      <point x="731,398" y="-5"/>
      <point x="501,5" y="0"/>
      <point x="378,5" y="0" type="curve"/>
      <point x="339,167" y="1,16602"/>
      <point x="328,838" y="3,71289"/>
      <point x="295,125" y="7,35938" type="curve" smooth="yes"/>
      <point x="290,327" y="26,8154" type="line"/>
      <point x="290,327" y="26,8154"/>
      <point x="321" y="16,9854"/>
      <point x="378,5" y="16,9854" type="curve"/>
      <point x="496" y="16,9854"/>
      <point x="548,398" y="45"/>
      <point x="548,398" y="213,035" type="curve"/>
      <point x="547,622" y="367,705"/>
      <point x="480,75" y="412,537"/>
    </contour>
    <contour>
      <point x="378,5" y="424,035" type="curve"/>
      <point x="474,496" y="424,043"/>
      <point x="518,162" y="501,999"/>
      <point x="518,162" y="613,499" type="curve"/>
      <point x="516,164" y="707,818"/>
      <point x="483,881" y="783,889"/>
      <point x="376,381" y="783,889" type="curve"/>
      <point x="315,256" y="783,889"/>
      <point x="293,005" y="775,782"/>
      <point x="293,005" y="775,782" type="curve"/>
      <point x="293,037" y="793" type="line" smooth="yes"/>
      <point x="326,75" y="796,646"/>
      <point x="337,047" y="799,709"/>
      <point x="376,381" y="800,875" type="curve"/>
      <point x="499,381" y="800,875"/>
      <point x="695,104" y="780,731"/>
      <point x="694,797" y="613" type="curve"/>
      <point x="694,158" y="412,892"/>
      <point x="524,5" y="412,534"/>
      <point x="378,498" y="412,534" type="curve"/>
      <point x="279,999" y="412,534" type="line"/>
      <point x="280,062" y="417,2"/>
      <point x="280,324" y="424,963"/>
      <point x="280,162" y="424,499" type="curve" smooth="yes"/>
      <point x="280" y="424,035"/>
      <point x="340,148" y="424,216"/>
    </contour>
    <contour>
      <point x="294" y="793,112" type="curve"/>
      <point x="293" y="85" type="line"/>
      <point x="292,717" y="20,7432"/>
      <point x="353" y="16,9854"/>
      <point x="378,5" y="16,9854" type="curve"/>
      <point x="378,5" y="0" type="line"/>
      <point x="325,75" y="0"/>
      <point x="269" y="14,25"/>
      <point x="211,75" y="15,0098" type="curve"/>
      <point x="143,355" y="15,0293"/>
      <point x="74,2637" y="9,75586"/>
      <point x="26" y="0" type="curve"/>
      <point x="26" y="8" type="line"/>
      <point x="26" y="8"/>
      <point x="118,85" y="22"/>
      <point x="119" y="85" type="curve" smooth="yes"/>
      <point x="120,5" y="715,5" type="line" smooth="yes"/>
      <point x="120,649" y="778,5"/>
      <point x="27,5" y="792,5"/>
      <point x="27,5" y="792,5" type="curve"/>
      <point x="27,5" y="800,5" type="line"/>
      <point x="74,1055" y="791,08"/>
      <point x="138,041" y="786,535"/>
      <point x="202" y="786,561" type="curve"/>
      <point x="236,845" y="786,802"/>
      <point x="266,541" y="789,931"/>
    </contour>
  </outline>
</glyph>
<glyph name="C" format="1">
  <advance width="744"/>
  <unicode hex="0043"/>
  <outline>
    <contour>
      <point x="392" y="810" type="curve"/>
      <point x="316" y="810"/>
      <point x="1,0498" y="717,689"/>
      <point x="0" y="406" type="curve"/>
      <point x="1,15918" y="145,176"/>
      <point x="217" y="-10"/>
      <point x="392" y="-10" type="curve"/>
      <point x="519" y="-10"/>
      <point x="590" y="69"/>
      <point x="637" y="69" type="curve"/>
      <point x="665,5" y="69"/>
      <point x="674,572" y="16,9893"/>
      <point x="674,572" y="16,9893" type="curve"/>
      <point x="683" y="17" type="line"/>
      <point x="683,166" y="298,833" type="line"/>
      <point x="674,565" y="298,87" type="line"/>
      <point x="674,565" y="298,87"/>
      <point x="622" y="7"/>
      <point x="391" y="7" type="curve"/>
      <point x="184" y="7"/>
      <point x="189" y="233"/>
      <point x="189" y="411" type="curve"/>
      <point x="189" y="548"/>
      <point x="189" y="793"/>
      <point x="392" y="793" type="curve"/>
      <point x="577" y="793"/>
      <point x="674,5" y="551"/>
      <point x="674,5" y="474" type="curve"/>
      <point x="683" y="474" type="line"/>
      <point x="683" y="788" type="line"/>
      <point x="674,625" y="788" type="line"/>
      <point x="674,625" y="788"/>
      <point x="674,375" y="731"/>
      <point x="632" y="731" type="curve"/>
      <point x="597,875" y="731"/>
      <point x="521,5" y="810"/>
    </contour>
  </outline>
</glyph>
<glyph name="D" format="1">
  <advance width="855"/>
  <unicode hex="0044"/>
  <outline>
    <contour>
      <point x="827" y="420" type="curve"/>
      <point x="827" y="118"/>
      <point x="634" y="0"/>
      <point x="378,5" y="0" type="curve"/>
      <point x="339,167" y="1,16602"/>
      <point x="328,838" y="3,71289"/>
      <point x="295,125" y="7,35938" type="curve" smooth="yes"/>
      <point x="290,327" y="26,8154" type="line"/>
      <point x="290,327" y="26,8154"/>
      <point x="321" y="16,9854"/>
      <point x="378,5" y="16,9854" type="curve"/>
      <point x="496" y="16,9854"/>
      <point x="629" y="44"/>
      <point x="629" y="416" type="curve"/>
      <point x="629" y="718"/>
      <point x="483,881" y="783,889"/>
      <point x="376,381" y="783,889" type="curve"/>
      <point x="315,256" y="783,889"/>
      <point x="293,005" y="775,782"/>
      <point x="293,005" y="775,782" type="curve"/>
      <point x="293,037" y="793" type="line" smooth="yes"/>
      <point x="326,75" y="796,646"/>
      <point x="337,047" y="799,709"/>
      <point x="376,381" y="800,875" type="curve"/>
      <point x="566" y="800,875"/>
      <point x="827" y="718"/>
    </contour>
    <contour>
      <point x="293" y="793,112" type="curve"/>
      <point x="293" y="85" type="line"/>
      <point x="292,717" y="20,7432"/>
      <point x="353" y="16,9854"/>
      <point x="378,5" y="16,9854" type="curve"/>
      <point x="378,5" y="0" type="line"/>
      <point x="325,75" y="0"/>
      <point x="269" y="14,25"/>
      <point x="211,75" y="15,0098" type="curve"/>
      <point x="143,355" y="15,0293"/>
      <point x="74,2637" y="9,75586"/>
      <point x="26" y="0" type="curve"/>
      <point x="26" y="8" type="line"/>
      <point x="26" y="8"/>
      <point x="118,95" y="22"/>
      <point x="119" y="85" type="curve" smooth="yes"/>
      <point x="119,5" y="715,5" type="line" smooth="yes"/>
      <point x="119,649" y="778,5"/>
      <point x="26,5" y="792,5"/>
      <point x="26,5" y="792,5" type="curve"/>
      <point x="26,5" y="800,5" type="line"/>
      <point x="73,1055" y="791,08"/>
      <point x="137,041" y="786,535"/>
      <point x="201" y="786,561" type="curve"/>
      <point x="235,845" y="786,802"/>
      <point x="265,541" y="789,931"/>
    </contour>
  </outline>
</glyph>
<glyph name="E" format="1">
  <advance width="790"/>
  <unicode hex="0045"/>
  <outline>
    <contour>
      <point x="374,381" y="799,875" type="curve"/>
      <point x="335,047" y="798,709"/>
      <point x="324,75" y="796,646"/>
      <point x="291,037" y="793" type="curve"/>
      <point x="291,037" y="792,885" type="line"/>
      <point x="264,08" y="789,784"/>
      <point x="234,017" y="786,796"/>
      <point x="200" y="786,561" type="curve" smooth="yes"/>
      <point x="136,041" y="786,535"/>
      <point x="72,1055" y="791,08"/>
      <point x="25,5" y="800,5" type="curve"/>
      <point x="25,5" y="792,5" type="line"/>
      <point x="25,5" y="792,5"/>
      <point x="117,75" y="778,5"/>
      <point x="117,5" y="715,5" type="curve" smooth="yes"/>
      <point x="118" y="85" type="line" smooth="yes"/>
      <point x="118,05" y="22"/>
      <point x="26" y="8"/>
      <point x="26" y="8" type="curve"/>
      <point x="26" y="0" type="line"/>
      <point x="378,5" y="0" type="line" smooth="yes"/>
      <point x="718,002" y="0" type="line"/>
      <point x="760,341" y="282,993" type="line"/>
      <point x="751" y="282,993" type="line"/>
      <point x="751" y="282,993"/>
      <point x="715" y="16,9854"/>
      <point x="378,5" y="16,9854" type="curve" smooth="yes"/>
      <point x="353" y="16,9854"/>
      <point x="292,717" y="20,7432"/>
      <point x="293" y="85" type="curve" smooth="yes"/>
      <point x="293" y="389,912" type="line"/>
      <point x="323" y="389,912" type="line"/>
      <point x="323" y="389,912"/>
      <point x="530" y="389,911"/>
      <point x="530" y="202,911" type="curve"/>
      <point x="539,333" y="202,911" type="line"/>
      <point x="539,333" y="593" type="line"/>
      <point x="530" y="593" type="line"/>
      <point x="530" y="406"/>
      <point x="323" y="406"/>
      <point x="323" y="406" type="curve"/>
      <point x="293" y="406" type="line"/>
      <point x="293" y="776,324" type="line"/>
      <point x="299,655" y="777,984"/>
      <point x="323,604" y="782,886"/>
      <point x="374,381" y="782,886" type="curve" smooth="yes"/>
      <point x="588,328" y="782,886"/>
      <point x="706,999" y="568"/>
      <point x="706,999" y="568" type="curve"/>
      <point x="716,398" y="568" type="line"/>
      <point x="639,167" y="771,5" type="line"/>
      <point x="639,167" y="771,5"/>
      <point x="507,5" y="799,875"/>
    </contour>
  </outline>
</glyph>
<glyph name="F" format="1">
  <advance width="665"/>
  <unicode hex="0046"/>
  <outline>
    <contour>
      <point x="259" y="406" type="line"/>
      <point x="318" y="406" type="line"/>
      <point x="318" y="406"/>
      <point x="525" y="406"/>
      <point x="525" y="593" type="curve"/>
      <point x="534,333" y="593,001" type="line"/>
      <point x="534,333" y="202,911" type="line"/>
      <point x="525" y="202,912" type="line"/>
      <point x="525" y="389,912"/>
      <point x="318" y="389,912"/>
      <point x="318" y="389,912" type="curve"/>
      <point x="259" y="389,912" type="line"/>
    </contour>
    <contour>
      <point x="371,381" y="799,875" type="curve"/>
      <point x="504,5" y="799,875"/>
      <point x="636,167" y="771,5"/>
      <point x="636,167" y="771,5" type="curve"/>
      <point x="713,398" y="568" type="line"/>
      <point x="703,999" y="568,001" type="line"/>
      <point x="703,999" y="568,001"/>
      <point x="585,333" y="782,886"/>
      <point x="371,386" y="782,886" type="curve" smooth="yes"/>
      <point x="310,256" y="782,886"/>
      <point x="288,005" y="775,782"/>
      <point x="288,005" y="775,782" type="curve"/>
      <point x="288,037" y="793" type="line" smooth="yes"/>
      <point x="321,75" y="796,646"/>
      <point x="332,047" y="798,709"/>
    </contour>
    <contour>
      <point x="114" y="85" type="curve" smooth="yes"/>
      <point x="115,5" y="715,5" type="line" smooth="yes"/>
      <point x="115,649" y="778,5"/>
      <point x="22,5" y="792,5"/>
      <point x="22,5" y="792,5" type="curve"/>
      <point x="22,5" y="800,5" type="line"/>
      <point x="69,1055" y="791,08"/>
      <point x="133,041" y="786,535"/>
      <point x="197" y="786,561" type="curve"/>
      <point x="231,845" y="786,802"/>
      <point x="261,541" y="789,931"/>
      <point x="289" y="793,112" type="curve"/>
      <point x="288" y="85" type="line" smooth="yes"/>
      <point x="287,909" y="21"/>
      <point x="381" y="8"/>
      <point x="381" y="8" type="curve"/>
      <point x="381" y="0" type="line"/>
      <point x="286,431" y="20,8064"/>
      <point x="113,677" y="19,1776"/>
      <point x="21" y="0" type="curve"/>
      <point x="21" y="8" type="line"/>
      <point x="21" y="8"/>
      <point x="113,851" y="22"/>
    </contour>
  </outline>
</glyph>
<glyph name="G" format="1">
  <advance width="762"/>
  <unicode hex="0047"/>
  <outline>
    <contour>
      <point x="392" y="815" type="curve"/>
      <point x="316" y="815"/>
      <point x="1,0498" y="717,689"/>
      <point x="0" y="406" type="curve"/>
      <point x="1,15918" y="145,176"/>
      <point x="217" y="-15"/>
      <point x="392" y="-15" type="curve"/>
      <point x="519" y="-15"/>
      <point x="600" y="64"/>
      <point x="647" y="64" type="curve"/>
      <point x="675,5" y="64"/>
      <point x="684,572" y="-4,01074"/>
      <point x="684,572" y="-4,01074" type="curve"/>
      <point x="693" y="-4" type="line"/>
      <point x="693,166" y="293,833" type="line"/>
      <point x="684,565" y="293,87" type="line"/>
      <point x="684,565" y="293,87"/>
      <point x="622" y="2"/>
      <point x="391" y="2" type="curve"/>
      <point x="184" y="2"/>
      <point x="189" y="233"/>
      <point x="189" y="411" type="curve"/>
      <point x="189" y="548"/>
      <point x="189" y="798"/>
      <point x="392" y="798" type="curve"/>
      <point x="577" y="798"/>
      <point x="684,5" y="566"/>
      <point x="684,5" y="489" type="curve"/>
      <point x="693" y="489" type="line"/>
      <point x="693" y="803" type="line"/>
      <point x="684,625" y="803" type="line"/>
      <point x="684,625" y="803"/>
      <point x="684,375" y="746"/>
      <point x="642" y="746" type="curve"/>
      <point x="607,875" y="746"/>
      <point x="521,5" y="815"/>
    </contour>
    <contour>
      <point x="380" y="372" type="curve"/>
      <point x="380" y="364" type="line"/>
      <point x="380" y="364"/>
      <point x="519" y="339,5"/>
      <point x="519" y="287" type="curve" smooth="yes"/>
      <point x="519" y="21" type="line"/>
      <point x="693" y="133" type="line"/>
      <point x="693" y="287" type="line" smooth="yes"/>
      <point x="693" y="351,001"/>
      <point x="767" y="364"/>
      <point x="767" y="364" type="curve"/>
      <point x="767" y="372" type="line"/>
      <point x="675" y="351"/>
      <point x="474" y="353"/>
    </contour>
  </outline>
</glyph>
<glyph name="H" format="1">
  <advance width="891"/>
  <unicode hex="0048"/>
  <outline>
    <contour>
      <point x="598" y="85" type="curve" smooth="yes"/>
      <point x="598" y="715" type="line" smooth="yes"/>
      <point x="598" y="778"/>
      <point x="505" y="792"/>
      <point x="505" y="792" type="curve"/>
      <point x="505" y="800" type="line"/>
      <point x="589,917" y="782,842"/>
      <point x="760,479" y="781,079"/>
      <point x="865" y="800" type="curve"/>
      <point x="865" y="792" type="line"/>
      <point x="865" y="792"/>
      <point x="772" y="778"/>
      <point x="772" y="715" type="curve" smooth="yes"/>
      <point x="772" y="85" type="line" smooth="yes"/>
      <point x="772" y="21"/>
      <point x="865" y="8"/>
      <point x="865" y="8" type="curve"/>
      <point x="865" y="0" type="line"/>
      <point x="763,868" y="20,9863"/>
      <point x="593,205" y="18,9893"/>
      <point x="505" y="0" type="curve"/>
      <point x="505" y="8" type="line"/>
      <point x="505" y="8"/>
      <point x="598" y="22"/>
    </contour>
    <contour>
      <point x="206" y="434" type="line"/>
      <point x="712" y="434" type="line"/>
      <point x="712" y="403" type="line"/>
      <point x="206" y="403" type="line"/>
    </contour>
    <contour>
      <point x="119" y="85" type="curve" smooth="yes"/>
      <point x="119" y="715" type="line" smooth="yes"/>
      <point x="119" y="778"/>
      <point x="26" y="792"/>
      <point x="26" y="792" type="curve"/>
      <point x="26" y="800" type="line"/>
      <point x="110,917" y="782,841"/>
      <point x="281,478" y="781,08"/>
      <point x="386" y="800" type="curve"/>
      <point x="386" y="792" type="line"/>
      <point x="386" y="792"/>
      <point x="293" y="778"/>
      <point x="293" y="715" type="curve" smooth="yes"/>
      <point x="293" y="85" type="line" smooth="yes"/>
      <point x="293" y="21"/>
      <point x="386" y="8"/>
      <point x="386" y="8" type="curve"/>
      <point x="386" y="0" type="line"/>
      <point x="284,868" y="20,9863"/>
      <point x="114,205" y="18,9893"/>
      <point x="26" y="0" type="curve"/>
      <point x="26" y="8" type="line"/>
      <point x="26" y="8"/>
      <point x="119" y="22"/>
    </contour>
  </outline>
</glyph>
<glyph name="I" format="1">
  <advance width="412"/>
  <unicode hex="0049"/>
  <outline>
    <contour>
      <point x="119" y="85" type="curve" smooth="yes"/>
      <point x="119" y="715" type="line" smooth="yes"/>
      <point x="119" y="778"/>
      <point x="26" y="792"/>
      <point x="26" y="792" type="curve"/>
      <point x="26" y="800" type="line"/>
      <point x="120" y="781"/>
      <point x="293" y="778"/>
      <point x="386" y="800" type="curve"/>
      <point x="386" y="792" type="line"/>
      <point x="386" y="792"/>
      <point x="293" y="778"/>
      <point x="293" y="715" type="curve" smooth="yes"/>
      <point x="293" y="85" type="line" smooth="yes"/>
      <point x="293" y="21"/>
      <point x="386" y="8"/>
      <point x="386" y="8" type="curve"/>
      <point x="386" y="0" type="line"/>
      <point x="292,522" y="20,9863"/>
      <point x="119,588" y="18,9883"/>
      <point x="26" y="0" type="curve"/>
      <point x="26" y="8" type="line"/>
      <point x="26" y="8"/>
      <point x="119" y="22"/>
    </contour>
  </outline>
</glyph>
<glyph name="J" format="1">
  <advance width="527"/>
  <unicode hex="004A"/>
  <outline>
    <contour>
      <point x="250,147" y="118" type="line" smooth="yes"/>
      <point x="250,147" y="88,5"/>
      <point x="249,723" y="5,78125"/>
      <point x="194,48" y="6" type="curve" smooth="yes"/>
      <point x="168,814" y="6"/>
      <point x="150,151" y="20,5"/>
      <point x="150,151" y="58,5" type="curve" smooth="yes"/>
      <point x="150,151" y="79"/>
      <point x="157,739" y="104,333"/>
      <point x="157,739" y="133" type="curve" smooth="yes"/>
      <point x="157,739" y="192,8"/>
      <point x="117,001" y="211"/>
      <point x="74,1006" y="211" type="curve"/>
      <point x="27,3008" y="208,4"/>
      <point x="0" y="177,2"/>
      <point x="0" y="127,8" type="curve" smooth="yes"/>
      <point x="0" y="71,9004"/>
      <point x="59,8145" y="-10"/>
      <point x="187,814" y="-10" type="curve" smooth="yes"/>
      <point x="294,814" y="-10"/>
      <point x="424,147" y="34"/>
      <point x="424,001" y="297,004" type="curve" smooth="yes"/>
      <point x="424,147" y="715,5" type="line" smooth="yes"/>
      <point x="424,174" y="778,504"/>
      <point x="517,147" y="792,5"/>
      <point x="517,147" y="792,5" type="curve"/>
      <point x="517,147" y="800,5" type="line"/>
      <point x="432,23" y="783,341"/>
      <point x="261,67" y="781,58"/>
      <point x="157,148" y="800,5" type="curve"/>
      <point x="157,148" y="792,5" type="line"/>
      <point x="157,148" y="792,5"/>
      <point x="250,147" y="778,502"/>
      <point x="250,147" y="715,5" type="curve" smooth="yes"/>
    </contour>
  </outline>
</glyph>
<glyph name="K" format="1">
  <advance width="845"/>
  <unicode hex="004B"/>
  <outline>
    <contour>
      <point x="125" y="85" type="curve" smooth="yes"/>
      <point x="125" y="715" type="line" smooth="yes"/>
      <point x="125" y="778"/>
      <point x="32" y="792"/>
      <point x="32" y="792" type="curve"/>
      <point x="32" y="800" type="line"/>
      <point x="116,917" y="782,841"/>
      <point x="287,478" y="781,08"/>
      <point x="392" y="800" type="curve"/>
      <point x="392" y="792" type="line"/>
      <point x="392" y="792"/>
      <point x="299" y="778"/>
      <point x="299" y="715" type="curve" smooth="yes"/>
      <point x="299" y="371,919" type="line"/>
      <point x="394,28" y="474,889"/>
      <point x="535" y="640,325"/>
      <point x="535" y="640,325" type="curve"/>
      <point x="650,675" y="756"/>
      <point x="523" y="792,325"/>
      <point x="523" y="792,325" type="curve"/>
      <point x="523" y="800,325" type="line"/>
      <point x="611" y="781,866"/>
      <point x="696" y="781,917"/>
      <point x="777" y="800,325" type="curve"/>
      <point x="777" y="797,325"/>
      <point x="778" y="792,325"/>
      <point x="778" y="792,325" type="curve"/>
      <point x="733" y="792,325"/>
      <point x="632" y="715,325"/>
      <point x="549" y="632,325" type="curve"/>
      <point x="470,156" y="541,898" type="line"/>
      <point x="762" y="63,5" type="line"/>
      <point x="762" y="63,5"/>
      <point x="794,186" y="18,8838"/>
      <point x="820" y="12" type="curve" smooth="yes"/>
      <point x="835" y="8" type="line"/>
      <point x="835" y="0" type="line"/>
      <point x="748,025" y="10,6602"/>
      <point x="617,97" y="10,6729"/>
      <point x="536" y="0" type="curve"/>
      <point x="536" y="8" type="line"/>
      <point x="551" y="12" type="line" smooth="yes"/>
      <point x="571" y="17"/>
      <point x="578,067" y="37,0479"/>
      <point x="563" y="58" type="curve"/>
      <point x="348,31" y="402,151" type="line"/>
      <point x="299" y="345,597" type="line"/>
      <point x="299" y="85" type="line" smooth="yes"/>
      <point x="299" y="21"/>
      <point x="392" y="8"/>
      <point x="392" y="8" type="curve"/>
      <point x="392" y="1" type="line"/>
      <point x="290,868" y="11,5596"/>
      <point x="120,205" y="10,8799"/>
      <point x="32" y="1" type="curve"/>
      <point x="32" y="8" type="line"/>
      <point x="32" y="8"/>
      <point x="125" y="22"/>
    </contour>
  </outline>
</glyph>
<glyph name="L" format="1">
  <advance width="698"/>
  <unicode hex="004C"/>
  <outline>
    <contour>
      <point x="306,016" y="85" type="line" smooth="yes"/>
      <point x="306,117" y="20,7275"/>
      <point x="367" y="16,9854"/>
      <point x="392,5" y="16,9854" type="curve"/>
      <point x="392,5" y="0" type="line"/>
      <point x="39" y="0" type="line"/>
      <point x="39" y="8" type="line"/>
      <point x="39" y="8"/>
      <point x="132,1" y="22"/>
      <point x="132" y="85" type="curve" smooth="yes"/>
      <point x="131" y="715" type="line" smooth="yes"/>
      <point x="130,9" y="778"/>
      <point x="38" y="792"/>
      <point x="38" y="792" type="curve"/>
      <point x="38" y="800" type="line"/>
      <point x="124,957" y="783,225"/>
      <point x="296,089" y="780,815"/>
      <point x="398" y="800" type="curve"/>
      <point x="398" y="792" type="line"/>
      <point x="398" y="792"/>
      <point x="304,898" y="778"/>
      <point x="305" y="715" type="curve" smooth="yes"/>
    </contour>
    <contour>
      <point x="392,5" y="16,9854" type="curve"/>
      <point x="675,5" y="16,9854"/>
      <point x="710" y="285"/>
      <point x="710" y="285" type="curve"/>
      <point x="719,341" y="284,993" type="line"/>
      <point x="678,002" y="0" type="line"/>
      <point x="392,5" y="0" type="line"/>
      <point x="392,5" y="0"/>
      <point x="342,838" y="3,71289"/>
      <point x="309,125" y="7,35938" type="curve" smooth="yes"/>
      <point x="304,327" y="27,8154" type="line"/>
      <point x="304,327" y="27,8154"/>
      <point x="335" y="16,9854"/>
    </contour>
  </outline>
</glyph>
<glyph name="M" format="1">
  <advance width="1110"/>
  <unicode hex="004D"/>
  <outline>
    <contour>
      <point x="768,129" y="799,996" type="curve"/>
      <point x="768,129" y="85" type="line" smooth="yes"/>
      <point x="768,129" y="22"/>
      <point x="675,129" y="8"/>
      <point x="675,129" y="8" type="curve"/>
      <point x="675,129" y="0" type="line"/>
      <point x="763,334" y="18,9893"/>
      <point x="933,997" y="20,9863"/>
      <point x="1035,13" y="0" type="curve"/>
      <point x="1035,13" y="8" type="line"/>
      <point x="1035,13" y="8"/>
      <point x="942,129" y="21"/>
      <point x="942,129" y="85" type="curve" smooth="yes"/>
      <point x="942,129" y="692" type="line"/>
      <point x="942,129" y="741,5"/>
      <point x="974,966" y="789,365"/>
      <point x="1082,35" y="790,179" type="curve"/>
      <point x="1084" y="800" type="line"/>
      <point x="866,73" y="777,946"/>
      <point x="858,932" y="786,527"/>
    </contour>
    <contour>
      <point x="506,66" y="101,5" type="line"/>
      <point x="784,735" y="793,544" type="line"/>
      <point x="768,129" y="800" type="line"/>
      <point x="490,054" y="107,956" type="line"/>
    </contour>
    <contour>
      <point x="168,91" y="696" type="curve"/>
      <point x="451,91" y="0" type="line"/>
      <point x="465,245" y="0" type="line"/>
      <point x="556,917" y="226,664" type="line"/>
      <point x="323,41" y="800" type="line"/>
      <point x="237,496" y="782,301"/>
      <point x="140,505" y="781,315"/>
      <point x="9,53516" y="800" type="curve"/>
      <point x="11,1885" y="790,179" type="line"/>
      <point x="119,097" y="790,134"/>
      <point x="157,577" y="725"/>
    </contour>
    <contour>
      <point x="34,9102" y="0,00195312" type="line"/>
      <point x="34,9102" y="0,00195312"/>
      <point x="160,545" y="33,6279"/>
      <point x="309,642" y="0,00585938" type="curve"/>
      <point x="309,642" y="8,00586" type="line"/>
      <point x="309,642" y="8,00586"/>
      <point x="181,185" y="35,5059"/>
      <point x="181,185" y="139,839" type="curve"/>
      <point x="180,726" y="714,879" type="line"/>
      <point x="162,91" y="714,878" type="line"/>
      <point x="163,367" y="139,839" type="line"/>
      <point x="163,367" y="35,5059"/>
      <point x="34,9102" y="8,00586"/>
      <point x="34,9102" y="8,00586" type="curve"/>
    </contour>
  </outline>
</glyph>
<glyph name="N" format="1">
  <advance width="925"/>
  <unicode hex="004E"/>
  <outline>
    <contour>
      <point x="35,375" y="0,00195312" type="line"/>
      <point x="34,9648" y="-10,7148"/>
      <point x="160,943" y="34,2549"/>
      <point x="310,107" y="0,00585938" type="curve"/>
      <point x="310,107" y="8,00586" type="line"/>
      <point x="310,107" y="8,00586"/>
      <point x="181,65" y="35,5059"/>
      <point x="181,65" y="139,839" type="curve"/>
      <point x="181,191" y="714,879" type="line"/>
      <point x="163,375" y="714,878" type="line"/>
      <point x="163,832" y="139,839" type="line"/>
      <point x="163,832" y="35,5059"/>
      <point x="35,375" y="8,00586"/>
      <point x="35,375" y="8,00586" type="curve"/>
    </contour>
    <contour>
      <point x="640,625" y="799,874" type="curve"/>
      <point x="640,625" y="791,875" type="line"/>
      <point x="640,625" y="791,875"/>
      <point x="769,082" y="764,375"/>
      <point x="769,082" y="660,042" type="curve"/>
      <point x="768,887" y="100,997" type="line"/>
      <point x="786,703" y="100,996" type="line"/>
      <point x="786,9" y="660,042" type="line"/>
      <point x="786,9" y="764,375"/>
      <point x="915,357" y="791,875"/>
      <point x="915,357" y="791,875" type="curve"/>
      <point x="915,357" y="799,875" type="line"/>
      <point x="774,328" y="769,979"/>
      <point x="640,625" y="799,874"/>
    </contour>
    <contour>
      <point x="131,291" y="734,874" type="curve"/>
      <point x="778,43" y="-10" type="line"/>
      <point x="786,975" y="-10" type="line"/>
      <point x="786,43" y="258" type="line"/>
      <point x="323,875" y="800" type="line"/>
      <point x="237,961" y="782,301"/>
      <point x="140,97" y="781,315"/>
      <point x="10" y="800" type="curve"/>
      <point x="10,291" y="790,542" type="line"/>
      <point x="81,625" y="789,829"/>
      <point x="131,291" y="734,874"/>
    </contour>
  </outline>
</glyph>
<glyph name="O" format="1">
  <advance width="773"/>
  <unicode hex="004F"/>
  <outline>
    <contour>
      <point x="385,667" y="-15" type="curve"/>
      <point x="189,504" y="-15"/>
      <point x="17,0723" y="113"/>
      <point x="17,0723" y="394" type="curve"/>
      <point x="17,0723" y="692"/>
      <point x="240,345" y="814,989"/>
      <point x="386" y="814,989" type="curve"/>
      <point x="531,654" y="814,989"/>
      <point x="754,964" y="689,14"/>
      <point x="754,964" y="391,14" type="curve"/>
      <point x="754,964" y="110,14"/>
      <point x="581,575" y="-15"/>
    </contour>
    <contour>
      <point x="386" y="798,004" type="curve"/>
      <point x="279,488" y="796,09"/>
      <point x="215,072" y="712"/>
      <point x="215,072" y="390" type="curve"/>
      <point x="215,072" y="91"/>
      <point x="304,004" y="1,95117"/>
      <point x="385,54" y="1,95117" type="curve"/>
      <point x="467,075" y="1,95117"/>
      <point x="556,964" y="88,1396"/>
      <point x="556,964" y="387,14" type="curve"/>
      <point x="556,964" y="709,14"/>
      <point x="492,511" y="796,09"/>
    </contour>
  </outline>
</glyph>
<glyph name="P" format="1">
  <advance width="713"/>
  <unicode hex="0050"/>
  <outline>
    <contour>
      <point x="376,702" y="359,771" type="curve"/>
      <point x="376,702" y="359,771"/>
      <point x="278,202" y="359,771"/>
      <point x="278,364" y="360,233" type="curve"/>
      <point x="278,201" y="348,269" type="line"/>
      <point x="376,7" y="348,269" type="line"/>
      <point x="398,202" y="348,269"/>
      <point x="693" y="348,021"/>
      <point x="693" y="584,817" type="curve"/>
      <point x="693,308" y="752,55"/>
      <point x="499,732" y="800"/>
      <point x="376,732" y="800" type="curve"/>
      <point x="337,399" y="798,834"/>
      <point x="325,727" y="795,935"/>
      <point x="292,014" y="792,288" type="curve" smooth="yes"/>
      <point x="291,928" y="774,403" type="line"/>
      <point x="291,928" y="774,403"/>
      <point x="319,232" y="783,014"/>
      <point x="376,732" y="783,014" type="curve"/>
      <point x="484,232" y="783,014"/>
      <point x="514,366" y="679,636"/>
      <point x="516,364" y="585,317" type="curve"/>
      <point x="516,364" y="473,817"/>
      <point x="470,202" y="359,771"/>
    </contour>
    <contour>
      <point x="292,599" y="792,35" type="line"/>
      <point x="264,82" y="789,013"/>
      <point x="234,262" y="785,797"/>
      <point x="200,203" y="785,561" type="curve"/>
      <point x="136,244" y="785,535"/>
      <point x="72,3086" y="790,08"/>
      <point x="25,7031" y="799,5" type="curve"/>
      <point x="25,7031" y="791,5" type="line"/>
      <point x="25,7031" y="791,5"/>
      <point x="119,318" y="777,497"/>
      <point x="118,703" y="714,5" type="curve" smooth="yes"/>
      <point x="118,546" y="85" type="line" smooth="yes"/>
      <point x="118,53" y="22"/>
      <point x="25,5459" y="8"/>
      <point x="25,5459" y="8" type="curve"/>
      <point x="25,5459" y="0" type="line"/>
      <point x="118,065" y="18,9883"/>
      <point x="291,343" y="20,9863"/>
      <point x="385,546" y="0" type="curve"/>
      <point x="385,546" y="8" type="line"/>
      <point x="385,546" y="8"/>
      <point x="292,546" y="21"/>
      <point x="292,546" y="84,9961" type="curve"/>
    </contour>
  </outline>
</glyph>
<glyph name="Q" format="1">
  <advance width="787"/>
  <unicode hex="0051"/>
  <outline>
    <contour>
      <point x="232" y="26" type="curve"/>
      <point x="325" y="26"/>
      <point x="462" y="-91"/>
      <point x="659" y="-91" type="curve"/>
      <point x="714" y="-91"/>
      <point x="752" y="-54"/>
      <point x="762" y="-2" type="curve"/>
      <point x="770" y="-2" type="line"/>
      <point x="760" y="-107"/>
      <point x="625" y="-167"/>
      <point x="512" y="-167" type="curve" smooth="yes"/>
      <point x="353" y="-167"/>
      <point x="260" y="-25"/>
      <point x="130" y="-25" type="curve" smooth="yes"/>
      <point x="99" y="-25"/>
      <point x="73" y="-63,3281"/>
      <point x="72" y="-90,3281" type="curve"/>
      <point x="64" y="-90,3281" type="line"/>
      <point x="64" y="-16"/>
      <point x="125" y="22"/>
    </contour>
    <contour>
      <point x="397,127" y="-13,9512" type="curve"/>
      <point x="200,964" y="-13,9512"/>
      <point x="28,0723" y="113"/>
      <point x="28,0723" y="394" type="curve"/>
      <point x="28,0723" y="692"/>
      <point x="251,345" y="815"/>
      <point x="397" y="815" type="curve"/>
      <point x="542,655" y="815"/>
      <point x="765,964" y="689,14"/>
      <point x="765,964" y="391,14" type="curve"/>
      <point x="765,964" y="110,14"/>
      <point x="593,036" y="-13,9512"/>
    </contour>
    <contour>
      <point x="397" y="798,014" type="curve"/>
      <point x="290,489" y="796,1"/>
      <point x="226,072" y="712"/>
      <point x="226,072" y="390" type="curve"/>
      <point x="226,072" y="91"/>
      <point x="315,464" y="3"/>
      <point x="397" y="3" type="curve"/>
      <point x="478,536" y="3"/>
      <point x="567,964" y="88,1396"/>
      <point x="567,964" y="387,14" type="curve"/>
      <point x="567,964" y="709,14"/>
      <point x="503,511" y="796,1"/>
    </contour>
  </outline>
</glyph>
<glyph name="R" format="1">
  <advance width="808"/>
  <unicode hex="0052"/>
  <outline>
    <contour>
      <point x="680,491" y="152,333" type="curve"/>
      <point x="597,491" y="332,5"/>
      <point x="493,491" y="360,5"/>
      <point x="421,491" y="360,5" type="curve"/>
      <point x="421,491" y="360,5"/>
      <point x="321,928" y="361,379"/>
      <point x="321,593" y="359,333" type="curve"/>
      <point x="223,255" y="359,797" type="line"/>
      <point x="223,255" y="359,797"/>
      <point x="223,096" y="347,841"/>
      <point x="223,093" y="347,833" type="curve"/>
      <point x="321,59" y="347,835" type="line"/>
      <point x="423,049" y="348,752"/>
      <point x="409,75" y="314,448"/>
      <point x="549,491" y="45" type="curve"/>
      <point x="560,991" y="24,5"/>
      <point x="554,816" y="14,1572"/>
      <point x="546,728" y="12" type="curve" smooth="yes"/>
      <point x="531,728" y="8" type="line"/>
      <point x="531,728" y="0" type="line"/>
      <point x="621,612" y="20,0518"/>
      <point x="719,38" y="20,1738"/>
      <point x="798,491" y="0" type="curve"/>
      <point x="798,491" y="8,00195" type="line"/>
      <point x="740,158" y="9"/>
      <point x="715,491" y="72"/>
    </contour>
    <contour>
      <point x="313,491" y="389" type="move"/>
    </contour>
    <contour>
      <point x="330,156" y="359,771" type="curve"/>
      <point x="330,156" y="359,771"/>
      <point x="286,656" y="359,771"/>
      <point x="286,818" y="360,233" type="curve"/>
      <point x="286,655" y="348,269" type="line"/>
      <point x="330,154" y="348,269" type="line"/>
      <point x="351,656" y="348,269"/>
      <point x="697,454" y="348,021"/>
      <point x="697,454" y="584,817" type="curve"/>
      <point x="697,762" y="752,55"/>
      <point x="508,187" y="800"/>
      <point x="385,187" y="800" type="curve"/>
      <point x="345,854" y="798,834"/>
      <point x="334,181" y="795,935"/>
      <point x="300,468" y="792,288" type="curve" smooth="yes"/>
      <point x="300,382" y="774,403" type="line"/>
      <point x="300,382" y="774,403"/>
      <point x="327,687" y="783,014"/>
      <point x="385,187" y="783,014" type="curve"/>
      <point x="492,687" y="783,014"/>
      <point x="518,82" y="679,636"/>
      <point x="520,818" y="585,317" type="curve"/>
      <point x="520,818" y="473,817"/>
      <point x="423,656" y="359,771"/>
    </contour>
    <contour>
      <point x="301,053" y="792,35" type="line"/>
      <point x="273,274" y="789,013"/>
      <point x="242,717" y="785,797"/>
      <point x="208,657" y="785,561" type="curve"/>
      <point x="144,698" y="785,535"/>
      <point x="80,7627" y="790,08"/>
      <point x="34,1572" y="799,5" type="curve"/>
      <point x="34,1572" y="791,5" type="line"/>
      <point x="34,1572" y="791,5"/>
      <point x="127,772" y="777,497"/>
      <point x="127,157" y="714,5" type="curve" smooth="yes"/>
      <point x="127" y="85" type="line" smooth="yes"/>
      <point x="126,984" y="22"/>
      <point x="34" y="8"/>
      <point x="34" y="8" type="curve"/>
      <point x="34" y="0" type="line"/>
      <point x="128" y="19"/>
      <point x="301" y="21"/>
      <point x="394" y="0" type="curve"/>
      <point x="394" y="8" type="line"/>
      <point x="394" y="8"/>
      <point x="301" y="21"/>
      <point x="301" y="84,9961" type="curve"/>
    </contour>
  </outline>
</glyph>
<glyph name="S" format="1">
  <advance width="563"/>
  <unicode hex="0053"/>
  <outline>
    <contour>
      <point x="250,009" y="797,997" type="curve"/>
      <point x="350,25" y="797,997"/>
      <point x="477,25" y="586,667"/>
      <point x="477,25" y="540,667" type="curve"/>
      <point x="489,75" y="540,667" type="line"/>
      <point x="471,75" y="804,667" type="line"/>
      <point x="463,375" y="804,667" type="line"/>
      <point x="463,375" y="804,667"/>
      <point x="461,75" y="756,667"/>
      <point x="430,25" y="756,667" type="curve"/>
      <point x="390" y="756,667"/>
      <point x="362,5" y="814,998"/>
      <point x="254,01" y="814,998" type="curve"/>
      <point x="114" y="815"/>
      <point x="9" y="702"/>
      <point x="9" y="560" type="curve" smooth="yes"/>
      <point x="9" y="321,4"/>
      <point x="399,446" y="353,396"/>
      <point x="399,992" y="136" type="curve"/>
      <point x="399,992" y="68"/>
      <point x="372,593" y="2,99219"/>
      <point x="275" y="3" type="curve"/>
      <point x="181" y="3"/>
      <point x="66,6592" y="162,733"/>
      <point x="34" y="305" type="curve"/>
      <point x="20,9355" y="305" type="line"/>
      <point x="16,0371" y="-1" type="line"/>
      <point x="16,0127" y="-0,902344"/>
      <point x="23,3008" y="-1,04297"/>
      <point x="31" y="-1" type="curve"/>
      <point x="31" y="25"/>
      <point x="48" y="38"/>
      <point x="61" y="38" type="curve"/>
      <point x="91,25" y="38"/>
      <point x="197,81" y="-15"/>
      <point x="275,125" y="-15" type="curve" smooth="yes"/>
      <point x="435,159" y="-15"/>
      <point x="537" y="100,357"/>
      <point x="537" y="237,831" type="curve"/>
      <point x="537" y="524"/>
      <point x="139" y="467"/>
      <point x="139" y="676" type="curve"/>
      <point x="139" y="715"/>
      <point x="145,199" y="798,31"/>
    </contour>
  </outline>
</glyph>
<glyph name="T" format="1">
  <advance width="778"/>
  <unicode hex="0054"/>
  <outline>
    <contour>
      <point x="205" y="0" type="curve"/>
      <point x="205" y="8" type="line"/>
      <point x="205" y="8"/>
      <point x="298" y="22"/>
      <point x="298" y="85" type="curve" smooth="yes"/>
      <point x="298" y="798" type="line"/>
      <point x="472" y="798" type="line"/>
      <point x="472" y="85" type="line" smooth="yes"/>
      <point x="472" y="21"/>
      <point x="564" y="8"/>
      <point x="564" y="8" type="curve"/>
      <point x="564" y="0" type="line"/>
      <point x="472" y="21"/>
      <point x="299" y="19"/>
    </contour>
    <contour>
      <point x="442" y="783" type="curve" smooth="yes"/>
      <point x="330" y="783" type="line" smooth="yes"/>
      <point x="73" y="783"/>
      <point x="7" y="536"/>
      <point x="7" y="536" type="curve"/>
      <point x="-1" y="536" type="line"/>
      <point x="51" y="814" type="line"/>
      <point x="51" y="814"/>
      <point x="91" y="800"/>
      <point x="387" y="800" type="curve" smooth="yes"/>
      <point x="683" y="800"/>
      <point x="721" y="814"/>
      <point x="721" y="814" type="curve"/>
      <point x="773" y="536" type="line"/>
      <point x="765" y="536" type="line"/>
      <point x="765" y="536"/>
      <point x="699" y="783"/>
    </contour>
  </outline>
</glyph>
<glyph name="U" format="1">
  <advance width="851"/>
  <unicode hex="0055"/>
  <outline>
    <contour>
      <point x="475,749" y="10,0488" type="curve"/>
      <point x="348,879" y="10,0381"/>
      <point x="274,51" y="117"/>
      <point x="274,51" y="231" type="curve"/>
      <point x="273,438" y="715" type="line" smooth="yes"/>
      <point x="273,299" y="778,001"/>
      <point x="366,438" y="792"/>
      <point x="366,438" y="792" type="curve"/>
      <point x="366,438" y="800" type="line"/>
      <point x="261,916" y="781,08"/>
      <point x="91,3555" y="782,841"/>
      <point x="6,43848" y="800" type="curve"/>
      <point x="6,43848" y="792" type="line"/>
      <point x="6,43848" y="792"/>
      <point x="99,3506" y="778,002"/>
      <point x="99,4385" y="715" type="curve" smooth="yes"/>
      <point x="100" y="313,681" type="line" smooth="yes"/>
      <point x="100,256" y="134"/>
      <point x="233,394" y="-15"/>
      <point x="440" y="-15" type="curve" smooth="yes"/>
      <point x="642,438" y="-15"/>
      <point x="742,438" y="125,25"/>
      <point x="742,438" y="313,681" type="curve"/>
      <point x="743,963" y="660,042" type="line"/>
      <point x="743,963" y="764,375"/>
      <point x="872,42" y="791,875"/>
      <point x="872,42" y="791,875" type="curve"/>
      <point x="872,42" y="799,875" type="line"/>
      <point x="731,392" y="769,979"/>
      <point x="597,688" y="799,874"/>
      <point x="597,688" y="799,874" type="curve"/>
      <point x="597,688" y="791,875" type="line"/>
      <point x="597,688" y="791,875"/>
      <point x="726,146" y="764,375"/>
      <point x="726,146" y="660,042" type="curve"/>
      <point x="725,95" y="305" type="line"/>
      <point x="725,95" y="83,25"/>
      <point x="572" y="10,0488"/>
    </contour>
    <contour>
      <point x="274,51" y="231" type="move"/>
    </contour>
  </outline>
</glyph>
<glyph name="V" format="1">
  <advance width="856"/>
  <unicode hex="0056"/>
  <outline>
    <contour>
      <point x="471,463" y="179" type="line"/>
      <point x="645,463" y="631,501" type="line" smooth="yes"/>
      <point x="701,286" y="776,673"/>
      <point x="532,965" y="792,499"/>
      <point x="532,965" y="792,499" type="curve"/>
      <point x="532,965" y="800,499" type="line"/>
      <point x="609,455" y="784,319"/>
      <point x="731,101" y="779,502"/>
      <point x="846,51" y="800,498" type="curve"/>
      <point x="846,463" y="792,248" type="line"/>
      <point x="734,631" y="789,498"/>
      <point x="661,463" y="623,501"/>
      <point x="661,463" y="623,501" type="curve"/>
      <point x="486,465" y="179" type="line"/>
    </contour>
    <contour>
      <point x="493,466" y="198,001" type="line"/>
      <point x="407,466" y="-18" type="line"/>
      <point x="394,466" y="-18" type="line"/>
      <point x="106,466" y="717,335" type="line" smooth="yes"/>
      <point x="82,6055" y="778,257"/>
      <point x="10" y="791,999"/>
      <point x="10" y="791,999" type="curve"/>
      <point x="10" y="799,999" type="line"/>
      <point x="103,003" y="787,277"/>
      <point x="283,003" y="774,946"/>
      <point x="377" y="799,999" type="curve"/>
      <point x="377" y="791,999" type="line"/>
      <point x="377" y="791,999"/>
      <point x="272,659" y="776,186"/>
      <point x="295,135" y="717,331" type="curve" smooth="yes"/>
    </contour>
  </outline>
</glyph>
<glyph name="W" format="1">
  <advance width="1373"/>
  <unicode hex="0057"/>
  <outline>
    <contour>
      <point x="984,718" y="187" type="line"/>
      <point x="1158,72" y="631,501" type="line" smooth="yes"/>
      <point x="1215,41" y="776,334"/>
      <point x="1046,22" y="792,499"/>
      <point x="1046,22" y="792,499" type="curve"/>
      <point x="1046,22" y="800,499" type="line"/>
      <point x="1122,71" y="784,318"/>
      <point x="1244,36" y="779,502"/>
      <point x="1359,76" y="800,498" type="curve"/>
      <point x="1359,72" y="792,248" type="line"/>
      <point x="1247,89" y="789,498"/>
      <point x="1174,72" y="623,501"/>
      <point x="1174,72" y="623,501" type="curve"/>
      <point x="999,72" y="187" type="line"/>
    </contour>
    <contour>
      <point x="1006,72" y="206,001" type="line"/>
      <point x="920,721" y="-10" type="line"/>
      <point x="907,721" y="-10" type="line"/>
      <point x="619,721" y="717,335" type="line" smooth="yes"/>
      <point x="595,633" y="778,167"/>
      <point x="523,255" y="791,999"/>
      <point x="523,255" y="791,999" type="curve"/>
      <point x="523,255" y="799,999" type="line"/>
      <point x="606,109" y="788,426"/>
      <point x="727,447" y="776,532"/>
      <point x="890,255" y="799,999" type="curve"/>
      <point x="890,255" y="791,999" type="line"/>
      <point x="890,255" y="791,999"/>
      <point x="785,607" y="776,068"/>
      <point x="808,39" y="717,331" type="curve" smooth="yes"/>
    </contour>
    <contour>
      <point x="461,463" y="187" type="line"/>
      <point x="631" y="619,333" type="line"/>
      <point x="645,333" y="655,667"/>
      <point x="619,721" y="717,335"/>
      <point x="619,722" y="717,336" type="curve"/>
      <point x="595,333" y="778,333"/>
      <point x="522,943" y="792,529"/>
      <point x="522,965" y="792,499" type="curve"/>
      <point x="522,965" y="800,499" type="line"/>
      <point x="599,455" y="784,319"/>
      <point x="774,894" y="779,253"/>
      <point x="890,303" y="800,249" type="curve"/>
      <point x="890,256" y="791,999" type="line"/>
      <point x="778,344" y="789,055"/>
      <point x="660,333" y="644,667"/>
      <point x="651,463" y="623,501" type="curve"/>
      <point x="476,465" y="187" type="line"/>
    </contour>
    <contour>
      <point x="483,466" y="206,001" type="line"/>
      <point x="397,466" y="-10" type="line"/>
      <point x="384,466" y="-10" type="line"/>
      <point x="96,4658" y="717,335" type="line" smooth="yes"/>
      <point x="72,3779" y="778,167"/>
      <point x="0" y="791,999"/>
      <point x="0" y="791,999" type="curve"/>
      <point x="0" y="799,999" type="line"/>
      <point x="93,0029" y="787,277"/>
      <point x="273,003" y="774,946"/>
      <point x="367" y="799,999" type="curve"/>
      <point x="367" y="791,999" type="line"/>
      <point x="367" y="791,999"/>
      <point x="262,353" y="776,068"/>
      <point x="285,135" y="717,331" type="curve" smooth="yes"/>
    </contour>
  </outline>
</glyph>
<glyph name="X" format="1">
  <advance width="823"/>
  <unicode hex="0058"/>
  <outline>
    <contour>
      <point x="416,499" y="443,75" type="line"/>
      <point x="428,75" y="429" type="line"/>
      <point x="374,74" y="339,332"/>
      <point x="328,593" y="249,667"/>
      <point x="260" y="160" type="curve"/>
      <point x="173,07" y="21,4277"/>
      <point x="271,646" y="7,51953"/>
      <point x="272" y="8" type="curve"/>
      <point x="272" y="0" type="line"/>
      <point x="184" y="11"/>
      <point x="99" y="11"/>
      <point x="18" y="0" type="curve"/>
      <point x="18" y="3"/>
      <point x="17" y="8"/>
      <point x="17" y="8" type="curve"/>
      <point x="62" y="8"/>
      <point x="183,452" y="73,6748"/>
      <point x="246" y="173" type="curve" smooth="yes"/>
    </contour>
    <contour>
      <point x="372,251" y="340,25" type="line"/>
      <point x="360" y="355" type="line"/>
      <point x="538,5" y="640" type="line" smooth="yes"/>
      <point x="625,329" y="778,634"/>
      <point x="526,854" y="792,48"/>
      <point x="526,5" y="792" type="curve"/>
      <point x="526,5" y="800" type="line"/>
      <point x="614,5" y="789"/>
      <point x="699,5" y="789"/>
      <point x="780,5" y="800" type="curve"/>
      <point x="780,5" y="797"/>
      <point x="781,5" y="792"/>
      <point x="781,5" y="792" type="curve"/>
      <point x="736,5" y="792"/>
      <point x="614,967" y="726,375"/>
      <point x="552,5" y="627" type="curve" smooth="yes"/>
    </contour>
    <contour>
      <point x="514" y="79,5" type="curve" smooth="yes"/>
      <point x="182" y="636" type="line"/>
      <point x="300,678" y="773,82" type="line"/>
      <point x="713" y="85" type="line"/>
      <point x="740,177" y="37,1553"/>
      <point x="778" y="9,5"/>
      <point x="806" y="8" type="curve"/>
      <point x="806" y="0" type="line"/>
      <point x="721,083" y="17,1592"/>
      <point x="550,522" y="18,9199"/>
      <point x="446" y="0" type="curve"/>
      <point x="446" y="8" type="line"/>
      <point x="446" y="8"/>
      <point x="546,275" y="25,4004"/>
    </contour>
    <contour>
      <point x="332" y="720,5" type="curve" smooth="yes"/>
      <point x="664" y="164" type="line"/>
      <point x="545,322" y="26,1797" type="line"/>
      <point x="133" y="715" type="line"/>
      <point x="105,823" y="762,845"/>
      <point x="68" y="790,5"/>
      <point x="40" y="792" type="curve"/>
      <point x="40" y="800" type="line"/>
      <point x="124,917" y="782,841"/>
      <point x="295,478" y="781,08"/>
      <point x="400" y="800" type="curve"/>
      <point x="400" y="792" type="line"/>
      <point x="400" y="792"/>
      <point x="299,725" y="774,6"/>
    </contour>
  </outline>
</glyph>
<glyph name="Y" format="1">
  <advance width="849"/>
  <unicode hex="0059"/>
  <outline>
    <contour>
      <point x="307" y="388,462" type="line"/>
      <point x="103" y="715" type="line"/>
      <point x="75,8232" y="762,845"/>
      <point x="38" y="790,5"/>
      <point x="10" y="792" type="curve"/>
      <point x="10" y="800" type="line"/>
      <point x="94,917" y="782,841"/>
      <point x="265,478" y="781,08"/>
      <point x="370" y="800" type="curve"/>
      <point x="370" y="792" type="line"/>
      <point x="370" y="792"/>
      <point x="268,452" y="773,82"/>
      <point x="302" y="720,5" type="curve" smooth="yes"/>
      <point x="474,669" y="446,062" type="line"/>
      <point x="596,5" y="640" type="line" smooth="yes"/>
      <point x="683,52" y="778,521"/>
      <point x="584,5" y="792"/>
      <point x="584,5" y="792" type="curve"/>
      <point x="584,5" y="800" type="line"/>
      <point x="672,5" y="789"/>
      <point x="757,5" y="789"/>
      <point x="838,5" y="800" type="curve"/>
      <point x="838,5" y="797"/>
      <point x="839,5" y="792"/>
      <point x="839,5" y="792" type="curve"/>
      <point x="794,5" y="792"/>
      <point x="673,066" y="726,314"/>
      <point x="610,5" y="627" type="curve" smooth="yes"/>
      <point x="481" y="421,439" type="line"/>
      <point x="481" y="85" type="line" smooth="yes"/>
      <point x="481" y="21"/>
      <point x="574" y="8"/>
      <point x="574" y="8" type="curve"/>
      <point x="574" y="1" type="line"/>
      <point x="472,868" y="11,5596"/>
      <point x="302,205" y="10,8799"/>
      <point x="214" y="1" type="curve"/>
      <point x="214" y="8" type="line"/>
      <point x="214" y="8"/>
      <point x="307" y="22"/>
      <point x="307" y="85" type="curve" smooth="yes"/>
    </contour>
  </outline>
</glyph>
<glyph name="Z" format="1">
  <advance width="780"/>
  <unicode hex="005A"/>
  <outline>
    <contour>
      <point x="324,659" y="16,9854" type="curve"/>
      <point x="653,5" y="16,9854"/>
      <point x="697,159" y="282,957"/>
      <point x="697,159" y="283" type="curve"/>
      <point x="706,5" y="282,993" type="line"/>
      <point x="664,161" y="0" type="line"/>
      <point x="324,659" y="0" type="line"/>
      <point x="324,659" y="0"/>
      <point x="274,997" y="3,71289"/>
      <point x="241,284" y="7,35938" type="curve" smooth="yes"/>
      <point x="236,486" y="27,8154" type="line"/>
      <point x="236,486" y="27,8154"/>
      <point x="276,5" y="16,9854"/>
    </contour>
    <contour>
      <point x="288" y="79,5" type="line"/>
      <point x="255,536" y="25,642"/>
      <point x="310,53" y="16,9814"/>
      <point x="324,659" y="16,9814" type="curve"/>
      <point x="324,658" y="-0" type="line"/>
      <point x="-4" y="0" type="line"/>
      <point x="-4" y="8" type="line"/>
      <point x="24" y="9,5"/>
      <point x="61,8232" y="37,1553"/>
      <point x="89" y="85" type="curve"/>
      <point x="505,322" y="773,82" type="line"/>
      <point x="624" y="636" type="line"/>
    </contour>
    <contour>
      <point x="516,5" y="793,112" type="line" smooth="yes"/>
      <point x="516,5" y="793,112"/>
      <point x="565,655" y="786,802"/>
      <point x="600,5" y="786,561" type="curve"/>
      <point x="664,459" y="786,535"/>
      <point x="718,395" y="791,08"/>
      <point x="765" y="800,5" type="curve"/>
      <point x="765" y="792,5" type="line"/>
      <point x="765" y="792,5"/>
      <point x="715,125" y="786,904"/>
      <point x="672" y="715,5" type="curve" smooth="yes"/>
      <point x="255,678" y="26,1797" type="line"/>
      <point x="137" y="164" type="line"/>
    </contour>
    <contour>
      <point x="433,156" y="799,987" type="curve"/>
      <point x="472,49" y="798,821"/>
      <point x="482,787" y="796,759"/>
      <point x="516,5" y="793,112" type="curve" smooth="yes"/>
      <point x="516,532" y="775,895" type="line"/>
      <point x="516,532" y="775,895"/>
      <point x="494,281" y="782,998"/>
      <point x="433,151" y="782,998" type="curve" smooth="yes"/>
      <point x="219,204" y="782,998"/>
      <point x="71,5381" y="568,113"/>
      <point x="71,5381" y="568,113" type="curve"/>
      <point x="62,1396" y="568,112" type="line"/>
      <point x="139,37" y="771,612" type="line"/>
      <point x="139,37" y="771,612"/>
      <point x="300,037" y="799,987"/>
    </contour>
  </outline>
</glyph>
<glyph name="bracketleft" format="1">
  <advance width="359"/>
  <unicode hex="005B"/>
  <outline>
    <contour>
      <point x="321" y="-91,4004" type="line"/>
      <point x="60" y="-91,4004" type="line"/>
      <point x="60" y="859,267" type="line"/>
      <point x="321" y="859,267" type="line"/>
      <point x="321" y="849,267" type="line"/>
      <point x="255" y="849,267"/>
      <point x="204" y="832,267"/>
      <point x="202" y="758,267" type="curve"/>
      <point x="202" y="9,59961" type="line"/>
      <point x="204" y="-64,4004"/>
      <point x="255" y="-81,4004"/>
      <point x="321" y="-81,4004" type="curve"/>
    </contour>
  </outline>
</glyph>
<glyph name="backslash" format="1">
  <advance width="295"/>
  <unicode hex="005C"/>
  <outline>
    <contour>
      <point x="248,75" y="0" type="line"/>
      <point x="10,75" y="741" type="line"/>
      <point x="48" y="741" type="line"/>
      <point x="284,75" y="0" type="line"/>
    </contour>
  </outline>
</glyph>
<glyph name="bracketright" format="1">
  <advance width="359"/>
  <unicode hex="005D"/>
  <outline>
    <contour>
      <point x="59" y="-91,4004" type="line"/>
      <point x="319" y="-91,4004" type="line"/>
      <point x="319" y="859,267" type="line"/>
      <point x="59" y="859,267" type="line"/>
      <point x="59" y="849,267" type="line"/>
      <point x="125" y="849,267"/>
      <point x="176" y="832,267"/>
      <point x="178" y="758,267" type="curve"/>
      <point x="178" y="9,59961" type="line"/>
      <point x="176" y="-64,4004"/>
      <point x="125" y="-81,4004"/>
      <point x="59" y="-81,4004" type="curve"/>
    </contour>
  </outline>
</glyph>
<glyph name="asciicircum" format="1">
  <advance width="516"/>
  <unicode hex="005E"/>
  <outline>
    <contour>
      <point x="403,459" y="566" type="curve"/>
      <point x="432,459" y="566" type="line"/>
      <point x="295,375" y="721" type="line"/>
      <point x="259,543" y="721" type="line" smooth="yes"/>
      <point x="259,543" y="721"/>
      <point x="233,543" y="719,5"/>
      <point x="233,543" y="661,5" type="curve"/>
      <point x="233,621" y="627,747"/>
      <point x="330,482" y="611,709"/>
    </contour>
    <contour>
      <point x="115,584" y="566" type="line"/>
      <point x="188,561" y="611,709"/>
      <point x="285,421" y="627,747"/>
      <point x="285,5" y="661,5" type="curve"/>
      <point x="285,5" y="719,5"/>
      <point x="259,5" y="721"/>
      <point x="259,5" y="721" type="curve" smooth="yes"/>
      <point x="223,667" y="721" type="line"/>
      <point x="86,584" y="566" type="line"/>
    </contour>
  </outline>
</glyph>
<glyph name="underscore" format="1">
  <advance width="694"/>
  <unicode hex="005F"/>
  <outline>
    <contour>
      <point x="44" y="-76" type="line"/>
      <point x="44" y="0" type="line"/>
      <point x="648" y="0" type="line"/>
      <point x="648" y="-76" type="line"/>
    </contour>
  </outline>
</glyph>
<glyph name="grave" format="1">
  <advance width="516"/>
  <unicode hex="0060"/>
  <outline>
    <contour>
      <point x="344,355" y="565,82" type="line"/>
      <point x="260,755" y="565,82"/>
      <point x="205,699" y="566,364"/>
      <point x="150,936" y="606,232" type="curve" smooth="yes"/>
      <point x="111,093" y="635,236"/>
      <point x="116,366" y="677,312"/>
      <point x="134,459" y="701,764" type="curve" smooth="yes"/>
      <point x="168,354" y="747,565"/>
      <point x="251,955" y="723,854"/>
      <point x="251,955" y="667,021" type="curve" smooth="yes"/>
      <point x="251,955" y="627,054"/>
      <point x="272,488" y="583,05"/>
      <point x="335,556" y="583,05" type="curve"/>
    </contour>
  </outline>
</glyph>
<glyph name="a" format="1">
  <advance width="514"/>
  <unicode hex="0061"/>
  <outline>
    <contour>
      <point x="324" y="118" type="line"/>
      <point x="324" y="43"/>
      <point x="219" y="-10"/>
      <point x="142" y="-10" type="curve" smooth="yes"/>
      <point x="82" y="-10"/>
      <point x="26" y="32"/>
      <point x="26" y="91" type="curve"/>
      <point x="24" y="175"/>
      <point x="117" y="213"/>
      <point x="176" y="240" type="curve" smooth="yes"/>
      <point x="222" y="261"/>
      <point x="286" y="284"/>
      <point x="335" y="304" type="curve"/>
      <point x="337" y="292"/>
      <point x="338" y="286"/>
      <point x="339" y="285" type="curve"/>
      <point x="245" y="253"/>
      <point x="160" y="236"/>
      <point x="164" y="125" type="curve" smooth="yes"/>
      <point x="165" y="81"/>
      <point x="173" y="35"/>
      <point x="227" y="35" type="curve" smooth="yes"/>
      <point x="262" y="35"/>
      <point x="316" y="80,167"/>
      <point x="316" y="129" type="curve"/>
    </contour>
    <contour>
      <point x="173" y="363" type="line"/>
      <point x="173" y="302"/>
      <point x="146" y="252"/>
      <point x="89" y="253" type="curve" smooth="yes"/>
      <point x="54" y="253"/>
      <point x="23" y="277"/>
      <point x="24" y="311" type="curve" smooth="yes"/>
      <point x="24" y="334"/>
      <point x="37" y="361"/>
      <point x="63" y="393" type="curve" smooth="yes"/>
      <point x="108" y="446"/>
      <point x="201" y="510"/>
      <point x="300" y="510" type="curve" smooth="yes"/>
      <point x="371" y="510"/>
      <point x="415" y="482"/>
      <point x="433" y="430" type="curve" smooth="yes"/>
      <point x="437" y="416"/>
      <point x="440" y="402"/>
      <point x="440" y="387" type="curve" smooth="yes"/>
      <point x="440" y="62" type="line" smooth="yes"/>
      <point x="440" y="46"/>
      <point x="449" y="37"/>
      <point x="463" y="33" type="curve" smooth="yes"/>
      <point x="471" y="31"/>
      <point x="483" y="35"/>
      <point x="497" y="45" type="curve"/>
      <point x="504" y="40" type="line"/>
      <point x="488" y="19"/>
      <point x="444" y="-10"/>
      <point x="404" y="-10" type="curve" smooth="yes"/>
      <point x="345" y="-10"/>
      <point x="306" y="17"/>
      <point x="306" y="70" type="curve" smooth="yes"/>
      <point x="306" y="430" type="line" smooth="yes"/>
      <point x="306" y="463"/>
      <point x="301" y="488"/>
      <point x="267" y="489" type="curve"/>
      <point x="212" y="489"/>
      <point x="172" y="465"/>
      <point x="172" y="410" type="curve"/>
    </contour>
  </outline>
</glyph>
<glyph name="b" format="1">
  <advance width="617"/>
  <unicode hex="0062"/>
  <outline>
    <contour>
      <point x="392" y="511" type="curve" smooth="yes"/>
      <point x="520" y="511"/>
      <point x="588" y="401"/>
      <point x="588" y="271" type="curve" smooth="yes"/>
      <point x="588" y="119"/>
      <point x="488" y="-11"/>
      <point x="336" y="-11" type="curve" smooth="yes"/>
      <point x="223" y="-11"/>
      <point x="210,667" y="52,9971"/>
      <point x="161" y="53" type="curve" smooth="yes"/>
      <point x="127,333" y="53"/>
      <point x="102" y="-2,33301"/>
      <point x="102" y="-4" type="curve"/>
      <point x="95" y="0" type="line"/>
      <point x="96" y="620" type="line" smooth="yes"/>
      <point x="96" y="682,312"/>
      <point x="60,9824" y="721,448"/>
      <point x="9" y="733" type="curve"/>
      <point x="9" y="739" type="line"/>
      <point x="103,842" y="754,807"/>
      <point x="157,605" y="759,898"/>
      <point x="224" y="801" type="curve"/>
      <point x="231" y="800" type="line"/>
      <point x="231,524" y="433,908" type="line"/>
      <point x="258,301" y="485,534"/>
      <point x="307,293" y="511"/>
    </contour>
    <contour>
      <point x="231,825" y="223,187" type="curve" smooth="yes"/>
      <point x="231,893" y="175,933" type="line"/>
      <point x="233,477" y="88,6137"/>
      <point x="246,916" y="12"/>
      <point x="334" y="12" type="curve" smooth="yes"/>
      <point x="407" y="12"/>
      <point x="443" y="89"/>
      <point x="443" y="230" type="curve" smooth="yes"/>
      <point x="443" y="328"/>
      <point x="405" y="458"/>
      <point x="311" y="460" type="curve" smooth="yes"/>
      <point x="241,07" y="460,786"/>
      <point x="232,26" y="388,105"/>
      <point x="231,695" y="314,234" type="curve" smooth="yes"/>
      <point x="231,728" y="291,058" type="line" smooth="yes"/>
      <point x="231,826" y="278,744"/>
      <point x="232" y="266,611"/>
      <point x="232" y="255" type="curve" smooth="yes"/>
      <point x="232" y="244,486"/>
      <point x="231,906" y="233,844"/>
    </contour>
  </outline>
</glyph>
<glyph name="c" format="1">
  <advance width="496"/>
  <unicode hex="0063"/>
  <outline>
    <contour>
      <point x="10" y="249" type="curve"/>
      <point x="11" y="397"/>
      <point x="125" y="508"/>
      <point x="272" y="508" type="curve" smooth="yes"/>
      <point x="394" y="508"/>
      <point x="461" y="407"/>
      <point x="461" y="330" type="curve" smooth="yes"/>
      <point x="461" y="268"/>
      <point x="423" y="254"/>
      <point x="393" y="254" type="curve" smooth="yes"/>
      <point x="349" y="254"/>
      <point x="313" y="300"/>
      <point x="329" y="368" type="curve"/>
      <point x="336" y="408"/>
      <point x="329" y="334"/>
      <point x="329" y="368" type="curve"/>
      <point x="350" y="465"/>
      <point x="304" y="492"/>
      <point x="270" y="491" type="curve"/>
      <point x="88" y="491"/>
      <point x="112" y="89"/>
      <point x="336" y="89" type="curve" smooth="yes"/>
      <point x="373" y="89"/>
      <point x="432" y="93"/>
      <point x="476" y="163" type="curve"/>
      <point x="486" y="162" type="line"/>
      <point x="486" y="162"/>
      <point x="440" y="-11"/>
      <point x="269" y="-11" type="curve" smooth="yes"/>
      <point x="121" y="-11"/>
      <point x="10" y="100"/>
    </contour>
  </outline>
</glyph>
<glyph name="d" format="1">
  <advance width="593"/>
  <unicode hex="0064"/>
  <outline>
    <contour>
      <point x="455" y="108" type="move" smooth="yes"/>
    </contour>
    <contour>
      <point x="224" y="-10" type="curve" smooth="yes"/>
      <point x="97" y="-10"/>
      <point x="29" y="101"/>
      <point x="29" y="232" type="curve" smooth="yes"/>
      <point x="29" y="383"/>
      <point x="130" y="510"/>
      <point x="281" y="510" type="curve" smooth="yes"/>
      <point x="365" y="510"/>
      <point x="416" y="448"/>
      <point x="414" y="361" type="curve"/>
      <point x="413" y="242" type="line"/>
      <point x="413" y="73"/>
      <point x="377" y="-10"/>
    </contour>
    <contour>
      <point x="385" y="248" type="curve" smooth="yes"/>
      <point x="385" y="361"/>
      <point x="396" y="486"/>
      <point x="282" y="486" type="curve" smooth="yes"/>
      <point x="210" y="486"/>
      <point x="173" y="413"/>
      <point x="173" y="273" type="curve" smooth="yes"/>
      <point x="173" y="174"/>
      <point x="212" y="42"/>
      <point x="305" y="41" type="curve"/>
      <point x="395" y="39"/>
      <point x="385" y="159"/>
    </contour>
    <contour>
      <point x="299" y="739" type="line"/>
      <point x="342" y="746"/>
      <point x="372" y="751"/>
      <point x="388" y="754" type="curve" smooth="yes"/>
      <point x="404" y="757"/>
      <point x="424" y="762"/>
      <point x="447" y="770" type="curve" smooth="yes"/>
      <point x="471" y="778"/>
      <point x="495" y="788"/>
      <point x="515" y="801" type="curve"/>
      <point x="522" y="800" type="line"/>
      <point x="522" y="108" type="line" smooth="yes"/>
      <point x="522" y="93"/>
      <point x="527" y="81"/>
      <point x="537" y="70" type="curve" smooth="yes"/>
      <point x="547" y="60"/>
      <point x="557" y="52"/>
      <point x="567" y="48" type="curve" smooth="yes"/>
      <point x="577" y="44"/>
      <point x="582" y="43"/>
      <point x="582" y="45" type="curve"/>
      <point x="583" y="43"/>
      <point x="583" y="42"/>
      <point x="583" y="41" type="curve" smooth="yes"/>
      <point x="583" y="40"/>
      <point x="583" y="39"/>
      <point x="582" y="38" type="curve" smooth="yes"/>
      <point x="582" y="37"/>
      <point x="581" y="36"/>
      <point x="581" y="36" type="curve"/>
      <point x="560" y="38"/>
      <point x="527" y="34"/>
      <point x="482" y="24" type="curve" smooth="yes"/>
      <point x="438" y="14"/>
      <point x="407" y="4"/>
      <point x="391" y="-4" type="curve"/>
      <point x="384" y="0" type="line"/>
      <point x="384" y="620" type="line" smooth="yes"/>
      <point x="384" y="651"/>
      <point x="379" y="676"/>
      <point x="363" y="695" type="curve" smooth="yes"/>
      <point x="348" y="714"/>
      <point x="326" y="727"/>
      <point x="300" y="733" type="curve"/>
    </contour>
  </outline>
</glyph>
<glyph name="e" format="1">
  <advance width="543"/>
  <unicode hex="0065"/>
  <outline>
    <contour>
      <point x="33" y="249" type="curve" smooth="yes"/>
      <point x="33" y="396"/>
      <point x="146" y="510"/>
      <point x="293" y="510" type="curve" smooth="yes"/>
      <point x="425" y="510"/>
      <point x="510" y="384"/>
      <point x="510" y="288" type="curve"/>
      <point x="376" y="288" type="line"/>
      <point x="376" y="384"/>
      <point x="373" y="493"/>
      <point x="293" y="493" type="curve" smooth="yes"/>
      <point x="111" y="493"/>
      <point x="135" y="89"/>
      <point x="359" y="89" type="curve" smooth="yes"/>
      <point x="396" y="89"/>
      <point x="455" y="93"/>
      <point x="499" y="163" type="curve"/>
      <point x="509" y="162" type="line"/>
      <point x="509" y="158,917"/>
      <point x="465" y="-11"/>
      <point x="292" y="-11" type="curve"/>
      <point x="144" y="-11"/>
      <point x="33" y="100"/>
    </contour>
    <contour>
      <point x="510" y="288" type="line"/>
      <point x="150" y="288" type="line"/>
      <point x="142" y="306" type="line"/>
      <point x="507" y="306" type="line"/>
    </contour>
  </outline>
</glyph>
<glyph name="f" format="1">
  <advance width="354"/>
  <unicode hex="0066"/>
  <outline>
    <contour>
      <point x="289" y="434" type="line"/>
      <point x="14" y="434" type="line"/>
      <point x="14" y="443" type="line"/>
      <point x="95" y="555"/>
      <point x="120" y="807"/>
      <point x="248" y="807" type="curve" smooth="yes"/>
      <point x="306" y="807"/>
      <point x="344" y="744"/>
      <point x="344" y="701" type="curve"/>
      <point x="343" y="662"/>
      <point x="318" y="637"/>
      <point x="287" y="637" type="curve" smooth="yes"/>
      <point x="254" y="637"/>
      <point x="223" y="650"/>
      <point x="223" y="696" type="curve"/>
      <point x="223" y="726,667"/>
      <point x="243,667" y="776,661"/>
      <point x="209,347" y="776,661" type="curve"/>
      <point x="198,333" y="776,661"/>
      <point x="174,398" y="764,625"/>
      <point x="170" y="720" type="curve"/>
      <point x="170" y="628"/>
      <point x="206" y="542"/>
      <point x="206" y="480" type="curve"/>
      <point x="302" y="480" type="line"/>
    </contour>
    <contour>
      <point x="70" y="441" type="line"/>
      <point x="203" y="441" type="line"/>
      <point x="203" y="59" type="line"/>
      <point x="203" y="59"/>
      <point x="208" y="35"/>
      <point x="219" y="27" type="curve" smooth="yes"/>
      <point x="228" y="20"/>
      <point x="238" y="15"/>
      <point x="249" y="12" type="curve" smooth="yes"/>
      <point x="264" y="8" type="line"/>
      <point x="264" y="0" type="line"/>
      <point x="177,89" y="10,7332"/>
      <point x="94,1099" y="10,694"/>
      <point x="10" y="0" type="curve"/>
      <point x="10" y="8" type="line"/>
      <point x="25" y="12" type="line" smooth="yes"/>
      <point x="35" y="14"/>
      <point x="45" y="19"/>
      <point x="55" y="27" type="curve" smooth="yes"/>
      <point x="65" y="35"/>
      <point x="70" y="44"/>
      <point x="70" y="54" type="curve" smooth="yes"/>
    </contour>
  </outline>
</glyph>
<glyph name="g" format="1">
  <advance width="502"/>
  <unicode hex="0067"/>
  <outline>
    <contour>
      <point x="163" y="207" type="line"/>
      <point x="42" y="155"/>
      <point x="24" y="120"/>
      <point x="25" y="86" type="curve"/>
      <point x="25" y="14"/>
      <point x="113" y="0"/>
      <point x="237" y="0" type="curve" smooth="yes"/>
      <point x="377" y="0"/>
      <point x="397" y="-32"/>
      <point x="396" y="-53" type="curve"/>
      <point x="396" y="-77"/>
      <point x="363" y="-95"/>
      <point x="237" y="-95" type="curve" smooth="yes"/>
      <point x="179" y="-95"/>
      <point x="70" y="-91"/>
      <point x="70" y="-39" type="curve" smooth="yes"/>
      <point x="70" y="0"/>
      <point x="105" y="3"/>
      <point x="122" y="26" type="curve"/>
      <point x="94" y="35" type="line"/>
      <point x="64" y="15"/>
      <point x="10" y="0"/>
      <point x="10" y="-40" type="curve" smooth="yes"/>
      <point x="11" y="-111"/>
      <point x="175" y="-112"/>
      <point x="237" y="-112" type="curve" smooth="yes"/>
      <point x="452" y="-112"/>
      <point x="492" y="-51"/>
      <point x="492" y="25" type="curve" smooth="yes"/>
      <point x="492" y="114"/>
      <point x="423" y="142"/>
      <point x="324" y="142" type="curve" smooth="yes"/>
      <point x="143" y="142" type="line" smooth="yes"/>
      <point x="92" y="142"/>
      <point x="191" y="200"/>
      <point x="191" y="200" type="curve"/>
    </contour>
    <contour>
      <point x="231" y="500" type="curve"/>
      <point x="250" y="500" type="line"/>
      <point x="250" y="500"/>
      <point x="261" y="574"/>
      <point x="305" y="549" type="curve"/>
      <point x="330" y="533"/>
      <point x="339" y="523"/>
      <point x="380" y="523" type="curve" smooth="yes"/>
      <point x="415" y="523"/>
      <point x="442" y="557"/>
      <point x="442" y="595" type="curve" smooth="yes"/>
      <point x="442" y="642"/>
      <point x="406" y="662"/>
      <point x="375" y="662" type="curve" smooth="yes"/>
      <point x="261" y="662"/>
      <point x="231" y="500"/>
    </contour>
    <contour>
      <point x="240" y="202" type="curve" smooth="yes"/>
      <point x="196" y="202"/>
      <point x="181" y="266"/>
      <point x="181" y="342" type="curve"/>
      <point x="180" y="413"/>
      <point x="188" y="490"/>
      <point x="240" y="490" type="curve" smooth="yes"/>
      <point x="292" y="490"/>
      <point x="300" y="413"/>
      <point x="300" y="342" type="curve" smooth="yes"/>
      <point x="300" y="266"/>
      <point x="284" y="202"/>
    </contour>
    <contour>
      <point x="240" y="506" type="curve" smooth="yes"/>
      <point x="150" y="506"/>
      <point x="29" y="452"/>
      <point x="29" y="341" type="curve" smooth="yes"/>
      <point x="29" y="234"/>
      <point x="150" y="188"/>
      <point x="240" y="188" type="curve" smooth="yes"/>
      <point x="329" y="188"/>
      <point x="452" y="234"/>
      <point x="452" y="341" type="curve" smooth="yes"/>
      <point x="452" y="452"/>
      <point x="329" y="506"/>
    </contour>
  </outline>
</glyph>
<glyph name="h" format="1">
  <advance width="614"/>
  <unicode hex="0068"/>
  <outline>
    <contour>
      <point x="231" y="799,011" type="line"/>
      <point x="231" y="59" type="line" smooth="yes"/>
      <point x="231,018" y="46"/>
      <point x="235" y="35"/>
      <point x="246" y="27" type="curve" smooth="yes"/>
      <point x="255" y="20"/>
      <point x="265" y="15"/>
      <point x="276" y="12" type="curve" smooth="yes"/>
      <point x="291" y="8" type="line"/>
      <point x="290" y="5"/>
      <point x="290" y="2"/>
      <point x="290" y="0" type="curve"/>
      <point x="199,577" y="10,7168"/>
      <point x="115,755" y="10,7031"/>
      <point x="37" y="0" type="curve"/>
      <point x="37" y="8" type="line"/>
      <point x="52" y="12" type="line" smooth="yes"/>
      <point x="62" y="14"/>
      <point x="72" y="19"/>
      <point x="82" y="27" type="curve" smooth="yes"/>
      <point x="92" y="35"/>
      <point x="97" y="44"/>
      <point x="97" y="54" type="curve" smooth="yes"/>
      <point x="97" y="620,011" type="line" smooth="yes"/>
      <point x="97" y="683,011"/>
      <point x="61" y="720,011"/>
      <point x="10" y="733,011" type="curve"/>
      <point x="10" y="739,011" type="line"/>
      <point x="107" y="754,011"/>
      <point x="159" y="760,011"/>
      <point x="224" y="800,011" type="curve"/>
    </contour>
    <contour>
      <point x="541" y="364" type="curve" smooth="yes"/>
      <point x="541" y="59" type="line" smooth="yes"/>
      <point x="541" y="46"/>
      <point x="545" y="35"/>
      <point x="556" y="27" type="curve" smooth="yes"/>
      <point x="566" y="20"/>
      <point x="576" y="15"/>
      <point x="586" y="12" type="curve" smooth="yes"/>
      <point x="601" y="8" type="line"/>
      <point x="601" y="0" type="line"/>
      <point x="516,854" y="-0,277344"/>
      <point x="431,912" y="0,293945"/>
      <point x="347" y="0" type="curve"/>
      <point x="347" y="8" type="line"/>
      <point x="362" y="12" type="line" smooth="yes"/>
      <point x="372" y="14"/>
      <point x="382" y="19"/>
      <point x="392" y="27" type="curve" smooth="yes"/>
      <point x="402" y="35"/>
      <point x="407" y="44"/>
      <point x="407" y="54" type="curve" smooth="yes"/>
      <point x="407" y="315" type="line"/>
      <point x="406" y="574"/>
      <point x="213" y="373"/>
      <point x="213" y="373" type="curve"/>
      <point x="213" y="409" type="line"/>
      <point x="455" y="596"/>
      <point x="541" y="491"/>
    </contour>
  </outline>
</glyph>
<glyph name="i" format="1">
  <advance width="301"/>
  <unicode hex="0069"/>
  <outline>
    <contour>
      <point x="-560" y="1261" type="move" smooth="yes"/>
    </contour>
    <contour>
      <point x="90" y="724" type="curve" smooth="yes"/>
      <point x="90" y="771"/>
      <point x="125" y="811"/>
      <point x="173" y="811" type="curve" smooth="yes"/>
      <point x="221" y="811"/>
      <point x="257" y="771"/>
      <point x="257" y="724" type="curve" smooth="yes"/>
      <point x="257" y="676"/>
      <point x="221" y="636"/>
      <point x="173" y="636" type="curve" smooth="yes"/>
      <point x="125" y="636"/>
      <point x="90" y="676"/>
    </contour>
    <contour>
      <point x="10" y="439" type="line"/>
      <point x="107" y="454"/>
      <point x="159" y="460"/>
      <point x="224" y="500" type="curve"/>
      <point x="231" y="499" type="line"/>
      <point x="231" y="59" type="line"/>
      <point x="230" y="33"/>
      <point x="255" y="17"/>
      <point x="276" y="12" type="curve" smooth="yes"/>
      <point x="291" y="8" type="line"/>
      <point x="291" y="0" type="line"/>
      <point x="209" y="10"/>
      <point x="125" y="10"/>
      <point x="37" y="0" type="curve"/>
      <point x="37" y="2"/>
      <point x="37" y="5"/>
      <point x="36" y="8" type="curve"/>
      <point x="51" y="12" type="line" smooth="yes"/>
      <point x="69" y="16"/>
      <point x="97" y="33"/>
      <point x="96" y="54" type="curve"/>
      <point x="97" y="320" type="line" smooth="yes"/>
      <point x="97" y="383"/>
      <point x="61" y="420"/>
      <point x="10" y="433" type="curve"/>
    </contour>
  </outline>
</glyph>
<glyph name="j" format="1">
  <advance width="357"/>
  <unicode hex="006A"/>
  <outline>
    <contour>
      <point x="131" y="724" type="curve" smooth="yes"/>
      <point x="131" y="771"/>
      <point x="165" y="811"/>
      <point x="213" y="811" type="curve" smooth="yes"/>
      <point x="261" y="811"/>
      <point x="297" y="771"/>
      <point x="297" y="724" type="curve" smooth="yes"/>
      <point x="297" y="676"/>
      <point x="261" y="636"/>
      <point x="213" y="636" type="curve" smooth="yes"/>
      <point x="165" y="636"/>
      <point x="131" y="676"/>
    </contour>
    <contour>
      <point x="271" y="75,333" type="curve" smooth="yes"/>
      <point x="271" y="500" type="line"/>
      <point x="264" y="501" type="line"/>
      <point x="200" y="461"/>
      <point x="148" y="454"/>
      <point x="50" y="439" type="curve"/>
      <point x="50" y="433" type="line"/>
      <point x="102" y="420"/>
      <point x="136,727" y="382,999"/>
      <point x="137" y="320" type="curve" smooth="yes"/>
      <point x="138" y="89,333" type="line" smooth="yes"/>
      <point x="138" y="33,333"/>
      <point x="184,341" y="-10,334"/>
      <point x="184,341" y="-76,334" type="curve"/>
      <point x="178,625" y="-127,035"/>
      <point x="143,228" y="-128,333"/>
      <point x="146" y="-128,333" type="curve"/>
      <point x="111" y="-128,333"/>
      <point x="131,337" y="-75"/>
      <point x="131,337" y="-50,667" type="curve" smooth="yes"/>
      <point x="131,337" y="-4,66699"/>
      <point x="100" y="9,33301"/>
      <point x="67" y="9,33301" type="curve"/>
      <point x="31" y="7,33301"/>
      <point x="10" y="-16,667"/>
      <point x="10" y="-54,667" type="curve" smooth="yes"/>
      <point x="10" y="-97,667"/>
      <point x="48" y="-160,667"/>
      <point x="106" y="-160,667" type="curve" smooth="yes"/>
      <point x="234" y="-160,667"/>
      <point x="271" y="7,33301"/>
    </contour>
  </outline>
</glyph>
<glyph name="k" format="1">
  <advance width="578"/>
  <unicode hex="006B"/>
  <outline>
    <contour>
      <point x="534" y="358" type="curve" smooth="yes"/>
      <point x="534" y="59" type="line" smooth="yes"/>
      <point x="534" y="46"/>
      <point x="538" y="35"/>
      <point x="549" y="27" type="curve" smooth="yes"/>
      <point x="559" y="20"/>
      <point x="569" y="15"/>
      <point x="579" y="12" type="curve" smooth="yes"/>
      <point x="594" y="8" type="line"/>
      <point x="594" y="0" type="line"/>
      <point x="513" y="10"/>
      <point x="428" y="10"/>
      <point x="340" y="0" type="curve"/>
      <point x="340" y="8" type="line"/>
      <point x="355" y="12" type="line" smooth="yes"/>
      <point x="365" y="14"/>
      <point x="375" y="19"/>
      <point x="385" y="27" type="curve" smooth="yes"/>
      <point x="395" y="35"/>
      <point x="400" y="44"/>
      <point x="400" y="54" type="curve" smooth="yes"/>
      <point x="400" y="309" type="line"/>
      <point x="399" y="568"/>
      <point x="206" y="367"/>
      <point x="206" y="367" type="curve"/>
      <point x="206" y="403" type="line"/>
      <point x="448" y="590"/>
      <point x="534" y="485"/>
    </contour>
    <contour>
      <point x="225" y="59" type="line" smooth="yes"/>
      <point x="225" y="46"/>
      <point x="229" y="35"/>
      <point x="240" y="27" type="curve" smooth="yes"/>
      <point x="249" y="20"/>
      <point x="259" y="15"/>
      <point x="270" y="12" type="curve" smooth="yes"/>
      <point x="285" y="8" type="line"/>
      <point x="284" y="5"/>
      <point x="284" y="2"/>
      <point x="284" y="0" type="curve"/>
      <point x="203" y="10"/>
      <point x="118" y="10"/>
      <point x="30" y="0" type="curve"/>
      <point x="30" y="8" type="line"/>
      <point x="45" y="12" type="line" smooth="yes"/>
      <point x="55" y="14"/>
      <point x="65" y="19"/>
      <point x="75" y="27" type="curve" smooth="yes"/>
      <point x="85" y="35"/>
      <point x="90" y="44"/>
      <point x="90" y="54" type="curve" smooth="yes"/>
      <point x="90" y="620" type="line" smooth="yes"/>
      <point x="90" y="651"/>
      <point x="83" y="676"/>
      <point x="67" y="695" type="curve" smooth="yes"/>
      <point x="51" y="714"/>
      <point x="30" y="726"/>
      <point x="4" y="733" type="curve"/>
      <point x="4" y="739" type="line"/>
      <point x="57" y="747"/>
      <point x="100" y="756"/>
      <point x="131" y="764" type="curve" smooth="yes"/>
      <point x="162" y="771"/>
      <point x="190" y="783"/>
      <point x="217" y="799" type="curve"/>
      <point x="224" y="799" type="line"/>
    </contour>
  </outline>
</glyph>
<glyph name="l" format="1">
  <advance width="259"/>
  <unicode hex="006C"/>
  <outline>
    <contour>
      <point x="194,5" y="59" type="line" smooth="yes"/>
      <point x="194,5" y="46"/>
      <point x="198,5" y="35"/>
      <point x="209,5" y="27" type="curve" smooth="yes"/>
      <point x="218,5" y="20"/>
      <point x="228,5" y="15"/>
      <point x="239,5" y="12" type="curve" smooth="yes"/>
      <point x="254,5" y="8" type="line"/>
      <point x="254,5" y="0" type="line"/>
      <point x="172,05" y="10,7185"/>
      <point x="88,0594" y="10,7035"/>
      <point x="0,5" y="0" type="curve"/>
      <point x="0,5" y="2"/>
      <point x="0,5" y="5"/>
      <point x="-0,5" y="8" type="curve"/>
      <point x="14,5" y="12" type="line" smooth="yes"/>
      <point x="25,5" y="14"/>
      <point x="35,5" y="19"/>
      <point x="44,5" y="27" type="curve"/>
      <point x="55,5" y="35"/>
      <point x="59,5" y="44"/>
      <point x="59,5" y="54" type="curve" smooth="yes"/>
      <point x="60,5" y="620" type="line" smooth="yes"/>
      <point x="60,5" y="651"/>
      <point x="52,5" y="676"/>
      <point x="36,5" y="695" type="curve" smooth="yes"/>
      <point x="20,5" y="714"/>
      <point x="-0,5" y="726"/>
      <point x="-26,5" y="733" type="curve"/>
      <point x="-26,5" y="739" type="line"/>
      <point x="27,5" y="747"/>
      <point x="69,5" y="756"/>
      <point x="100,5" y="764" type="curve" smooth="yes"/>
      <point x="131,5" y="771"/>
      <point x="160,5" y="783"/>
      <point x="187,5" y="799" type="curve"/>
      <point x="194,5" y="799" type="line"/>
    </contour>
  </outline>
</glyph>
<glyph name="m" format="1">
  <advance width="928"/>
  <unicode hex="006D"/>
  <outline>
    <contour>
      <point x="13" y="439" type="line"/>
      <point x="110" y="454"/>
      <point x="162" y="460"/>
      <point x="227" y="500" type="curve"/>
      <point x="234" y="499" type="line"/>
      <point x="234" y="422,321" type="line"/>
      <point x="427,269" y="564,243"/>
      <point x="515,159" y="511,446"/>
      <point x="537,24" y="416,561" type="curve"/>
      <point x="770,669" y="591,71"/>
      <point x="854" y="488,014"/>
      <point x="854" y="363" type="curve" smooth="yes"/>
      <point x="854" y="59" type="line"/>
      <point x="853" y="46"/>
      <point x="858" y="35"/>
      <point x="869" y="27" type="curve" smooth="yes"/>
      <point x="878" y="20"/>
      <point x="888" y="15"/>
      <point x="899" y="12" type="curve" smooth="yes"/>
      <point x="914" y="8" type="line"/>
      <point x="913" y="5"/>
      <point x="913" y="2"/>
      <point x="913" y="0" type="curve"/>
      <point x="832" y="10"/>
      <point x="748" y="10"/>
      <point x="660" y="0" type="curve"/>
      <point x="660" y="8" type="line"/>
      <point x="675" y="12" type="line" smooth="yes"/>
      <point x="685" y="14"/>
      <point x="695" y="19"/>
      <point x="705" y="27" type="curve" smooth="yes"/>
      <point x="715" y="35"/>
      <point x="720" y="44"/>
      <point x="720" y="54" type="curve" smooth="yes"/>
      <point x="720" y="314" type="line" smooth="yes"/>
      <point x="720" y="527,403"/>
      <point x="588,295" y="428,515"/>
      <point x="541,921" y="387,082" type="curve"/>
      <point x="542,647" y="379,193"/>
      <point x="543" y="371,142"/>
      <point x="543" y="363" type="curve" smooth="yes"/>
      <point x="544" y="59" type="line"/>
      <point x="543" y="46"/>
      <point x="548" y="35"/>
      <point x="559" y="27" type="curve" smooth="yes"/>
      <point x="568" y="20"/>
      <point x="578" y="15"/>
      <point x="589" y="12" type="curve" smooth="yes"/>
      <point x="604" y="8" type="line"/>
      <point x="603" y="5"/>
      <point x="603" y="2"/>
      <point x="603" y="0" type="curve"/>
      <point x="522" y="10"/>
      <point x="437" y="10"/>
      <point x="349" y="0" type="curve"/>
      <point x="349" y="8" type="line"/>
      <point x="364" y="12" type="line" smooth="yes"/>
      <point x="374" y="14"/>
      <point x="384" y="19"/>
      <point x="394" y="27" type="curve" smooth="yes"/>
      <point x="404" y="35"/>
      <point x="409" y="44"/>
      <point x="409" y="54" type="curve" smooth="yes"/>
      <point x="409" y="314" type="line" smooth="yes"/>
      <point x="409" y="522,855"/>
      <point x="282,848" y="432,588"/>
      <point x="234" y="389,806" type="curve"/>
      <point x="234" y="59" type="line"/>
      <point x="233" y="33"/>
      <point x="258" y="17"/>
      <point x="279" y="12" type="curve" smooth="yes"/>
      <point x="294" y="8" type="line"/>
      <point x="294" y="0" type="line"/>
      <point x="212" y="10"/>
      <point x="129" y="10"/>
      <point x="41" y="0" type="curve"/>
      <point x="41" y="2"/>
      <point x="41" y="5"/>
      <point x="40" y="8" type="curve"/>
      <point x="55" y="12" type="line" smooth="yes"/>
      <point x="73" y="16"/>
      <point x="101" y="33"/>
      <point x="100" y="54" type="curve"/>
      <point x="100" y="320" type="line" smooth="yes"/>
      <point x="100" y="383"/>
      <point x="64" y="420"/>
      <point x="13" y="433" type="curve"/>
    </contour>
  </outline>
</glyph>
<glyph name="n" format="1">
  <advance width="617"/>
  <unicode hex="006E"/>
  <outline>
    <contour>
      <point x="543" y="365" type="curve" smooth="yes"/>
      <point x="544" y="59" type="line"/>
      <point x="543" y="46"/>
      <point x="548" y="35"/>
      <point x="559" y="27" type="curve" smooth="yes"/>
      <point x="568" y="20"/>
      <point x="578" y="15"/>
      <point x="589" y="12" type="curve" smooth="yes"/>
      <point x="604" y="8" type="line"/>
      <point x="603" y="5"/>
      <point x="603" y="2"/>
      <point x="603" y="0" type="curve"/>
      <point x="521,999" y="11,3584"/>
      <point x="436,999" y="11,4258"/>
      <point x="349" y="0" type="curve"/>
      <point x="349" y="8" type="line"/>
      <point x="364" y="12" type="line" smooth="yes"/>
      <point x="374" y="14"/>
      <point x="384" y="19"/>
      <point x="394" y="27" type="curve" smooth="yes"/>
      <point x="404" y="35"/>
      <point x="409" y="44"/>
      <point x="409" y="54" type="curve" smooth="yes"/>
      <point x="409" y="316" type="line" smooth="yes"/>
      <point x="409" y="575"/>
      <point x="215" y="374"/>
      <point x="215" y="374" type="curve"/>
      <point x="215" y="410" type="line"/>
      <point x="457" y="597"/>
      <point x="543" y="492"/>
    </contour>
    <contour>
      <point x="13" y="439" type="line"/>
      <point x="110" y="454"/>
      <point x="162" y="460"/>
      <point x="227" y="500" type="curve"/>
      <point x="234" y="499" type="line"/>
      <point x="234" y="59" type="line"/>
      <point x="233" y="33"/>
      <point x="258" y="17"/>
      <point x="279" y="12" type="curve" smooth="yes"/>
      <point x="294" y="8" type="line"/>
      <point x="294" y="0" type="line"/>
      <point x="203,216" y="11,6455"/>
      <point x="104,253" y="9,75879"/>
      <point x="39,001" y="0" type="curve"/>
      <point x="38,9092" y="-0,0527344"/>
      <point x="39" y="8"/>
      <point x="39" y="8" type="curve"/>
      <point x="54" y="12" type="line"/>
      <point x="72" y="16"/>
      <point x="100" y="33"/>
      <point x="99" y="54" type="curve"/>
      <point x="100" y="320" type="line" smooth="yes"/>
      <point x="100" y="383"/>
      <point x="64" y="420"/>
      <point x="13" y="433" type="curve"/>
    </contour>
  </outline>
</glyph>
<glyph name="o" format="1">
  <advance width="556"/>
  <unicode hex="006F"/>
  <outline>
    <contour>
      <point x="277" y="493" type="curve" smooth="yes"/>
      <point x="170,209" y="493"/>
      <point x="172" y="373,878"/>
      <point x="172" y="252" type="curve" smooth="yes"/>
      <point x="172" y="127,969"/>
      <point x="169,678" y="9"/>
      <point x="277" y="9" type="curve" smooth="yes"/>
      <point x="385,293" y="9"/>
      <point x="383" y="127,198"/>
      <point x="383" y="252" type="curve" smooth="yes"/>
      <point x="383" y="374,787"/>
      <point x="384,714" y="493"/>
    </contour>
    <contour>
      <point x="10" y="251" type="curve" smooth="yes"/>
      <point x="10" y="325"/>
      <point x="36" y="386"/>
      <point x="88" y="436" type="curve" smooth="yes"/>
      <point x="140" y="485"/>
      <point x="203" y="510"/>
      <point x="277" y="510" type="curve" smooth="yes"/>
      <point x="351" y="510"/>
      <point x="415" y="485"/>
      <point x="467" y="436" type="curve" smooth="yes"/>
      <point x="519" y="386"/>
      <point x="545" y="325"/>
      <point x="546" y="251" type="curve"/>
      <point x="545" y="175"/>
      <point x="519" y="113"/>
      <point x="467" y="64" type="curve" smooth="yes"/>
      <point x="415" y="14"/>
      <point x="351" y="-10"/>
      <point x="277" y="-10" type="curve" smooth="yes"/>
      <point x="203" y="-10"/>
      <point x="140" y="14"/>
      <point x="88" y="64" type="curve" smooth="yes"/>
      <point x="36" y="113"/>
      <point x="10" y="175"/>
    </contour>
  </outline>
</glyph>
<glyph name="p" format="1">
  <advance width="599"/>
  <unicode hex="0070"/>
  <outline>
    <contour>
      <point x="386" y="510" type="curve" smooth="yes"/>
      <point x="514" y="510"/>
      <point x="570" y="397"/>
      <point x="570" y="267" type="curve" smooth="yes"/>
      <point x="570" y="120"/>
      <point x="467" y="-11"/>
      <point x="321" y="-11" type="curve" smooth="yes"/>
      <point x="280,236" y="-11"/>
      <point x="250,541" y="1,48141"/>
      <point x="231" y="24,3871" type="curve"/>
      <point x="231" y="-101,666" type="line"/>
      <point x="230" y="-127,666"/>
      <point x="255" y="-142,666"/>
      <point x="276" y="-148,666" type="curve" smooth="yes"/>
      <point x="291" y="-152,666" type="line"/>
      <point x="291" y="-160,666" type="line"/>
      <point x="209" y="-150,335"/>
      <point x="124" y="-150,33"/>
      <point x="36" y="-160,666" type="curve"/>
      <point x="36" y="-158,666"/>
      <point x="36" y="-155,666"/>
      <point x="35" y="-152,666" type="curve"/>
      <point x="50" y="-148,666" type="line" smooth="yes"/>
      <point x="68" y="-144,666"/>
      <point x="97" y="-127,666"/>
      <point x="96" y="-106,666" type="curve"/>
      <point x="96" y="320" type="line" smooth="yes"/>
      <point x="96" y="383"/>
      <point x="60" y="420"/>
      <point x="9" y="433" type="curve"/>
      <point x="9" y="439" type="line"/>
      <point x="106" y="454"/>
      <point x="159" y="461"/>
      <point x="224" y="500" type="curve"/>
      <point x="231" y="499" type="line"/>
      <point x="231" y="410,451" type="line"/>
      <point x="260,635" y="475,031"/>
      <point x="313,195" y="510"/>
    </contour>
    <contour>
      <point x="231" y="117,384" type="line"/>
      <point x="235,242" y="54,8542"/>
      <point x="253,31" y="8"/>
      <point x="319" y="8" type="curve" smooth="yes"/>
      <point x="396" y="8"/>
      <point x="418" y="159"/>
      <point x="418" y="224" type="curve" smooth="yes"/>
      <point x="418" y="407"/>
      <point x="324" y="447"/>
      <point x="292" y="447" type="curve" smooth="yes"/>
      <point x="252,585" y="447"/>
      <point x="236,728" y="403,845"/>
      <point x="231" y="357,208" type="curve"/>
      <point x="231" y="243" type="line"/>
    </contour>
  </outline>
</glyph>
<glyph name="q" format="1">
  <advance width="572"/>
  <unicode hex="0071"/>
  <outline>
    <contour>
      <point x="366" y="-55" type="curve"/>
      <point x="366" y="395" type="line"/>
      <point x="370" y="443"/>
      <point x="336" y="483"/>
      <point x="262" y="507" type="curve"/>
      <point x="356" y="507"/>
      <point x="397" y="460"/>
      <point x="397" y="460" type="curve"/>
      <point x="452" y="402"/>
      <point x="496" y="507"/>
      <point x="496" y="507" type="curve"/>
      <point x="503" y="503" type="line"/>
      <point x="503" y="-52" type="line" smooth="yes"/>
      <point x="503" y="-78"/>
      <point x="526" y="-93"/>
      <point x="547" y="-99" type="curve" smooth="yes"/>
      <point x="562" y="-103" type="line"/>
      <point x="562" y="-106"/>
      <point x="561" y="-109"/>
      <point x="561" y="-111" type="curve"/>
      <point x="480" y="-101"/>
      <point x="395" y="-101"/>
      <point x="307" y="-111" type="curve"/>
      <point x="307" y="-103" type="line"/>
      <point x="322" y="-99" type="line" smooth="yes"/>
      <point x="339" y="-95"/>
      <point x="367" y="-75"/>
    </contour>
    <contour>
      <point x="432" y="395" type="move" smooth="yes"/>
    </contour>
    <contour>
      <point x="205" y="-8" type="curve" smooth="yes"/>
      <point x="78" y="-8"/>
      <point x="10" y="101"/>
      <point x="10" y="232" type="curve" smooth="yes"/>
      <point x="10" y="383"/>
      <point x="111" y="507"/>
      <point x="262" y="507" type="curve" smooth="yes"/>
      <point x="346" y="507"/>
      <point x="397" y="448"/>
      <point x="395" y="361" type="curve"/>
      <point x="394" y="242" type="line"/>
      <point x="394" y="73"/>
      <point x="358" y="-8"/>
    </contour>
    <contour>
      <point x="366" y="248" type="curve" smooth="yes"/>
      <point x="366" y="361"/>
      <point x="377" y="483"/>
      <point x="263" y="483" type="curve" smooth="yes"/>
      <point x="191" y="483"/>
      <point x="154" y="413"/>
      <point x="154" y="273" type="curve" smooth="yes"/>
      <point x="154" y="174"/>
      <point x="193" y="44"/>
      <point x="286" y="43" type="curve"/>
      <point x="376" y="41"/>
      <point x="366" y="159"/>
    </contour>
  </outline>
</glyph>
<glyph name="r" format="1">
  <advance width="467"/>
  <unicode hex="0072"/>
  <outline>
    <contour>
      <point x="245" y="59" type="line" smooth="yes"/>
      <point x="245" y="46"/>
      <point x="249" y="35"/>
      <point x="260" y="27" type="curve" smooth="yes"/>
      <point x="269" y="20"/>
      <point x="279" y="15"/>
      <point x="290" y="12" type="curve" smooth="yes"/>
      <point x="305" y="8" type="line"/>
      <point x="305" y="0" type="line"/>
      <point x="222,831" y="10,7295"/>
      <point x="139,832" y="10,7246"/>
      <point x="52" y="0" type="curve"/>
      <point x="52" y="2"/>
      <point x="52" y="5"/>
      <point x="51" y="8" type="curve"/>
      <point x="66" y="12" type="line" smooth="yes"/>
      <point x="77" y="14"/>
      <point x="87" y="19"/>
      <point x="96" y="27" type="curve"/>
      <point x="107" y="35"/>
      <point x="111" y="44"/>
      <point x="111" y="54" type="curve"/>
      <point x="111" y="320" type="line"/>
      <point x="111" y="350"/>
      <point x="103" y="375"/>
      <point x="87" y="394" type="curve" smooth="yes"/>
      <point x="71" y="413"/>
      <point x="50" y="426"/>
      <point x="24" y="433" type="curve"/>
      <point x="24" y="439" type="line"/>
      <point x="78" y="447"/>
      <point x="120" y="455"/>
      <point x="151" y="463" type="curve" smooth="yes"/>
      <point x="182" y="471"/>
      <point x="211" y="483"/>
      <point x="238" y="500" type="curve"/>
      <point x="245" y="499" type="line"/>
    </contour>
    <contour>
      <point x="302" y="414" type="curve" smooth="yes"/>
      <point x="273" y="414"/>
      <point x="240" y="311"/>
      <point x="226" y="291" type="curve"/>
      <point x="232" y="348" type="line"/>
      <point x="268" y="400"/>
      <point x="296" y="510"/>
      <point x="384" y="510" type="curve" smooth="yes"/>
      <point x="431" y="510"/>
      <point x="457" y="474"/>
      <point x="457" y="427" type="curve" smooth="yes"/>
      <point x="457" y="383"/>
      <point x="429" y="346"/>
      <point x="391" y="346" type="curve" smooth="yes"/>
      <point x="356" y="346"/>
      <point x="330" y="365"/>
      <point x="313" y="404" type="curve" smooth="yes"/>
      <point x="311" y="411"/>
      <point x="307" y="414"/>
    </contour>
  </outline>
</glyph>
<glyph name="s" format="1">
  <advance width="425"/>
  <unicode hex="0073"/>
  <outline>
    <contour>
      <point x="124,25" y="436,75" type="curve"/>
      <point x="124,25" y="328"/>
      <point x="396" y="351,333"/>
      <point x="396" y="151,002" type="curve"/>
      <point x="396" y="65"/>
      <point x="311" y="-10"/>
      <point x="213" y="-10" type="curve" smooth="yes"/>
      <point x="123" y="-10"/>
      <point x="43" y="36"/>
      <point x="43" y="36" type="curve"/>
      <point x="46" y="216" type="line"/>
      <point x="54" y="216" type="line"/>
      <point x="74" y="127"/>
      <point x="166" y="8"/>
      <point x="234" y="8" type="curve" smooth="yes"/>
      <point x="293,713" y="8"/>
      <point x="294,047" y="69"/>
      <point x="294,047" y="69" type="curve"/>
      <point x="293,713" y="205"/>
      <point x="25,8333" y="189,5"/>
      <point x="25,833" y="348,167" type="curve" smooth="yes"/>
      <point x="25,8329" y="421,5"/>
      <point x="104,995" y="510"/>
      <point x="213" y="510" type="curve"/>
      <point x="306" y="510"/>
      <point x="339" y="467"/>
      <point x="339" y="467" type="curve"/>
      <point x="354" y="324" type="line"/>
      <point x="346" y="324" type="line"/>
      <point x="282" y="443"/>
      <point x="223,012" y="489"/>
      <point x="181" y="489" type="curve" smooth="yes"/>
      <point x="127,25" y="489"/>
      <point x="124,25" y="436,75"/>
    </contour>
  </outline>
</glyph>
<glyph name="t" format="1">
  <advance width="371"/>
  <unicode hex="0074"/>
  <outline>
    <contour>
      <point x="79" y="139" type="curve" smooth="yes"/>
      <point x="79" y="469" type="line"/>
      <point x="212" y="469" type="line"/>
      <point x="213" y="144" type="line"/>
      <point x="216" y="57"/>
      <point x="244" y="30"/>
      <point x="282" y="30" type="curve" smooth="yes"/>
      <point x="324" y="30"/>
      <point x="354" y="61"/>
      <point x="353" y="62" type="curve" smooth="yes"/>
      <point x="361" y="56" type="line"/>
      <point x="361" y="56"/>
      <point x="318" y="-10"/>
      <point x="220" y="-10" type="curve" smooth="yes"/>
      <point x="86" y="-10"/>
      <point x="79" y="106"/>
    </contour>
    <contour>
      <point x="205" y="668" type="curve"/>
      <point x="215" y="668" type="line"/>
      <point x="215" y="668"/>
      <point x="216" y="554"/>
      <point x="216" y="508" type="curve"/>
      <point x="327" y="508" type="line"/>
      <point x="314" y="462" type="line"/>
      <point x="24" y="462" type="line"/>
      <point x="24" y="471" type="line"/>
      <point x="24" y="471"/>
      <point x="125" y="544"/>
    </contour>
  </outline>
</glyph>
<glyph name="u" format="1">
  <advance width="579"/>
  <unicode hex="0075"/>
  <outline>
    <contour>
      <point x="503" y="500" type="line"/>
      <point x="503" y="109" type="line" smooth="yes"/>
      <point x="503" y="95"/>
      <point x="510" y="81"/>
      <point x="520" y="70" type="curve" smooth="yes"/>
      <point x="530" y="60"/>
      <point x="540" y="52"/>
      <point x="550" y="48" type="curve" smooth="yes"/>
      <point x="560" y="44"/>
      <point x="565" y="43"/>
      <point x="565" y="45" type="curve"/>
      <point x="566" y="43"/>
      <point x="566" y="42"/>
      <point x="566" y="41" type="curve" smooth="yes"/>
      <point x="566" y="40"/>
      <point x="566" y="39"/>
      <point x="565" y="38" type="curve" smooth="yes"/>
      <point x="565" y="37"/>
      <point x="564" y="36"/>
      <point x="564" y="36" type="curve"/>
      <point x="543" y="38"/>
      <point x="510" y="34"/>
      <point x="465" y="24" type="curve" smooth="yes"/>
      <point x="421" y="14"/>
      <point x="390" y="4"/>
      <point x="374" y="-4" type="curve"/>
      <point x="367" y="0" type="line"/>
      <point x="368" y="321" type="line" smooth="yes"/>
      <point x="368,07" y="352"/>
      <point x="360" y="377"/>
      <point x="344" y="396" type="curve" smooth="yes"/>
      <point x="328" y="415"/>
      <point x="307" y="427"/>
      <point x="281" y="434" type="curve"/>
      <point x="281" y="440" type="line"/>
      <point x="335" y="448"/>
      <point x="377" y="457"/>
      <point x="408" y="465" type="curve" smooth="yes"/>
      <point x="439" y="472"/>
      <point x="468" y="484"/>
      <point x="495" y="500" type="curve"/>
    </contour>
    <contour>
      <point x="193" y="500" type="line"/>
      <point x="193" y="185,679" type="line" smooth="yes"/>
      <point x="193" y="-72,3223"/>
      <point x="387" y="127"/>
      <point x="387" y="127" type="curve"/>
      <point x="387" y="91" type="line"/>
      <point x="145" y="-95"/>
      <point x="59,6914" y="8,00098"/>
      <point x="59" y="136" type="curve" smooth="yes"/>
      <point x="58" y="321" type="line" smooth="yes"/>
      <point x="57,8984" y="352"/>
      <point x="50" y="377"/>
      <point x="34" y="396" type="curve" smooth="yes"/>
      <point x="18" y="415"/>
      <point x="-3" y="427"/>
      <point x="-29" y="434" type="curve"/>
      <point x="-29" y="440" type="line"/>
      <point x="25" y="448"/>
      <point x="67" y="457"/>
      <point x="98" y="465" type="curve" smooth="yes"/>
      <point x="129" y="472"/>
      <point x="158" y="484"/>
      <point x="185" y="500" type="curve"/>
    </contour>
  </outline>
</glyph>
<glyph name="v" format="1">
  <advance width="628"/>
  <unicode hex="0076"/>
  <outline>
    <contour>
      <point x="266" y="-3" type="line"/>
      <point x="70" y="446" type="line" smooth="yes"/>
      <point x="61" y="467"/>
      <point x="42" y="483"/>
      <point x="25" y="487" type="curve"/>
      <point x="10" y="492" type="line"/>
      <point x="10" y="500" type="line"/>
      <point x="98" y="489"/>
      <point x="182" y="489"/>
      <point x="264" y="500" type="curve"/>
      <point x="264" y="492" type="line"/>
      <point x="249" y="487" type="line"/>
      <point x="228" y="482"/>
      <point x="227" y="468"/>
      <point x="237" y="442" type="curve" smooth="yes"/>
      <point x="349" y="157" type="line"/>
    </contour>
    <contour>
      <point x="433" y="319" type="curve"/>
      <point x="266" y="-3" type="line"/>
      <point x="259" y="13" type="line"/>
      <point x="413" y="327" type="line" smooth="yes"/>
      <point x="486" y="478"/>
      <point x="363" y="492"/>
      <point x="363" y="492" type="curve"/>
      <point x="363" y="500" type="line"/>
      <point x="451" y="489"/>
      <point x="536" y="489"/>
      <point x="617" y="500" type="curve"/>
      <point x="617" y="497"/>
      <point x="618" y="492"/>
      <point x="618" y="492" type="curve"/>
      <point x="518" y="491"/>
      <point x="433" y="319"/>
    </contour>
  </outline>
</glyph>
<glyph name="w" format="1">
  <advance width="982"/>
  <unicode hex="0077"/>
  <outline>
    <contour>
      <point x="619" y="-3" type="line"/>
      <point x="429" y="446" type="line" smooth="yes"/>
      <point x="420" y="467"/>
      <point x="399" y="484"/>
      <point x="382" y="488" type="curve" smooth="yes"/>
      <point x="363" y="492" type="line"/>
      <point x="363" y="500" type="line"/>
      <point x="451" y="489"/>
      <point x="536" y="489"/>
      <point x="617" y="500" type="curve"/>
      <point x="617" y="497"/>
      <point x="617" y="494"/>
      <point x="618" y="492" type="curve"/>
      <point x="603" y="487" type="line"/>
      <point x="582" y="482"/>
      <point x="580" y="468"/>
      <point x="591" y="442" type="curve" smooth="yes"/>
      <point x="702" y="157" type="line"/>
    </contour>
    <contour>
      <point x="787" y="319" type="curve"/>
      <point x="620" y="-3" type="line"/>
      <point x="613" y="13" type="line"/>
      <point x="767" y="327" type="line" smooth="yes"/>
      <point x="840" y="478"/>
      <point x="717" y="492"/>
      <point x="717" y="492" type="curve" smooth="yes"/>
      <point x="717" y="500" type="line"/>
      <point x="805" y="489"/>
      <point x="890" y="489"/>
      <point x="971" y="500" type="curve"/>
      <point x="971" y="497"/>
      <point x="972" y="492"/>
      <point x="972" y="492" type="curve"/>
      <point x="872" y="491"/>
      <point x="787" y="319"/>
    </contour>
    <contour>
      <point x="266" y="-3" type="line"/>
      <point x="70" y="446" type="line" smooth="yes"/>
      <point x="61" y="467"/>
      <point x="42" y="483"/>
      <point x="25" y="487" type="curve"/>
      <point x="10" y="492" type="line"/>
      <point x="10" y="500" type="line"/>
      <point x="98" y="489"/>
      <point x="182" y="489"/>
      <point x="264" y="500" type="curve"/>
      <point x="264" y="492" type="line"/>
      <point x="249" y="487" type="line"/>
      <point x="228" y="482"/>
      <point x="227" y="468"/>
      <point x="237" y="442" type="curve" smooth="yes"/>
      <point x="349" y="157" type="line"/>
    </contour>
    <contour>
      <point x="433" y="319" type="curve"/>
      <point x="266" y="-3" type="line"/>
      <point x="259" y="13" type="line"/>
      <point x="413" y="327" type="line" smooth="yes"/>
      <point x="486" y="478"/>
      <point x="363" y="492"/>
      <point x="363" y="492" type="curve" smooth="yes"/>
      <point x="363" y="500" type="line"/>
      <point x="451" y="489"/>
      <point x="536" y="489"/>
      <point x="617" y="500" type="curve"/>
      <point x="617" y="497"/>
      <point x="618" y="492"/>
      <point x="618" y="492" type="curve"/>
      <point x="518" y="491"/>
      <point x="433" y="319"/>
    </contour>
  </outline>
</glyph>
<glyph name="x" format="1">
  <advance width="588"/>
  <unicode hex="0078"/>
  <outline>
    <contour>
      <point x="234" y="159" type="line"/>
      <point x="149" y="17"/>
      <point x="253" y="8"/>
      <point x="253" y="8" type="curve" smooth="yes"/>
      <point x="253" y="0" type="line"/>
      <point x="165" y="10"/>
      <point x="80" y="10"/>
      <point x="-1" y="0" type="curve"/>
      <point x="-0" y="2"/>
      <point x="-1" y="8"/>
      <point x="-1" y="8" type="curve"/>
      <point x="98" y="9"/>
      <point x="208" y="159"/>
      <point x="208" y="159" type="curve"/>
      <point x="352" y="343" type="line"/>
      <point x="437" y="466"/>
      <point x="323" y="495"/>
      <point x="323" y="495" type="curve" smooth="yes"/>
      <point x="323" y="503" type="line"/>
      <point x="411" y="492"/>
      <point x="496" y="492"/>
      <point x="577" y="503" type="curve"/>
      <point x="577" y="500"/>
      <point x="578" y="495"/>
      <point x="578" y="495" type="curve"/>
      <point x="485" y="495"/>
      <point x="377" y="343"/>
      <point x="377" y="343" type="curve"/>
    </contour>
    <contour>
      <point x="524" y="59" type="line"/>
      <point x="524" y="59"/>
      <point x="551" y="18"/>
      <point x="573" y="12" type="curve" smooth="yes"/>
      <point x="588" y="8" type="line"/>
      <point x="588" y="0" type="line"/>
      <point x="500" y="10"/>
      <point x="415" y="10"/>
      <point x="334" y="0" type="curve"/>
      <point x="334" y="8" type="line"/>
      <point x="349" y="12" type="line" smooth="yes"/>
      <point x="369" y="17"/>
      <point x="377" y="38"/>
      <point x="361" y="58" type="curve" smooth="yes"/>
      <point x="70" y="446" type="line" smooth="yes"/>
      <point x="55" y="466"/>
      <point x="42" y="483"/>
      <point x="25" y="487" type="curve"/>
      <point x="10" y="492" type="line"/>
      <point x="10" y="500" type="line"/>
      <point x="98" y="489"/>
      <point x="182" y="489"/>
      <point x="264" y="500" type="curve"/>
      <point x="264" y="492" type="line"/>
      <point x="249" y="487" type="line"/>
      <point x="228" y="482"/>
      <point x="219" y="467"/>
      <point x="237" y="442" type="curve" smooth="yes"/>
    </contour>
  </outline>
</glyph>
<glyph name="y" format="1">
  <advance width="564"/>
  <unicode hex="0079"/>
  <outline>
    <contour>
      <point x="249" y="-38" type="line"/>
      <point x="249" y="-38"/>
      <point x="200" y="-138"/>
      <point x="129" y="-138" type="curve" smooth="yes"/>
      <point x="92" y="-138"/>
      <point x="49" y="-112"/>
      <point x="49" y="-55" type="curve" smooth="yes"/>
      <point x="49" y="-8"/>
      <point x="86" y="9"/>
      <point x="114" y="9" type="curve" smooth="yes"/>
      <point x="154" y="9"/>
      <point x="171" y="-30"/>
      <point x="171" y="-30" type="curve"/>
      <point x="198" y="-84"/>
      <point x="220" y="-50"/>
      <point x="240" y="-19" type="curve"/>
      <point x="413" y="327" type="line"/>
      <point x="486" y="478"/>
      <point x="363" y="492"/>
      <point x="363" y="492" type="curve"/>
      <point x="363" y="500" type="line"/>
      <point x="451" y="489"/>
      <point x="536" y="489"/>
      <point x="617" y="500" type="curve"/>
      <point x="617" y="497"/>
      <point x="618" y="492"/>
      <point x="618" y="492" type="curve"/>
      <point x="518" y="491"/>
      <point x="433" y="319"/>
      <point x="433" y="319" type="curve"/>
    </contour>
    <contour>
      <point x="269" y="0" type="line"/>
      <point x="70" y="446" type="line" smooth="yes"/>
      <point x="58,1067" y="472,655"/>
      <point x="32" y="488"/>
      <point x="10" y="492" type="curve"/>
      <point x="10" y="500" type="line"/>
      <point x="98" y="489"/>
      <point x="182" y="489"/>
      <point x="264" y="500" type="curve"/>
      <point x="264" y="492" type="line"/>
      <point x="249" y="487" type="line"/>
      <point x="228,667" y="478,667"/>
      <point x="227" y="468"/>
      <point x="237" y="442" type="curve" smooth="yes"/>
      <point x="349" y="157" type="line"/>
    </contour>
  </outline>
</glyph>
<glyph name="z" format="1">
  <advance width="588"/>
  <unicode hex="007A"/>
  <outline>
    <contour>
      <point x="174" y="21" type="line"/>
      <point x="212,833" y="21" type="line" smooth="yes"/>
      <point x="469,835" y="21"/>
      <point x="529,833" y="264"/>
      <point x="529,833" y="264" type="curve"/>
      <point x="538,833" y="264" type="line"/>
      <point x="493" y="0" type="line"/>
      <point x="173,833" y="0" type="line"/>
    </contour>
    <contour>
      <point x="424,075" y="481,059" type="line"/>
      <point x="372,481" y="481,059" type="line" smooth="yes"/>
      <point x="140,539" y="481,059"/>
      <point x="82,9746" y="261,751"/>
      <point x="82,9746" y="261,751" type="curve"/>
      <point x="75,7539" y="261,751" type="line"/>
      <point x="119,03" y="500,011" type="line"/>
      <point x="423,924" y="500,011" type="line"/>
    </contour>
    <contour>
      <point x="196" y="0" type="line"/>
      <point x="115,291" y="0,352539"/>
      <point x="99,3753" y="-0,345215"/>
      <point x="10" y="0" type="curve"/>
      <point x="10" y="8" type="line"/>
      <point x="25" y="13" type="line"/>
      <point x="42" y="17"/>
      <point x="96,0508" y="97,5947"/>
      <point x="110,5" y="118" type="curve" smooth="yes"/>
      <point x="380,999" y="500" type="line"/>
      <point x="567,673" y="500,34" type="line"/>
      <point x="568" y="493" type="line"/>
      <point x="553" y="489" type="line" smooth="yes"/>
      <point x="531" y="483"/>
      <point x="504" y="442"/>
      <point x="504" y="442" type="curve"/>
    </contour>
  </outline>
</glyph>
<glyph name="braceleft" format="1">
  <advance width="193"/>
  <unicode hex="007B"/>
  <outline>
    <contour>
      <point x="156,752" y="853,623" type="line"/>
      <point x="124,832" y="881,441"/>
      <point x="105,834" y="850"/>
      <point x="95,3359" y="808,939" type="curve" smooth="yes"/>
      <point x="61,9551" y="677,514"/>
      <point x="194,596" y="585,557"/>
      <point x="157,762" y="441,486" type="curve" smooth="yes"/>
      <point x="144,435" y="389,23"/>
      <point x="124,242" y="369,413"/>
      <point x="97,6334" y="361,906" type="curve"/>
      <point x="124,242" y="354,399"/>
      <point x="144,435" y="334,582"/>
      <point x="157,762" y="282,326" type="curve" smooth="yes"/>
      <point x="194,596" y="138,256"/>
      <point x="61,9551" y="46,2988"/>
      <point x="95,3359" y="-85,127" type="curve" smooth="yes"/>
      <point x="105,834" y="-126,188"/>
      <point x="124,832" y="-157,629"/>
      <point x="156,752" y="-129,811" type="curve"/>
      <point x="159,488" y="-140,715" type="line"/>
      <point x="107,146" y="-186,326"/>
      <point x="56,0293" y="-145,693"/>
      <point x="34,8066" y="-62,6875" type="curve" smooth="yes"/>
      <point x="-9,37109" y="110,105"/>
      <point x="129,6" y="189,121"/>
      <point x="97,3359" y="315,32" type="curve" smooth="yes"/>
      <point x="91,3125" y="338,867"/>
      <point x="82,1543" y="357,344"/>
      <point x="38,2617" y="357,344" type="curve"/>
      <point x="38,2617" y="366,469" type="line"/>
      <point x="82,1543" y="366,469"/>
      <point x="91,3125" y="384,945"/>
      <point x="97,3359" y="408,492" type="curve" smooth="yes"/>
      <point x="129,6" y="534,691"/>
      <point x="-9,37109" y="613,707"/>
      <point x="34,8066" y="786,5" type="curve" smooth="yes"/>
      <point x="56,0293" y="869,506"/>
      <point x="107,146" y="910,139"/>
      <point x="159,488" y="864,527" type="curve"/>
    </contour>
  </outline>
</glyph>
<glyph name="bar" format="1">
  <advance width="84"/>
  <unicode hex="007C"/>
  <outline>
    <contour>
      <point x="57,7021" y="-117,917" type="line"/>
      <point x="58,2764" y="861,271" type="line"/>
      <point x="29,8203" y="861,725" type="line"/>
      <point x="30,3906" y="-117,959" type="line"/>
    </contour>
  </outline>
</glyph>
<glyph name="braceright" format="1">
  <advance width="193"/>
  <unicode hex="007D"/>
  <outline>
    <contour>
      <point x="37,543" y="-129,811" type="curve"/>
      <point x="34,8066" y="-140,715" type="line"/>
      <point x="87,1484" y="-186,326"/>
      <point x="138,266" y="-145,693"/>
      <point x="159,488" y="-62,6875" type="curve"/>
      <point x="203,666" y="110,105"/>
      <point x="64,6953" y="189,121"/>
      <point x="96,959" y="315,32" type="curve"/>
      <point x="102,982" y="338,867"/>
      <point x="112,141" y="357,344"/>
      <point x="156,033" y="357,344" type="curve"/>
      <point x="156,033" y="366,469" type="line"/>
      <point x="98,959" y="366,469"/>
      <point x="58,4551" y="368,286"/>
      <point x="36,5332" y="282,326" type="curve"/>
      <point x="-0,300781" y="138,256"/>
      <point x="132,34" y="46,2988"/>
      <point x="98,959" y="-85,127" type="curve"/>
      <point x="88,4609" y="-126,188"/>
      <point x="69,4629" y="-157,629"/>
    </contour>
    <contour>
      <point x="37,543" y="853,623" type="line"/>
      <point x="69,4629" y="881,441"/>
      <point x="88,4609" y="850"/>
      <point x="98,959" y="808,939" type="curve"/>
      <point x="132,34" y="677,514"/>
      <point x="-0,300781" y="585,557"/>
      <point x="36,5332" y="441,486" type="curve"/>
      <point x="58,4551" y="355,526"/>
      <point x="98,959" y="357,344"/>
      <point x="156,033" y="357,344" type="curve"/>
      <point x="156,033" y="366,469" type="line"/>
      <point x="112,141" y="366,469"/>
      <point x="102,982" y="384,945"/>
      <point x="96,959" y="408,492" type="curve"/>
      <point x="64,6953" y="534,691"/>
      <point x="203,666" y="613,707"/>
      <point x="159,488" y="786,5" type="curve"/>
      <point x="138,266" y="869,506"/>
      <point x="87,1484" y="910,139"/>
      <point x="34,8066" y="864,527" type="curve"/>
    </contour>
  </outline>
</glyph>
<glyph name="asciitilde" format="1">
  <advance width="613"/>
  <unicode hex="007E"/>
  <outline>
    <contour>
      <point x="419,527" y="653,271" type="line"/>
      <point x="436,086" y="618,195"/>
      <point x="417,37" y="597,319"/>
      <point x="392,93" y="585,782" type="curve" smooth="yes"/>
      <point x="314,701" y="549,099"/>
      <point x="259,964" y="694,858"/>
      <point x="174,207" y="654,381" type="curve" smooth="yes"/>
      <point x="123,171" y="630,291"/>
      <point x="100,369" y="573,382"/>
      <point x="124,122" y="523,062" type="curve"/>
      <point x="129,554" y="527,384" type="line"/>
      <point x="111,661" y="565,001"/>
      <point x="140,552" y="581,361"/>
      <point x="154,569" y="587,979" type="curve" smooth="yes"/>
      <point x="229,687" y="623,434"/>
      <point x="276,72" y="470,718"/>
      <point x="379,573" y="519,265" type="curve" smooth="yes"/>
      <point x="428,982" y="542,587"/>
      <point x="453,167" y="598,76"/>
      <point x="426,018" y="656,279" type="curve"/>
    </contour>
  </outline>
</glyph>
<glyph name="uni0080" format="1">
  <advance width="213"/>
  <unicode hex="0080"/>
  <outline>
    <contour>
      <point x="117,407" y="595,949" type="curve"/>
      <point x="105,179" y="610,236" type="line"/>
      <point x="128,52" y="666,921"/>
      <point x="96,5674" y="701,66"/>
      <point x="60,6455" y="716,452" type="curve"/>
      <point x="9,56543" y="737,485"/>
      <point x="19,1943" y="821,402"/>
      <point x="72,9033" y="834,914" type="curve" smooth="yes"/>
      <point x="101,577" y="842,127"/>
      <point x="141,349" y="831,294"/>
      <point x="152,669" y="784,749" type="curve" smooth="yes"/>
      <point x="168,233" y="720,773"/>
      <point x="148,347" y="671,088"/>
    </contour>
  </outline>
</glyph>
<glyph name="exclamdown" format="1">
  <advance width="282"/>
  <unicode hex="00A1"/>
  <outline>
    <contour>
      <point x="58" y="726,999" type="curve" smooth="yes"/>
      <point x="58" y="679,999"/>
      <point x="92" y="639,999"/>
      <point x="140" y="639,999" type="curve" smooth="yes"/>
      <point x="188" y="639,999"/>
      <point x="224" y="679,999"/>
      <point x="224" y="726,999" type="curve" smooth="yes"/>
      <point x="224" y="775"/>
      <point x="188" y="815"/>
      <point x="140" y="815" type="curve" smooth="yes"/>
      <point x="92" y="815"/>
      <point x="58" y="775"/>
    </contour>
    <contour>
      <point x="153" y="608" type="curve"/>
      <point x="132" y="608" type="line"/>
      <point x="132" y="608"/>
      <point x="58" y="249"/>
      <point x="58" y="85" type="curve" smooth="yes"/>
      <point x="58" y="40"/>
      <point x="79" y="-15"/>
      <point x="141" y="-15" type="curve" smooth="yes"/>
      <point x="203" y="-15"/>
      <point x="224" y="40"/>
      <point x="224" y="85" type="curve" smooth="yes"/>
      <point x="224" y="249"/>
      <point x="146" y="600"/>
    </contour>
  </outline>
</glyph>
<glyph name="dieresis" format="1">
  <advance width="543"/>
  <unicode hex="00A8"/>
  <outline>
    <contour>
      <point x="144,417" y="641,726" type="curve" smooth="yes"/>
      <point x="144,417" y="671,622"/>
      <point x="166,173" y="699,12"/>
      <point x="196,888" y="697,396" type="curve"/>
      <point x="227,604" y="697,396"/>
      <point x="250,641" y="671,801"/>
      <point x="250,641" y="641,726" type="curve" smooth="yes"/>
      <point x="250,641" y="611,009"/>
      <point x="227,604" y="585,413"/>
      <point x="196,888" y="585,413" type="curve" smooth="yes"/>
      <point x="166,173" y="585,413"/>
      <point x="144,417" y="611,009"/>
    </contour>
    <contour>
      <point x="311,276" y="641,726" type="curve" smooth="yes"/>
      <point x="311,276" y="671,622"/>
      <point x="333,033" y="699,12"/>
      <point x="363,748" y="697,396" type="curve"/>
      <point x="394,464" y="697,396"/>
      <point x="417,5" y="671,801"/>
      <point x="417,5" y="641,726" type="curve" smooth="yes"/>
      <point x="417,5" y="611,009"/>
      <point x="394,464" y="585,413"/>
      <point x="363,748" y="585,413" type="curve" smooth="yes"/>
      <point x="333,033" y="585,413"/>
      <point x="311,276" y="611,009"/>
    </contour>
  </outline>
</glyph>
<glyph name="guillemotleft" format="1">
  <advance width="479"/>
  <unicode hex="00AB"/>
  <outline>
    <contour>
      <point x="60,082" y="237,5" type="line"/>
      <point x="236,415" y="410,791" type="line"/>
      <point x="236,415" y="381,792" type="line"/>
      <point x="205,371" y="332,229"/>
      <point x="188,014" y="271,649"/>
      <point x="169,497" y="237,854" type="curve"/>
      <point x="188,014" y="204,058"/>
      <point x="205,371" y="143,479"/>
      <point x="236,415" y="93,916" type="curve"/>
      <point x="236,415" y="64,917" type="line"/>
    </contour>
    <contour>
      <point x="242,667" y="237,5" type="line"/>
      <point x="419" y="410,791" type="line"/>
      <point x="419" y="381,792" type="line"/>
      <point x="387,956" y="332,229"/>
      <point x="370,599" y="271,649"/>
      <point x="352,082" y="237,854" type="curve"/>
      <point x="370,598" y="204,058"/>
      <point x="387,955" y="143,479"/>
      <point x="419" y="93,916" type="curve"/>
      <point x="419" y="64,917" type="line"/>
    </contour>
  </outline>
</glyph>
<glyph name="acute" format="1">
  <advance width="516"/>
  <unicode hex="00B4"/>
  <outline>
    <contour>
      <point x="134,459" y="565,82" type="line"/>
      <point x="218,06" y="565,82"/>
      <point x="273,115" y="566,364"/>
      <point x="327,879" y="606,232" type="curve" smooth="yes"/>
      <point x="367,722" y="635,236"/>
      <point x="362,448" y="677,312"/>
      <point x="344,355" y="701,764" type="curve" smooth="yes"/>
      <point x="310,461" y="747,565"/>
      <point x="226,859" y="723,854"/>
      <point x="226,859" y="667,021" type="curve"/>
      <point x="226,859" y="627,054"/>
      <point x="206,326" y="583,05"/>
      <point x="143,259" y="583,05" type="curve"/>
    </contour>
  </outline>
</glyph>
<glyph name="cedilla" format="1">
  <advance width="532"/>
  <unicode hex="00B8"/>
  <outline>
    <contour>
      <point x="322,498" y="12,8125" type="curve"/>
      <point x="308,542" y="5,68457" type="line"/>
      <point x="308,542" y="-45,4004"/>
      <point x="272,898" y="-62,0312"/>
      <point x="240,524" y="-62,0312" type="curve"/>
      <point x="194,49" y="-62,0312"/>
      <point x="175,283" y="-129,749"/>
      <point x="212,383" y="-157,203" type="curve" smooth="yes"/>
      <point x="232,188" y="-171,859"/>
      <point x="272,33" y="-174,407"/>
      <point x="294,764" y="-143,857" type="curve" smooth="yes"/>
      <point x="324,123" y="-103,876"/>
      <point x="322,498" y="-54,9033"/>
    </contour>
  </outline>
</glyph>
<glyph name="guillemotright" format="1">
  <advance width="479"/>
  <unicode hex="00BB"/>
  <outline>
    <contour>
      <point x="419" y="237,5" type="line"/>
      <point x="242,667" y="410,791" type="line"/>
      <point x="242,667" y="381,792" type="line"/>
      <point x="273,711" y="332,229"/>
      <point x="291,068" y="271,649"/>
      <point x="309,585" y="237,854" type="curve"/>
      <point x="291,068" y="204,058"/>
      <point x="273,711" y="143,479"/>
      <point x="242,667" y="93,916" type="curve"/>
      <point x="242,667" y="64,917" type="line"/>
    </contour>
    <contour>
      <point x="236,415" y="237,5" type="line"/>
      <point x="60,082" y="410,791" type="line"/>
      <point x="60,082" y="381,792" type="line"/>
      <point x="91,126" y="332,229"/>
      <point x="108,483" y="271,649"/>
      <point x="127" y="237,854" type="curve"/>
      <point x="108,484" y="204,058"/>
      <point x="91,127" y="143,479"/>
      <point x="60,082" y="93,916" type="curve"/>
      <point x="60,082" y="64,917" type="line"/>
    </contour>
  </outline>
</glyph>
<glyph name="AE" format="1">
  <advance width="1284"/>
  <unicode hex="00C6"/>
  <outline>
    <contour>
      <point x="786,696" y="793" type="curve" smooth="yes"/>
      <point x="759,506" y="789,858"/>
      <point x="730,097" y="786,799"/>
      <point x="695,659" y="786,561" type="curve" smooth="yes"/>
      <point x="631,7" y="786,535"/>
      <point x="567,765" y="791,08"/>
      <point x="521,159" y="800,5" type="curve"/>
      <point x="521,159" y="792,5" type="line"/>
      <point x="521,159" y="792,5"/>
      <point x="548,698" y="788,365"/>
      <point x="573,804" y="774,479" type="curve"/>
      <point x="209,659" y="178,998" type="line"/>
      <point x="209,659" y="178,998"/>
      <point x="121,493" y="11,001"/>
      <point x="9,65918" y="8,25098" type="curve"/>
      <point x="9,6123" y="0" type="line"/>
      <point x="103,604" y="11,7978"/>
      <point x="231,659" y="9,58594"/>
      <point x="323,157" y="0" type="curve"/>
      <point x="323,157" y="8" type="line"/>
      <point x="323,157" y="8"/>
      <point x="167,533" y="26,7363"/>
      <point x="225,659" y="170,998" type="curve"/>
      <point x="270,807" y="246,001" type="line"/>
      <point x="612,297" y="246,001" type="line"/>
      <point x="611,659" y="85" type="line" smooth="yes"/>
      <point x="611,509" y="22"/>
      <point x="519,659" y="8"/>
      <point x="519,659" y="8" type="curve"/>
      <point x="519,659" y="0" type="line"/>
      <point x="872,159" y="0" type="line" smooth="yes"/>
      <point x="1211,66" y="0" type="line"/>
      <point x="1254" y="282,993" type="line"/>
      <point x="1244,66" y="282,993" type="line"/>
      <point x="1244,66" y="282,993"/>
      <point x="1208,66" y="16,9854"/>
      <point x="872,159" y="16,9854" type="curve" smooth="yes"/>
      <point x="846,659" y="16,9854"/>
      <point x="786,376" y="20,7432"/>
      <point x="786,659" y="85" type="curve" smooth="yes"/>
      <point x="787,09" y="389,912" type="line"/>
      <point x="816,659" y="389,912" type="line"/>
      <point x="816,659" y="389,912"/>
      <point x="1023,66" y="389,911"/>
      <point x="1023,66" y="202,911" type="curve"/>
      <point x="1032,99" y="202,911" type="line"/>
      <point x="1032,99" y="593" type="line"/>
      <point x="1023,66" y="593" type="line"/>
      <point x="1023,66" y="406"/>
      <point x="816,659" y="406"/>
      <point x="816,659" y="406" type="curve"/>
      <point x="787,112" y="406" type="line"/>
      <point x="787,635" y="776,061" type="line"/>
      <point x="792,514" y="777,374"/>
      <point x="816,194" y="782,886"/>
      <point x="870,04" y="782,886" type="curve" smooth="yes"/>
      <point x="1083,98" y="782,886"/>
      <point x="1202,66" y="568"/>
      <point x="1202,66" y="568" type="curve"/>
      <point x="1212,06" y="568" type="line"/>
      <point x="1134,83" y="771,5" type="line"/>
      <point x="1134,83" y="771,5"/>
      <point x="1003,16" y="799,875"/>
      <point x="870,04" y="799,875" type="curve"/>
      <point x="831,083" y="798,72"/>
      <point x="820,609" y="796,685"/>
      <point x="787,659" y="793,104" type="curve"/>
      <point x="787,659" y="793,112" type="line" smooth="yes"/>
      <point x="787,338" y="793,075"/>
      <point x="787,017" y="793,038"/>
    </contour>
    <contour>
      <point x="584,778" y="767,596" type="line"/>
      <point x="601,163" y="755,904"/>
      <point x="614,253" y="739,156"/>
      <point x="614,159" y="715,5" type="curve" smooth="yes"/>
      <point x="612,361" y="262,001" type="line"/>
      <point x="280,438" y="262,001" type="line"/>
    </contour>
  </outline>
</glyph>
<glyph name="ae" format="1">
  <advance width="813"/>
  <unicode hex="00E6"/>
  <outline>
    <contour>
      <point x="440" y="387" type="curve"/>
      <point x="303" y="249" type="line"/>
      <point x="306" y="430" type="line" smooth="yes"/>
      <point x="306,547" y="462,995"/>
      <point x="301" y="488"/>
      <point x="267" y="489" type="curve"/>
      <point x="212" y="489"/>
      <point x="172" y="465"/>
      <point x="172" y="410" type="curve"/>
      <point x="173" y="363" type="line"/>
      <point x="173" y="302"/>
      <point x="146" y="252"/>
      <point x="89" y="253" type="curve" smooth="yes"/>
      <point x="54" y="253"/>
      <point x="23" y="277"/>
      <point x="24" y="311" type="curve" smooth="yes"/>
      <point x="24" y="334"/>
      <point x="37" y="361"/>
      <point x="63" y="393" type="curve" smooth="yes"/>
      <point x="108" y="446"/>
      <point x="201" y="510"/>
      <point x="300" y="510" type="curve" smooth="yes"/>
      <point x="371" y="510"/>
      <point x="415" y="482"/>
      <point x="433" y="430" type="curve" smooth="yes"/>
      <point x="437" y="416"/>
      <point x="440" y="402"/>
    </contour>
    <contour>
      <point x="303" y="249" type="curve" smooth="yes"/>
      <point x="303" y="396"/>
      <point x="416" y="510"/>
      <point x="563" y="510" type="curve" smooth="yes"/>
      <point x="695" y="510"/>
      <point x="780" y="384"/>
      <point x="780" y="288" type="curve"/>
      <point x="646" y="288" type="line"/>
      <point x="646" y="384"/>
      <point x="643" y="493"/>
      <point x="563" y="493" type="curve" smooth="yes"/>
      <point x="381" y="493"/>
      <point x="405" y="89"/>
      <point x="629" y="89" type="curve" smooth="yes"/>
      <point x="666" y="89"/>
      <point x="725" y="93"/>
      <point x="769" y="163" type="curve"/>
      <point x="779" y="162" type="line"/>
      <point x="779" y="158,917"/>
      <point x="735" y="-11"/>
      <point x="562" y="-11" type="curve"/>
      <point x="414" y="-11"/>
      <point x="303" y="100"/>
    </contour>
    <contour>
      <point x="780" y="288" type="line"/>
      <point x="420" y="288" type="line"/>
      <point x="412" y="306" type="line"/>
      <point x="777" y="306" type="line"/>
    </contour>
    <contour>
      <point x="337" y="135,5" type="line"/>
      <point x="337" y="51,5"/>
      <point x="219" y="-10"/>
      <point x="142" y="-10" type="curve" smooth="yes"/>
      <point x="82" y="-10"/>
      <point x="26" y="32"/>
      <point x="26" y="91" type="curve"/>
      <point x="24" y="175"/>
      <point x="117" y="213"/>
      <point x="176" y="240" type="curve" smooth="yes"/>
      <point x="222" y="261"/>
      <point x="286" y="284"/>
      <point x="335" y="304" type="curve"/>
      <point x="337" y="292"/>
      <point x="338" y="286"/>
      <point x="339" y="285" type="curve"/>
      <point x="245" y="253"/>
      <point x="160" y="236"/>
      <point x="164" y="125" type="curve" smooth="yes"/>
      <point x="165" y="81"/>
      <point x="173" y="35"/>
      <point x="227" y="35" type="curve" smooth="yes"/>
      <point x="262" y="35"/>
      <point x="325" y="88"/>
      <point x="325" y="147" type="curve"/>
    </contour>
  </outline>
</glyph>
<glyph name="igrave" format="1">
  <advance width="301"/>
  <unicode hex="00EC"/>
  <outline>
    <component base="grave" xOffset="-98,3555" yOffset="4,17969"/>
    <contour>
      <point x="10" y="439" type="line"/>
      <point x="107" y="454"/>
      <point x="159" y="461"/>
      <point x="224" y="501" type="curve"/>
      <point x="231" y="500" type="line"/>
      <point x="231" y="59" type="line"/>
      <point x="230" y="33"/>
      <point x="255" y="17"/>
      <point x="276" y="12" type="curve" smooth="yes"/>
      <point x="291" y="8" type="line"/>
      <point x="291" y="0" type="line"/>
      <point x="205,195" y="10,7272"/>
      <point x="121,135" y="10,7226"/>
      <point x="37" y="0" type="curve"/>
      <point x="37" y="2"/>
      <point x="37" y="5"/>
      <point x="36" y="8" type="curve"/>
      <point x="51" y="12" type="line" smooth="yes"/>
      <point x="69" y="16"/>
      <point x="97" y="33"/>
      <point x="96" y="54" type="curve"/>
      <point x="97" y="320" type="line" smooth="yes"/>
      <point x="97" y="383"/>
      <point x="61" y="420"/>
      <point x="10" y="433" type="curve"/>
    </contour>
  </outline>
</glyph>
<glyph name="divide" format="1">
  <advance width="540"/>
  <unicode hex="00F7"/>
  <outline>
    <contour>
      <point x="65" y="241" type="line"/>
      <point x="65" y="317" type="line"/>
      <point x="471" y="317" type="line"/>
      <point x="471" y="241" type="line"/>
    </contour>
    <contour>
      <point x="216,88" y="424,315" type="curve" smooth="yes"/>
      <point x="216,88" y="454,395"/>
      <point x="238,64" y="479,995"/>
      <point x="269,36" y="479,995" type="curve" smooth="yes"/>
      <point x="300,08" y="479,995"/>
      <point x="323,12" y="454,395"/>
      <point x="323,12" y="424,315" type="curve" smooth="yes"/>
      <point x="323,12" y="393,594"/>
      <point x="300,08" y="367,994"/>
      <point x="269,36" y="367,994" type="curve" smooth="yes"/>
      <point x="238,64" y="367,994"/>
      <point x="216,88" y="393,594"/>
    </contour>
    <contour>
      <point x="216,88" y="135,82" type="curve" smooth="yes"/>
      <point x="216,88" y="165,901"/>
      <point x="238,64" y="191,501"/>
      <point x="269,36" y="191,501" type="curve" smooth="yes"/>
      <point x="300,08" y="191,501"/>
      <point x="323,12" y="165,901"/>
      <point x="323,12" y="135,82" type="curve" smooth="yes"/>
      <point x="323,12" y="105,101"/>
      <point x="300,08" y="79,5"/>
      <point x="269,36" y="79,5" type="curve" smooth="yes"/>
      <point x="238,64" y="79,5"/>
      <point x="216,88" y="105,101"/>
    </contour>
  </outline>
</glyph>
<glyph name="OE" format="1">
  <advance width="1245"/>
  <unicode hex="0152"/>
  <outline>
    <contour>
      <point x="832,5" y="16,9854" type="curve"/>
      <point x="775" y="16,9854"/>
      <point x="744,327" y="27,8154"/>
      <point x="744,327" y="27,8154" type="curve"/>
      <point x="749,125" y="7,35938" type="line" smooth="yes"/>
      <point x="782,838" y="3,71289"/>
      <point x="832,5" y="0"/>
      <point x="832,5" y="0" type="curve"/>
      <point x="1172" y="0" type="line"/>
      <point x="1214,34" y="282,993" type="line"/>
      <point x="1205" y="283" type="line"/>
      <point x="1205" y="283"/>
      <point x="1169" y="16,9854"/>
    </contour>
    <contour>
      <point x="480" y="-10" type="line"/>
      <point x="666,5" y="35,5"/>
      <point x="714,771" y="0"/>
      <point x="832,5" y="0" type="curve"/>
      <point x="832,5" y="16,9854" type="line"/>
      <point x="807" y="16,9854"/>
      <point x="746,717" y="20,7432"/>
      <point x="747" y="85" type="curve"/>
      <point x="747" y="793,112" type="line"/>
      <point x="719,541" y="789,931"/>
      <point x="688,845" y="786,802"/>
      <point x="654" y="786,561" type="curve"/>
      <point x="590,041" y="786,535"/>
      <point x="525" y="790,75"/>
      <point x="482,25" y="803" type="curve"/>
      <point x="482,25" y="795" type="line"/>
      <point x="482,25" y="795"/>
      <point x="571,75" y="778,5"/>
      <point x="571,5" y="715,5" type="curve" smooth="yes"/>
      <point x="572" y="85" type="line" smooth="yes"/>
      <point x="572,05" y="22"/>
      <point x="480" y="-2"/>
      <point x="480" y="-2" type="curve"/>
    </contour>
    <contour>
      <point x="718" y="406" type="line"/>
      <point x="718" y="389,912" type="line"/>
      <point x="777" y="389,912" type="line"/>
      <point x="777" y="389,912"/>
      <point x="984" y="389,912"/>
      <point x="984" y="202,912" type="curve"/>
      <point x="993,333" y="202,911" type="line"/>
      <point x="993,333" y="593,001" type="line"/>
      <point x="984" y="593" type="line"/>
      <point x="984" y="406"/>
      <point x="777" y="406"/>
      <point x="777" y="406" type="curve"/>
    </contour>
    <contour>
      <point x="828,381" y="799,875" type="curve"/>
      <point x="789,047" y="798,709"/>
      <point x="778,75" y="796,646"/>
      <point x="745,037" y="793" type="curve" smooth="yes"/>
      <point x="745,005" y="775,782" type="line"/>
      <point x="745,005" y="775,782"/>
      <point x="767,256" y="782,886"/>
      <point x="828,386" y="782,886" type="curve" smooth="yes"/>
      <point x="1042,33" y="782,886"/>
      <point x="1161" y="568,001"/>
      <point x="1161" y="568,001" type="curve"/>
      <point x="1170,4" y="568" type="line"/>
      <point x="1093,17" y="771,5" type="line"/>
      <point x="1093,17" y="771,5"/>
      <point x="961,5" y="799,875"/>
    </contour>
    <contour>
      <point x="399,595" y="-15" type="curve"/>
      <point x="595,503" y="-23,585"/>
      <point x="746,672" y="117,889"/>
      <point x="746,67" y="398,001" type="curve"/>
      <point x="746,67" y="696,001"/>
      <point x="545,582" y="814,989"/>
      <point x="399,928" y="814,989" type="curve"/>
      <point x="254,272" y="814,989"/>
      <point x="28" y="692"/>
      <point x="28" y="394" type="curve"/>
      <point x="28" y="113"/>
      <point x="203,432" y="-15"/>
    </contour>
    <contour>
      <point x="399,928" y="798,004" type="curve"/>
      <point x="506,438" y="796,09"/>
      <point x="570,892" y="709,14"/>
      <point x="570,892" y="387,14" type="curve"/>
      <point x="570,892" y="88,1396"/>
      <point x="481,003" y="1,95117"/>
      <point x="399,468" y="1,95117" type="curve"/>
      <point x="317,932" y="1,95117"/>
      <point x="226" y="91"/>
      <point x="226" y="390" type="curve"/>
      <point x="226" y="712"/>
      <point x="293,416" y="796,09"/>
    </contour>
  </outline>
</glyph>
<glyph name="quoteright" format="1">
  <advance width="199"/>
  <unicode hex="2019"/>
  <outline>
    <contour>
      <point x="79,3545" y="577,735" type="curve"/>
      <point x="71,2783" y="594,719" type="line"/>
      <point x="122,99" y="683,996"/>
      <point x="78,9901" y="691,996"/>
      <point x="56" y="708,875" type="curve" smooth="yes"/>
      <point x="12,1768" y="742,506"/>
      <point x="43,3662" y="821,004"/>
      <point x="98,7412" y="820,035" type="curve" smooth="yes"/>
      <point x="128,304" y="819,518"/>
      <point x="163,871" y="798,683"/>
      <point x="162,655" y="750,796" type="curve" smooth="yes"/>
      <point x="160,988" y="684,976"/>
      <point x="128,828" y="642,199"/>
    </contour>
  </outline>
</glyph>
<glyph name="quotedblleft" format="1">
  <advance width="300"/>
  <unicode hex="201C"/>
  <outline>
    <contour>
      <point x="94,8057" y="806,797" type="curve"/>
      <point x="101,924" y="787,538" type="line"/>
      <point x="65,3779" y="742,199"/>
      <point x="84,6895" y="694,409"/>
      <point x="113,034" y="664,41" type="curve"/>
      <point x="153,34" y="621,753"/>
      <point x="121,712" y="543,854"/>
      <point x="69,5898" y="553,865" type="curve" smooth="yes"/>
      <point x="41,7627" y="559,211"/>
      <point x="8,86426" y="587,003"/>
      <point x="11,3848" y="637,416" type="curve" smooth="yes"/>
      <point x="14,8447" y="706,709"/>
      <point x="46,3613" y="746,697"/>
    </contour>
    <contour>
      <point x="240,969" y="805,759" type="curve"/>
      <point x="248,088" y="786,5" type="line"/>
      <point x="211,541" y="741,161"/>
      <point x="230,854" y="693,371"/>
      <point x="259,197" y="663,372" type="curve"/>
      <point x="299,504" y="620,715"/>
      <point x="267,875" y="542,814"/>
      <point x="215,754" y="552,827" type="curve" smooth="yes"/>
      <point x="187,926" y="558,173"/>
      <point x="155,027" y="585,965"/>
      <point x="157,549" y="636,377" type="curve" smooth="yes"/>
      <point x="161,008" y="705,671"/>
      <point x="192,525" y="745,659"/>
    </contour>
  </outline>
</glyph>
<glyph name="quotedblright" format="1">
  <advance width="300"/>
  <unicode hex="201D"/>
  <outline>
    <contour>
      <point x="196,776" y="552,827" type="curve"/>
      <point x="189,658" y="572,086" type="line"/>
      <point x="226,204" y="617,425"/>
      <point x="206,893" y="665,215"/>
      <point x="178,548" y="695,214" type="curve"/>
      <point x="138,242" y="737,871"/>
      <point x="169,87" y="815,771"/>
      <point x="221,992" y="805,759" type="curve" smooth="yes"/>
      <point x="249,819" y="800,413"/>
      <point x="282,718" y="772,621"/>
      <point x="280,197" y="722,208" type="curve" smooth="yes"/>
      <point x="276,737" y="652,915"/>
      <point x="245,221" y="612,927"/>
    </contour>
    <contour>
      <point x="50,6133" y="553,865" type="curve"/>
      <point x="43,4941" y="573,124" type="line"/>
      <point x="80,041" y="618,463"/>
      <point x="60,7285" y="666,253"/>
      <point x="32,3848" y="696,252" type="curve"/>
      <point x="-7,92188" y="738,909"/>
      <point x="23,707" y="816,81"/>
      <point x="75,8281" y="806,797" type="curve" smooth="yes"/>
      <point x="103,656" y="801,451"/>
      <point x="136,555" y="773,659"/>
      <point x="134,033" y="723,247" type="curve" smooth="yes"/>
      <point x="130,574" y="653,953"/>
      <point x="99,0566" y="613,965"/>
    </contour>
  </outline>
</glyph>
<glyph name="uniFB00" format="1">
  <advance width="613"/>
  <unicode hex="FB00"/>
  <outline>
    <contour>
      <point x="548" y="434" type="line"/>
      <point x="561" y="480" type="line"/>
      <point x="465" y="480" type="line"/>
      <point x="465" y="542"/>
      <point x="429" y="628"/>
      <point x="429" y="720" type="curve"/>
      <point x="433,398" y="764,625"/>
      <point x="457,333" y="776,661"/>
      <point x="468,347" y="776,661" type="curve" smooth="yes"/>
      <point x="502,667" y="776,661"/>
      <point x="482" y="726,667"/>
      <point x="482" y="696" type="curve" smooth="yes"/>
      <point x="482" y="650"/>
      <point x="513" y="637"/>
      <point x="546" y="637" type="curve" smooth="yes"/>
      <point x="577" y="637"/>
      <point x="602" y="662"/>
      <point x="603" y="701" type="curve"/>
      <point x="603" y="744"/>
      <point x="565" y="807"/>
      <point x="507" y="807" type="curve" smooth="yes"/>
      <point x="447,662" y="807"/>
      <point x="411,748" y="736,725"/>
      <point x="375,997" y="661,332" type="curve"/>
      <point x="375,68" y="722,726"/>
      <point x="353,313" y="807"/>
      <point x="258,5" y="807" type="curve" smooth="yes"/>
      <point x="130,5" y="807"/>
      <point x="105,5" y="555"/>
      <point x="24,5" y="443" type="curve"/>
      <point x="24,5" y="434" type="line"/>
      <point x="80,5" y="434" type="line"/>
      <point x="80,5" y="54" type="line" smooth="yes"/>
      <point x="80,5" y="44"/>
      <point x="75,5" y="35"/>
      <point x="65,5" y="27" type="curve" smooth="yes"/>
      <point x="55,5" y="19"/>
      <point x="45,5" y="14"/>
      <point x="35,5" y="12" type="curve" smooth="yes"/>
      <point x="20,5" y="8" type="line"/>
      <point x="20,5" y="0" type="line"/>
      <point x="102,818" y="10,4665"/>
      <point x="184,82" y="10,7269"/>
      <point x="269" y="0,671289" type="curve"/>
      <point x="269" y="0" type="line" smooth="yes"/>
      <point x="269,908" y="0,115411"/>
      <point x="270,815" y="0,22958"/>
      <point x="271,723" y="0,342511" type="curve" smooth="yes"/>
      <point x="272,648" y="0,229585"/>
      <point x="273,574" y="0,115415"/>
      <point x="274,5" y="0" type="curve" smooth="yes"/>
      <point x="274,5" y="0,684172" type="line"/>
      <point x="356,764" y="10,6909"/>
      <point x="438,767" y="10,4994"/>
      <point x="523" y="0" type="curve"/>
      <point x="523" y="8" type="line"/>
      <point x="508" y="12" type="line" smooth="yes"/>
      <point x="497" y="15"/>
      <point x="487" y="20"/>
      <point x="478" y="27" type="curve" smooth="yes"/>
      <point x="467" y="35"/>
      <point x="462" y="59"/>
      <point x="462" y="59" type="curve"/>
      <point x="462" y="434" type="line"/>
    </contour>
    <contour>
      <point x="271,75" y="8,73333" type="line"/>
      <point x="259,5" y="12" type="line" smooth="yes"/>
      <point x="248,5" y="15"/>
      <point x="238,5" y="20"/>
      <point x="229,5" y="27" type="curve" smooth="yes"/>
      <point x="218,5" y="35"/>
      <point x="213,5" y="59"/>
      <point x="213,5" y="59" type="curve"/>
      <point x="213,5" y="434" type="line"/>
      <point x="273" y="434" type="line"/>
      <point x="329" y="434" type="line"/>
      <point x="329" y="54" type="line" smooth="yes"/>
      <point x="329" y="44"/>
      <point x="324" y="35"/>
      <point x="314" y="27" type="curve" smooth="yes"/>
      <point x="304" y="19"/>
      <point x="294" y="14"/>
      <point x="284" y="12" type="curve" smooth="yes"/>
    </contour>
    <contour>
      <point x="356,957" y="621,297" type="curve"/>
      <point x="321,243" y="547,581"/>
      <point x="281,737" y="480"/>
      <point x="216,5" y="480" type="curve"/>
      <point x="216,5" y="542"/>
      <point x="180,5" y="628"/>
      <point x="180,5" y="720" type="curve" smooth="yes"/>
      <point x="180,5" y="760,5"/>
      <point x="214,5" y="792,5"/>
      <point x="254,5" y="792,5" type="curve" smooth="yes"/>
      <point x="315,752" y="792,5"/>
      <point x="356,682" y="749,292"/>
    </contour>
  </outline>
</glyph>
<glyph name="uniFB01" format="1">
  <advance width="533"/>
  <unicode hex="FB01"/>
  <outline>
    <contour>
      <point x="213,351" y="439" type="line"/>
      <point x="310,351" y="454"/>
      <point x="397" y="461"/>
      <point x="462" y="501" type="curve"/>
      <point x="469" y="500" type="line"/>
      <point x="469" y="59" type="line"/>
      <point x="468" y="33"/>
      <point x="493" y="17"/>
      <point x="514" y="12" type="curve" smooth="yes"/>
      <point x="529" y="8" type="line"/>
      <point x="529" y="0" type="line"/>
      <point x="443,195" y="10,7275"/>
      <point x="358,135" y="10,7227"/>
      <point x="274" y="0" type="curve"/>
      <point x="274" y="2"/>
      <point x="273,833" y="4,83333"/>
      <point x="274" y="8" type="curve"/>
      <point x="289" y="12" type="line" smooth="yes"/>
      <point x="307" y="16"/>
      <point x="335" y="33"/>
      <point x="334" y="54" type="curve"/>
      <point x="334" y="320" type="line" smooth="yes"/>
      <point x="334" y="383"/>
      <point x="264,351" y="420"/>
      <point x="213,351" y="433" type="curve"/>
    </contour>
    <contour>
      <point x="254,5" y="792,5" type="curve"/>
      <point x="214,5" y="792,5"/>
      <point x="184,898" y="764,625"/>
      <point x="180,5" y="720" type="curve"/>
      <point x="180,5" y="628"/>
      <point x="213,5" y="542"/>
      <point x="213,5" y="480" type="curve"/>
      <point x="213,501" y="479,999" type="line"/>
      <point x="213,688" y="434,303" type="line"/>
      <point x="24,5" y="434" type="line"/>
      <point x="24,5" y="443" type="line"/>
      <point x="105,5" y="555"/>
      <point x="130,5" y="807"/>
      <point x="258,5" y="807" type="curve"/>
      <point x="382,728" y="807"/>
      <point x="433,744" y="682"/>
      <point x="433,744" y="626,115" type="curve" smooth="yes"/>
      <point x="433,744" y="562,113"/>
      <point x="386,247" y="535,115"/>
      <point x="346,744" y="535,115" type="curve" smooth="yes"/>
      <point x="272,744" y="535,115"/>
      <point x="228" y="620,371"/>
      <point x="292,244" y="684,615" type="curve"/>
      <point x="337" y="729,371"/>
      <point x="313" y="792,5"/>
    </contour>
    <contour>
      <point x="80,5" y="441" type="line"/>
      <point x="213,5" y="441" type="line"/>
      <point x="213,5" y="59" type="line"/>
      <point x="213,5" y="59"/>
      <point x="218,5" y="35"/>
      <point x="229,5" y="27" type="curve" smooth="yes"/>
      <point x="238,5" y="20"/>
      <point x="248,5" y="15"/>
      <point x="259,5" y="12" type="curve" smooth="yes"/>
      <point x="274,5" y="8" type="line"/>
      <point x="274,5" y="0" type="line"/>
      <point x="188,39" y="10,7334"/>
      <point x="104,61" y="10,6943"/>
      <point x="20,5" y="0" type="curve"/>
      <point x="20,5" y="8" type="line"/>
      <point x="35,5" y="12" type="line" smooth="yes"/>
      <point x="45,5" y="14"/>
      <point x="55,5" y="19"/>
      <point x="65,5" y="27" type="curve" smooth="yes"/>
      <point x="75,5" y="35"/>
      <point x="80,5" y="44"/>
      <point x="80,5" y="54" type="curve" smooth="yes"/>
    </contour>
  </outline>
</glyph>
